<svg width="25" height="24" viewBox="0 0 25 24" fill="none" xmlns="http://www.w3.org/2000/svg">
<g clip-path="url(#clip0_257_2480)">
<path d="M11.2578 11.828L19.1068 3.979L20.5208 5.393L19.1068 6.808L21.5808 9.282L20.1668 10.697L17.6918 8.222L16.2778 9.636L18.3988 11.757L16.9848 13.172L14.8638 11.05L12.6718 13.242C13.3522 14.276 13.6251 15.5256 13.4377 16.7491C13.2503 17.9727 12.6158 19.0832 11.6571 19.8661C10.6983 20.649 9.48328 21.0486 8.24697 20.9876C7.01066 20.9267 5.84088 20.4094 4.96379 19.536C4.08482 18.6603 3.56282 17.4891 3.49925 16.25C3.43567 15.0109 3.83507 13.7925 4.61981 12.8314C5.40454 11.8704 6.51857 11.2354 7.74535 11.05C8.97214 10.8646 10.2241 11.1419 11.2578 11.828ZM10.6208 18.121C10.9121 17.8455 11.1452 17.5143 11.3064 17.1471C11.4675 16.7799 11.5534 16.3842 11.559 15.9832C11.5646 15.5823 11.4897 15.1843 11.3388 14.8128C11.188 14.4412 10.9641 14.1037 10.6806 13.8202C10.3971 13.5367 10.0596 13.3128 9.68804 13.162C9.31651 13.0111 8.91852 12.9362 8.51757 12.9418C8.11662 12.9474 7.72086 13.0333 7.35368 13.1944C6.98649 13.3556 6.65534 13.5887 6.37979 13.88C5.83332 14.4458 5.53094 15.2036 5.53777 15.9902C5.54461 16.7768 5.86011 17.5292 6.41634 18.0855C6.97256 18.6417 7.725 18.9572 8.51159 18.964C9.29818 18.9709 10.056 18.6685 10.6218 18.122L10.6208 18.121Z" fill="white"/>
</g>
<defs>
<clipPath id="clip0_257_2480">
<rect width="24" height="24" fill="white" transform="translate(0.5)"/>
</clipPath>
</defs>
</svg>
