<svg width="20" height="18" viewBox="0 0 20 18" fill="none" xmlns="http://www.w3.org/2000/svg">
<path d="M19.154 13.4617C19.077 13.7694 18.8463 13.8463 18.5386 13.8463C17.0001 13.8463 15.4617 13.8463 13.9232 13.8463C13.8719 13.8463 13.795 13.8463 13.6924 13.8463C13.7437 13.8976 13.795 13.9488 13.8463 14.0001C14.2052 14.3591 14.5386 14.7181 14.8463 15.0771C15.077 15.2309 15.077 15.4617 15.0001 15.6924C14.8463 15.8463 14.6155 16.0001 14.3847 15.9232C14.2822 15.8719 14.1796 15.795 14.077 15.6924C13.5129 15.1283 12.9488 14.5642 12.3847 14.0001C12.2822 13.8976 12.1796 13.8463 12.077 13.8463C10.9488 13.8463 9.82063 13.8463 8.69242 13.8463C8.53857 13.8463 8.43601 13.8976 8.38473 14.0001C7.76934 14.5642 7.1796 15.154 6.6155 15.7694C6.46165 15.9232 6.28216 15.9745 6.07704 15.9232C5.69242 15.7694 5.6155 15.3078 5.84627 15.0771C6.20524 14.7181 6.56422 14.3591 6.92319 14.0001C6.92319 14.0001 6.94883 13.9488 7.00011 13.8463C6.94883 13.8463 6.89755 13.8463 6.84627 13.8463C5.25652 13.8463 3.69242 13.8463 2.15396 13.8463C1.69242 13.8463 1.53857 13.6924 1.53857 13.2309C1.53857 9.53859 1.53857 5.82064 1.53857 2.07705C1.53857 1.6668 1.7437 1.46167 2.15396 1.46167C7.64114 1.46167 13.1027 1.46167 18.5386 1.46167C18.8463 1.46167 19.0514 1.58988 19.154 1.84629C19.154 5.74372 19.154 9.61552 19.154 13.4617ZM2.6155 2.53859C2.6155 5.30782 2.6155 8.05141 2.6155 10.7694C7.79498 10.7694 12.9745 10.7694 18.154 10.7694C18.154 8.00013 18.154 5.25654 18.154 2.53859C12.9745 2.53859 7.79498 2.53859 2.6155 2.53859ZM18.154 11.8463C12.9745 11.8463 7.79498 11.8463 2.6155 11.8463C2.6155 12.154 2.6155 12.4873 2.6155 12.8463C7.79498 12.8463 12.9745 12.8463 18.154 12.8463C18.154 12.4873 18.154 12.154 18.154 11.8463Z" fill="#363636"/>
</svg>
