<svg width="20" height="20" viewBox="0 0 20 20" fill="none" xmlns="http://www.w3.org/2000/svg">
<g clip-path="url(#clip0_337_1719)">
<path d="M7.65627 1.32422V2.64453L6.35159 3.92188C5.63284 4.625 5.00002 5.27344 4.94924 5.36328C4.78909 5.63672 4.72659 5.91406 4.72659 6.36719C4.72659 6.85156 4.77737 7.0625 4.98049 7.38672L5.12112 7.61719L4.98049 7.84766C4.71877 8.26953 4.72659 8.16406 4.72659 11.1719C4.72659 14.1797 4.71877 14.0742 4.98049 14.4961L5.12112 14.7266L4.98049 14.957C4.73831 15.3516 4.72659 15.4219 4.72659 16.7891C4.72659 18.1602 4.74221 18.2773 4.98831 18.7656C5.25784 19.3008 5.86331 19.7812 6.46877 19.9375C6.77737 20.0156 7.37502 20.0195 7.67581 19.9375C7.80471 19.9062 8.03127 19.8125 8.17971 19.7344L8.44924 19.5898L8.70706 19.7188C9.4844 20.0977 10.5156 20.0977 11.293 19.7188L11.5508 19.5898L11.8203 19.7344C11.9688 19.8125 12.1953 19.9062 12.3242 19.9375C12.625 20.0195 13.2227 20.0156 13.5274 19.9375C14.3399 19.7266 15 19.0664 15.211 18.2539C15.2617 18.0625 15.2735 17.7773 15.2735 16.7891C15.2735 15.4219 15.2617 15.3516 15.0196 14.957L14.8789 14.7266L15.0196 14.4961C15.2813 14.0742 15.2735 14.1797 15.2735 11.1719C15.2735 8.16406 15.2813 8.26953 15.0196 7.84766L14.8789 7.61719L15.0196 7.38672C15.2227 7.05859 15.2735 6.85156 15.2735 6.35938C15.2735 5.90234 15.1992 5.60156 15.0235 5.32031C14.9727 5.23828 14.3516 4.60547 13.6367 3.91016L12.3438 2.64453V1.32422V0H10H7.65627V1.32422ZM11.1719 1.75781V2.34375H10H8.82815V1.75781V1.17188H10H11.1719V1.75781ZM12.75 4.75391C13.4492 5.43359 14.0274 6.02344 14.0391 6.07031C14.0508 6.11719 14.0625 6.25391 14.0625 6.38281C14.0625 6.65234 13.9805 6.81641 13.7813 6.93359C13.6563 7.01172 13.5821 7.01172 10 7.01172H6.34768L6.21096 6.92578C6.00002 6.79688 5.93752 6.65625 5.93752 6.32812V6.04297L6.28127 5.70312C6.46877 5.51562 7.0469 4.94531 7.56643 4.4375L8.50784 3.51562H9.99612H11.4844L12.75 4.75391ZM13.7891 8.30859C13.8633 8.35547 13.961 8.45312 14.0039 8.52344C14.0781 8.64844 14.0821 8.72266 14.0821 11.1719C14.0821 13.6211 14.0781 13.6953 14.0039 13.8203C13.961 13.8906 13.8633 13.9883 13.7891 14.0352L13.6524 14.1211H10H6.34768L6.21096 14.0352C6.13674 13.9883 6.03909 13.8906 5.99612 13.8203C5.9219 13.6953 5.91799 13.6211 5.91799 11.1719V8.65234L6.00393 8.51562C6.09768 8.36328 6.21096 8.28125 6.38674 8.23828C6.45315 8.22266 8.11331 8.21484 10.0781 8.21484L13.6524 8.22266L13.7891 8.30859ZM13.7891 15.418C14.0625 15.5859 14.0821 15.6562 14.0938 16.6289C14.1094 17.5391 14.0742 17.9062 13.9571 18.1523C13.8672 18.3438 13.6172 18.5938 13.418 18.6914C13.2266 18.7812 12.793 18.8164 12.6016 18.75L12.4649 18.707L12.5781 18.5C12.8281 18.0547 12.8985 17.7734 12.918 17.0977L12.9375 16.4844H12.3477H11.7578V16.7266C11.7539 17.1602 11.6875 17.543 11.5625 17.8008C11.4063 18.1367 11.0625 18.4805 10.7149 18.6445C10.4649 18.7617 10.4258 18.7695 10 18.7695C9.57424 18.7695 9.53518 18.7617 9.28518 18.6445C8.93752 18.4805 8.59377 18.1367 8.43752 17.8008C8.31252 17.543 8.24612 17.1602 8.24221 16.7266V16.4844H7.65237H7.06252L7.08206 17.0977C7.10159 17.7734 7.1719 18.0547 7.4219 18.5L7.53518 18.707L7.39846 18.75C7.20706 18.8164 6.77346 18.7812 6.58206 18.6914C6.38284 18.5938 6.13284 18.3438 6.04299 18.1523C5.92581 17.9062 5.89065 17.5391 5.90627 16.6289C5.91799 15.8164 5.9219 15.7539 6.00393 15.625C6.09768 15.4727 6.21096 15.3906 6.38674 15.3477C6.45315 15.332 8.11331 15.3242 10.0781 15.3242L13.6524 15.332L13.7891 15.418Z" fill="#363636"/>
</g>
<defs>
<clipPath id="clip0_337_1719">
<rect width="20" height="20" fill="white"/>
</clipPath>
</defs>
</svg>
