<svg width="18" height="20" viewBox="0 0 18 20" fill="none" xmlns="http://www.w3.org/2000/svg">
<path d="M14.775 18.9232C13.975 18.9232 13.175 18.9232 12.375 18.9232C12.075 18.8463 12 18.6155 12 18.3078C12 18.0514 12 17.8206 12 17.6155C12 17.3591 12 17.077 12 16.7693C10 16.7693 8 16.7693 6 16.7693C6 16.8206 6 16.8976 6 17.0001C6 17.4104 6 17.8463 6 18.3078C6 18.6155 5.925 18.8463 5.625 18.9232C4.825 18.9232 4.025 18.9232 3.225 18.9232C2.925 18.8463 2.85 18.6155 2.85 18.3078C2.85 17.795 2.85 17.3078 2.85 16.8463C2.85 16.7693 2.85 16.6924 2.7 16.6155C1.95 16.3078 1.5 15.6924 1.5 14.8463C1.5 11.0514 1.5 7.25652 1.5 3.46165C1.5 2.38473 2.325 1.53857 3.45 1.53857C7.15 1.53857 10.85 1.53857 14.55 1.53857C15.675 1.53857 16.5 2.38473 16.5 3.46165C16.5 4.02575 16.5 4.56422 16.5 5.07704C16.5 8.30781 16.5 11.5642 16.5 14.8463C16.5 15.6924 16.05 16.3847 15.3 16.6155C15.15 16.6924 15.15 16.7693 15.15 16.8463C15.15 17.3078 15.15 17.795 15.15 18.3078C15.15 18.6155 15.075 18.8463 14.775 18.9232ZM2.475 11.8463C2.475 11.8975 2.475 11.9488 2.475 12.0001C2.475 12.9232 2.475 13.8463 2.475 14.7693C2.475 15.3847 2.85 15.7693 3.45 15.7693C7.15 15.7693 10.85 15.7693 14.55 15.7693C15.15 15.7693 15.525 15.3847 15.525 14.7693C15.525 11.0258 15.525 7.28216 15.525 3.53857C15.525 2.92319 15.15 2.53857 14.55 2.53857C10.85 2.53857 7.15 2.53857 3.45 2.53857C2.85 2.53857 2.475 2.92319 2.475 3.53857C2.475 4.46165 2.475 5.38473 2.475 6.30781C2.475 6.35909 2.5 6.41037 2.55 6.46165C2.9 6.46165 3.275 6.46165 3.675 6.46165C3.675 6.35909 3.675 6.28216 3.675 6.23088C3.675 5.6155 3.675 4.97447 3.675 4.30781C3.675 3.89755 3.875 3.69242 4.275 3.69242C7.425 3.69242 10.575 3.69242 13.725 3.69242C14.125 3.69242 14.325 3.89755 14.325 4.30781C14.325 7.53857 14.325 10.7437 14.325 13.9232C14.325 14.3847 14.175 14.5386 13.725 14.5386C10.575 14.5386 7.425 14.5386 4.275 14.5386C3.825 14.5386 3.675 14.3847 3.675 13.9232C3.675 13.3078 3.675 12.6668 3.675 12.0001C3.675 11.9488 3.675 11.8975 3.675 11.8463C3.275 11.8463 2.875 11.8463 2.475 11.8463ZM4.65 4.76934C4.65 7.69242 4.65 10.6155 4.65 13.5386C7.55 13.5386 10.45 13.5386 13.35 13.5386C13.35 10.6155 13.35 7.69242 13.35 4.76934C10.45 4.76934 7.55 4.76934 4.65 4.76934ZM3.675 10.8463C3.675 9.71806 3.675 8.58986 3.675 7.46165C3.275 7.46165 2.9 7.46165 2.55 7.46165C2.55 8.58986 2.55 9.71806 2.55 10.8463C2.9 10.8463 3.275 10.8463 3.675 10.8463ZM5.025 16.7693C4.625 16.7693 4.225 16.7693 3.825 16.7693C3.825 17.1796 3.825 17.5642 3.825 17.9232C4.225 17.9232 4.625 17.9232 5.025 17.9232C5.025 17.5129 5.025 17.1283 5.025 16.7693ZM14.175 16.7693C13.775 16.7693 13.375 16.7693 12.975 16.7693C12.975 17.1283 12.975 17.5129 12.975 17.9232C13.375 17.9232 13.775 17.9232 14.175 17.9232C14.175 17.5129 14.175 17.1283 14.175 16.7693ZM11.55 11.077C11.7 11.1796 11.85 11.3078 12 11.4617C12.225 11.6924 12.225 12.0001 12 12.2309C11.85 12.3847 11.475 12.3847 11.25 12.154C11.15 12.0514 11.025 11.9232 10.875 11.7693C9.6 12.6155 8.4 12.6155 7.125 11.7693C6.975 11.8719 6.85 12.0001 6.75 12.154C6.525 12.3847 6.225 12.3847 6 12.2309C5.775 12.0001 5.775 11.6924 6 11.4617C6.15 11.3078 6.275 11.1796 6.375 11.077C6.225 10.6924 6.075 10.3847 5.925 10.077C5.675 9.10268 5.8 8.20524 6.3 7.38473C6.375 7.30781 6.375 7.23088 6.3 7.15396C6.2 7.0514 6.1 6.94883 6 6.84627C5.775 6.6155 5.775 6.30781 6 6.07704C6.15 5.84627 6.45 5.84627 6.675 6.07704C6.825 6.23088 6.95 6.38473 7.05 6.53857C7.35 6.38473 7.65 6.23088 7.875 6.15396C8.875 5.7437 9.825 5.84627 10.725 6.46165C10.875 6.53857 10.875 6.53857 11.025 6.38473C11.075 6.28216 11.175 6.1796 11.325 6.07704C11.55 5.92319 11.85 5.84627 12 6.07704C12.225 6.30781 12.225 6.6155 12 6.84627C11.9 6.94883 11.8 7.0514 11.7 7.15396C11.625 7.23088 11.625 7.30781 11.625 7.30781C12.45 8.6155 12.375 9.84627 11.55 11.077ZM9 6.92319C7.8 6.92319 6.825 7.92319 6.825 9.15396C6.825 10.3847 7.8 11.3847 9 11.3847C10.2 11.3847 11.175 10.3847 11.175 9.15396C11.175 7.92319 10.2 6.92319 9 6.92319Z" fill="#363636"/>
</svg>
