<svg width="20" height="16" viewBox="0 0 20 16" fill="none" xmlns="http://www.w3.org/2000/svg">
<g clip-path="url(#clip0_337_1743)">
<path d="M19.6431 4.07143C19.6431 4.30952 19.6431 4.54762 19.6431 4.78571C19.6431 4.83333 19.6431 4.88095 19.6431 4.92857C19.5002 6.02381 19.0002 6.90476 18.1431 7.57143C18.0955 7.57143 18.0716 7.59524 18.0716 7.64286C18.405 7.92857 18.5955 8.30952 18.6431 8.78572C18.7145 9.21429 18.5716 9.64286 18.2859 10C18.3812 10.0476 18.4526 10.0952 18.5002 10.1429C19.2859 10.9286 19.6431 11.8571 19.3574 12.9286C19.0716 14.2857 17.9288 15.1429 16.4288 15.1429C12.5716 15.1905 8.7145 15.1905 4.85736 15.1429C4.50022 15.1429 4.14307 15.1429 3.78593 15.0714C2.2145 14.6429 1.14307 13.6429 0.78593 12.0714C0.500216 10.5 1.00022 9.14286 2.28593 8.14286C2.28593 8.09524 2.30974 8.04762 2.35736 8C0.571644 6.92857 0.428787 4.42857 2.07164 3.21429C1.7145 2.64286 1.64307 2.21429 1.78593 1.71429C2.00022 1 2.64307 0.5 3.42879 0.5C6.19069 0.5 8.97641 0.5 11.7859 0.5C13.0716 0.5 14.4288 0.5 15.7145 0.5C17.5716 0.571429 19.0716 1.71429 19.5002 3.42857C19.5955 3.66667 19.6431 3.88095 19.6431 4.07143ZM11.2145 7.28571C11.3574 7.28571 11.3574 7.28571 11.4288 7.28571C12.8097 7.28571 14.2145 7.28571 15.6431 7.28571C15.7859 7.28571 15.9526 7.2619 16.1431 7.21429C17.7145 7 18.8574 5.42857 18.5002 3.85714C18.2145 2.57143 17.0716 1.64286 15.6431 1.64286C14.2621 1.64286 12.8574 1.64286 11.4288 1.64286C11.3812 1.64286 11.3097 1.64286 11.2145 1.64286C12.0002 2.42857 12.4288 3.35714 12.4288 4.42857C12.4288 5.57143 12.0002 6.5 11.2145 7.28571ZM9.14307 14.0714C8.35736 13.2143 7.92879 12.2857 7.92879 11.2143C7.92879 10.1429 8.35736 9.21429 9.14307 8.42857C9.07164 8.42857 9.00022 8.42857 9.00022 8.42857C7.57164 8.42857 6.14307 8.42857 4.7145 8.42857C4.57164 8.42857 4.42879 8.42857 4.28593 8.42857C2.64307 8.64286 1.57164 10.2143 1.85736 11.7857C2.2145 13.1429 3.35736 14.0714 4.7145 14.0714C6.14307 14.0714 7.54783 14.0714 8.92879 14.0714C8.97641 14.0714 9.04783 14.0714 9.14307 14.0714ZM6.00022 1.64286C5.19069 1.64286 4.35736 1.64286 3.50022 1.64286C3.4526 1.64286 3.38117 1.64286 3.28593 1.64286C3.00022 1.64286 2.85736 1.85714 2.85736 2.14286C2.85736 2.35714 3.00022 2.57143 3.28593 2.64286C3.33355 2.64286 3.40498 2.64286 3.50022 2.64286C4.4526 2.64286 5.38117 2.64286 6.28593 2.64286C7.00022 2.64286 7.7145 2.64286 8.50022 2.64286C9.42879 2.64286 10.1431 3.57143 10.0002 4.5C9.85736 5.28571 9.2145 5.85714 8.35736 5.85714C6.88117 5.85714 5.42879 5.85714 4.00022 5.85714C3.9526 5.85714 3.92879 5.85714 3.92879 5.85714C3.64307 5.85714 3.42879 5.64286 3.42879 5.35714C3.35736 5.14286 3.50022 4.85714 3.78593 4.78571C3.88117 4.78571 3.97641 4.78571 4.07164 4.78571C5.50022 4.78571 6.92879 4.78571 8.35736 4.78571C8.64307 4.78571 8.92879 4.5 8.85736 4.28571C8.85736 4 8.64307 3.78571 8.35736 3.78571C6.83355 3.7381 5.28593 3.7381 3.7145 3.78571C2.57164 3.78571 1.78593 4.92857 2.14307 6.07143C2.35736 6.78571 3.07164 7.28571 3.85736 7.28571C5.38117 7.28571 6.90498 7.28571 8.42879 7.28571C8.57164 7.28571 8.73831 7.2619 8.92879 7.21429C10.5002 7.07143 11.6431 5.42857 11.2859 3.85714C11.0002 2.57143 9.85736 1.64286 8.42879 1.64286C7.61926 1.64286 6.80974 1.64286 6.00022 1.64286ZM14.3574 8.42857C13.9288 8.38095 13.4764 8.38095 13.0002 8.42857C12.5002 8.42857 12.0002 8.35714 11.5002 8.42857C10.1431 8.57143 9.07164 9.78571 9.07164 11.1429C9.00022 12.7143 10.2145 14 11.8574 14.0714C13.4288 14.0714 15.0002 14.0714 16.5716 14.0714C17.8574 14 18.6431 12.7857 18.2145 11.6429C17.9288 10.9286 17.2859 10.5 16.4288 10.5C15.0002 10.5 13.5716 10.5 12.1431 10.5C12.0478 10.5 11.9764 10.5238 11.9288 10.5714C11.5716 10.6429 11.4288 10.9286 11.5716 11.2143C11.6431 11.5 11.8574 11.5714 12.1431 11.5714C13.5716 11.5714 15.0002 11.5714 16.4288 11.5714C16.7145 11.5714 17.0002 11.7857 17.0002 12.0714C17.0002 12.4286 16.7859 12.6429 16.4288 12.6429C14.9288 12.6429 13.4288 12.6429 11.9288 12.6429C10.8574 12.6429 10.1431 11.5714 10.4288 10.5714C10.6431 9.85714 11.2859 9.42857 12.1431 9.42857C13.7145 9.42857 15.2859 9.42857 16.8574 9.42857C16.9526 9.42857 17.0478 9.42857 17.1431 9.42857C17.3335 9.38095 17.4526 9.2619 17.5002 9.07143C17.6431 8.71429 17.4288 8.42857 17.0002 8.42857C16.1431 8.42857 15.2621 8.42857 14.3574 8.42857Z" fill="#363636"/>
</g>
<defs>
<clipPath id="clip0_337_1743">
<rect width="20" height="15" fill="white" transform="translate(0 0.5)"/>
</clipPath>
</defs>
</svg>
