<svg width="18" height="18" viewBox="0 0 18 18" fill="none" xmlns="http://www.w3.org/2000/svg">
<path d="M5.42812 0.0492172C4.98867 0.186327 4.59844 0.513279 4.39805 0.903513C4.3418 1.02304 4.22578 1.37109 4.14492 1.68398L3.99727 2.25H2.7457C1.55742 2.25 1.48711 2.25351 1.37812 2.32031C1.21289 2.42226 1.125 2.5875 1.125 2.79492C1.125 3.0375 1.43789 4.2293 1.61367 4.6582C1.88086 5.30508 2.23945 5.85351 2.74922 6.38437L3.02344 6.66914L2.88281 7.52695C2.6332 9.0457 2.46445 10.4133 2.3168 12.1289C2.2957 12.3715 2.27109 13.4719 2.26055 14.5758C2.24297 16.3898 2.24648 16.6043 2.30273 16.7906C2.45391 17.325 2.88984 17.7715 3.41367 17.9332C3.61758 17.9965 3.81445 18 8.4375 18C13.0605 18 13.2574 17.9965 13.4613 17.9332C13.9852 17.7715 14.4211 17.325 14.5723 16.7906C14.625 16.6078 14.632 16.3898 14.6145 14.6109C14.5969 12.5473 14.5723 12.0621 14.3965 10.4414C14.1785 8.44453 13.7461 5.92734 13.275 3.88476L13.159 3.375H13.391C14.0801 3.375 14.4773 3.57187 14.6918 4.01836C14.7937 4.22578 14.8184 4.39101 15.2754 7.83633C15.6375 10.582 15.7676 11.4645 15.8133 11.5453C15.9187 11.7246 16.084 11.8125 16.309 11.8125C16.6605 11.8125 16.875 11.6051 16.875 11.257C16.875 11.0285 15.9785 4.2539 15.9047 3.94101C15.7711 3.35039 15.3035 2.7668 14.7586 2.49961C14.3227 2.28515 14.1398 2.25 13.4613 2.25H12.8777L12.7301 1.68047C12.6457 1.36758 12.5332 1.01953 12.477 0.903513C12.2801 0.513279 11.9285 0.217966 11.5031 0.0738258C11.2922 -1.90735e-06 11.2254 -1.90735e-06 8.43047 0.00351334C6.22266 0.00351334 5.54063 0.014061 5.42812 0.0492172ZM11.2113 1.21289C11.3941 1.32187 11.4574 1.43086 11.5699 1.84922C11.6262 2.06015 11.6719 2.23594 11.6719 2.23945C11.6719 2.24648 10.2164 2.25 8.4375 2.25C6.65859 2.25 5.20312 2.24648 5.20312 2.23945C5.20312 2.16562 5.42109 1.45195 5.46328 1.38867C5.53359 1.27969 5.66367 1.19531 5.81133 1.16015C5.87109 1.14258 7.0875 1.13203 8.50781 1.13555C11.0215 1.14258 11.0953 1.14609 11.2113 1.21289ZM3.60352 3.87422C3.54023 4.15195 3.45234 4.54922 3.41016 4.76367C3.36445 4.97461 3.31875 5.16445 3.30469 5.17851C3.26602 5.2207 3.02344 4.86914 2.83359 4.5C2.69297 4.2293 2.51719 3.76172 2.44687 3.46992L2.42578 3.375H3.07266H3.71602L3.60352 3.87422ZM12.1359 4.13086C12.9199 7.55508 13.3945 10.9652 13.4543 13.6512L13.4754 14.625H8.4375H3.39961L3.4207 13.6477C3.48398 10.9301 3.9375 7.66758 4.74961 4.07812C4.82695 3.74062 4.89727 3.4418 4.9043 3.41719C4.91836 3.38203 5.64258 3.375 8.44102 3.38203L11.9637 3.39258L12.1359 4.13086ZM13.493 16.098C13.4684 16.5762 13.3523 16.766 13.0219 16.8398C12.8391 16.882 4.03594 16.882 3.85312 16.8398C3.52266 16.766 3.40664 16.5762 3.38203 16.098L3.36445 15.75H8.4375H13.5105L13.493 16.098Z" fill="#363636"/>
</svg>
