<svg width="20" height="23" viewBox="0 0 20 23" fill="none" xmlns="http://www.w3.org/2000/svg">
<path d="M16.2498 21.357C15.3054 21.357 14.3332 21.357 13.3332 21.357C12.9998 21.1928 12.8332 20.9463 12.8332 20.6178C12.8887 20.0701 12.8887 19.5499 12.8332 19.057C12.8332 19.0023 12.8332 18.9201 12.8332 18.8106C11.0554 18.8106 9.27762 18.8106 7.49984 18.8106C7.49984 19.413 7.49984 20.0154 7.49984 20.6178C7.49984 20.9463 7.4165 21.1928 6.99984 21.357C6.05539 21.357 5.08317 21.357 4.08317 21.357C3.74984 21.1928 3.6665 20.9463 3.6665 20.6178C3.6665 20.1797 3.6665 19.769 3.6665 19.3856C3.6665 19.2213 3.6665 19.0297 3.6665 18.8106C3.61095 18.8106 3.55539 18.8106 3.49984 18.8106C2.4165 18.5642 1.6665 17.6606 1.6665 16.5928C1.6665 12.2118 1.6665 7.80347 1.6665 3.36776C1.6665 2.13562 2.6665 1.1499 3.99984 1.1499C8.11095 1.1499 12.2498 1.1499 16.4165 1.1499C16.6387 1.1499 16.8887 1.20466 17.1665 1.31419C18.0832 1.56062 18.7498 2.38205 18.7498 3.4499C18.7498 7.83085 18.7498 12.2118 18.7498 16.5928C18.7498 16.6475 18.7498 16.7023 18.7498 16.757C18.6665 17.7428 17.9998 18.5642 16.9165 18.7285C16.8609 18.7832 16.8054 18.8106 16.7498 18.8106C16.7498 19.413 16.7498 20.0154 16.7498 20.6178C16.7498 20.9463 16.6665 21.1928 16.2498 21.357ZM2.9165 4.92847C2.9165 4.98324 2.9165 5.038 2.9165 5.09276C2.9165 8.92609 2.9165 12.7594 2.9165 16.5928C2.9165 17.2499 3.33317 17.6606 3.99984 17.6606C8.11095 17.6606 12.2221 17.6606 16.3332 17.6606C17.0832 17.6606 17.4998 17.2499 17.4998 16.5928C17.4998 12.7594 17.4998 8.92609 17.4998 5.09276C17.4998 5.038 17.4998 4.98324 17.4998 4.92847C12.6109 4.92847 7.74984 4.92847 2.9165 4.92847ZM17.4998 3.69633C17.5832 2.79276 16.9998 2.38205 16.2498 2.38205C12.1943 2.38205 8.11095 2.38205 3.99984 2.38205C3.24984 2.38205 2.74984 2.95705 2.9165 3.69633C7.74984 3.69633 12.6109 3.69633 17.4998 3.69633ZM6.24984 20.1249C6.24984 19.6868 6.24984 19.2487 6.24984 18.8106C5.80539 18.8106 5.36095 18.8106 4.9165 18.8106C4.9165 19.2487 4.9165 19.6868 4.9165 20.1249C5.36095 20.1249 5.80539 20.1249 6.24984 20.1249ZM15.4998 18.8106C15.0554 18.8106 14.5832 18.8106 14.0832 18.8106C14.0832 19.2487 14.0832 19.6868 14.0832 20.1249C14.5832 20.1249 15.0554 20.1249 15.4998 20.1249C15.4998 19.6868 15.4998 19.2487 15.4998 18.8106ZM15.4165 10.0213C15.4165 10.6237 15.4165 11.2535 15.4165 11.9106C15.4165 12.3213 14.9165 12.6499 14.4998 12.4035C14.3332 12.3213 14.1665 12.0749 14.1665 11.8285C14.1665 11.3356 14.1665 10.8428 14.1665 10.3499C14.1665 9.638 14.1665 8.89871 14.1665 8.13205C14.1665 7.80347 14.4165 7.55704 14.7498 7.55704C15.0832 7.4749 15.4165 7.72133 15.4165 8.13205C15.4165 8.73443 15.4165 9.36419 15.4165 10.0213Z" fill="#363636"/>
</svg>
