<svg width="20" height="20" viewBox="0 0 20 20" fill="none" xmlns="http://www.w3.org/2000/svg">
<path d="M6.00791 1.17969C4.1915 1.28906 2.46884 2.45703 1.66025 4.11328C1.23056 5 1.11337 5.53125 1.11728 6.60156C1.11728 7.28125 1.129 7.41016 1.21884 7.80078C1.46884 8.86719 1.96884 9.74609 2.73837 10.4883C3.30869 11.0312 3.89853 11.4023 4.629 11.6602L4.98056 11.7891L5.879 14.6953C6.37509 16.293 6.81259 17.6797 6.84775 17.7773C7.004 18.1914 7.44541 18.5859 7.92197 18.7461C8.14853 18.8242 8.24619 18.8281 9.754 18.8281C11.2735 18.8281 11.3517 18.8242 11.4767 18.75C11.6524 18.6406 11.7579 18.4531 11.7579 18.2422C11.754 18.1445 11.3985 16.6172 10.961 14.8437C10.5235 13.0703 10.1798 11.6172 10.1915 11.6133C10.2032 11.6094 11.797 11.4375 13.7306 11.2305C15.6642 11.0234 17.3438 10.8398 17.461 10.8203C17.9415 10.7344 18.4532 10.3633 18.6798 9.9375C18.9063 9.51562 18.9063 9.52734 18.9063 6.5625C18.9063 3.60547 18.9063 3.60547 18.6837 3.19531C18.4845 2.82812 18.0079 2.46094 17.5899 2.34765C17.4181 2.30078 7.15634 1.1875 6.69931 1.16406C6.55088 1.16015 6.23838 1.16406 6.00791 1.17969ZM7.71884 2.5C8.32041 2.5625 10.1173 2.7539 11.7188 2.92969C13.3165 3.10156 14.6485 3.24219 14.6759 3.24219C14.7188 3.24219 14.7267 3.86328 14.7267 6.55859V9.875L14.5626 9.89844C14.4688 9.91016 13.6563 10 12.754 10.0977C11.8517 10.1953 10.1485 10.3828 8.96494 10.5117C7.06259 10.7227 6.754 10.7461 6.26963 10.7305C5.83213 10.7148 5.65244 10.6914 5.37119 10.6094C4.629 10.3906 4.00009 10.0117 3.48837 9.48047C2.91025 8.875 2.57041 8.23047 2.39853 7.41406C2.30869 6.98047 2.30869 6.14844 2.39853 5.72265C2.48837 5.30859 2.67978 4.80469 2.88681 4.44531C3.58212 3.23047 4.96884 2.41406 6.37119 2.38672C6.51572 2.38672 7.12119 2.43359 7.71884 2.5ZM16.6759 3.4375C17.3556 3.51562 17.4259 3.53906 17.5938 3.76562C17.6759 3.87109 17.6759 3.90625 17.6759 6.55469V9.23828L17.586 9.36719C17.4493 9.55859 17.3087 9.60937 16.7657 9.66797C16.4923 9.69922 16.1954 9.73437 16.1056 9.74219L15.9376 9.76562V6.5625C15.9376 4.02344 15.9493 3.35937 15.9884 3.35937C16.0118 3.35937 16.3243 3.39453 16.6759 3.4375ZM9.66416 14.6797C10.0626 16.2734 10.3907 17.5859 10.3907 17.5977C10.3907 17.6094 9.94931 17.6172 9.41416 17.6172C8.36337 17.6172 8.26963 17.6016 8.09384 17.4141C8.03134 17.3437 7.78134 16.5937 7.18759 14.668C6.73447 13.2148 6.36728 12.0156 6.36728 12.0078C6.36728 12 6.504 11.9922 6.67197 11.9883C6.83603 11.9883 7.41416 11.9375 7.94931 11.8789C8.48838 11.8203 8.92978 11.7734 8.93369 11.7773C8.93759 11.7773 9.26572 13.082 9.66416 14.6797Z" fill="#363636"/>
<path d="M5.32038 4.23828C4.48053 4.42188 3.75397 5.125 3.53522 5.97656C3.44147 6.33203 3.47272 7.03125 3.59382 7.37891C3.71882 7.72656 4.03913 8.18359 4.31647 8.41016C4.77741 8.78125 5.25006 8.94531 5.85163 8.94531C6.54303 8.94531 7.05475 8.73438 7.54303 8.23828C8.28522 7.49609 8.44538 6.44922 7.96881 5.47656C7.50006 4.52734 6.38678 4.00781 5.32038 4.23828ZM6.35553 5.55078C7.08991 5.90234 7.22663 6.85938 6.62116 7.41406C6.1485 7.84766 5.48444 7.83203 5.03913 7.38281C4.59381 6.94141 4.57819 6.27734 4.99225 5.81641C5.37116 5.39453 5.836 5.30469 6.35553 5.55078Z" fill="#363636"/>
</svg>
