<svg width="20" height="20" viewBox="0 0 20 20" fill="none" xmlns="http://www.w3.org/2000/svg">
<path d="M5.48148 19.3333C5.18519 19.2593 4.88889 19.1852 4.66667 18.963C4.22222 18.6667 4 18.2222 4 17.7037C4 15.3333 4 12.9877 4 10.6667C4 8.88889 5.40741 7.25926 7.18519 6.88889C7.23457 6.88889 7.30864 6.88889 7.40741 6.88889C7.40741 6.34568 7.40741 5.80247 7.40741 5.25926C7.40741 4.81482 7.55556 4.59259 8.07407 4.59259C8.37037 4.59259 8.69136 4.59259 9.03704 4.59259C9.03704 4.59259 9.03704 4.5679 9.03704 4.51852C9.03704 4.17284 9.03704 3.80247 9.03704 3.40741C8.88889 3.40741 8.74074 3.40741 8.59259 3.40741C8.14815 3.40741 7.92593 3.18519 7.92593 2.81482C7.92593 2.46914 7.92593 2.12346 7.92593 1.77778C7.92593 1.40741 7.7037 1.18519 7.40741 1.11111C7.03704 1.11111 6.81481 0.888889 6.81481 0.592593C6.81481 0.222222 7.11111 0 7.40741 0C8.96296 0 10.5185 0 12.1481 0C13.2593 0 14.2222 0.444444 15.037 1.25926C15.3333 1.48148 15.3333 1.85185 15.1111 2.07407C14.8889 2.2963 14.5185 2.2963 14.2963 2.07407C13.6543 1.4321 12.8642 1.11111 11.9259 1.11111C11.5556 1.11111 11.3333 1.40741 11.3333 1.77778C11.3333 2.12346 11.3333 2.46914 11.3333 2.81482C11.3333 3.18519 11.1111 3.40741 10.7407 3.40741C10.5432 3.40741 10.3704 3.40741 10.2222 3.40741C10.2222 3.80247 10.2222 4.19753 10.2222 4.59259C10.3704 4.59259 10.5185 4.59259 10.6667 4.59259C10.8642 4.59259 11.0617 4.59259 11.2593 4.59259C11.6296 4.59259 11.9259 4.81482 11.9259 5.18519C11.9259 5.7284 11.9259 6.2963 11.9259 6.88889C12.1235 6.93827 12.321 6.98765 12.5185 7.03704C14.1481 7.55556 15.2593 9.03704 15.2593 10.7407C15.2593 13.0617 15.2593 15.358 15.2593 17.6296C15.2593 18.4444 14.7407 19.1111 13.9259 19.3333C13.8765 19.3333 13.8272 19.3333 13.7778 19.3333C11.0123 19.3333 8.24691 19.3333 5.48148 19.3333ZM9.62963 18.2222C10.9136 18.2222 12.1975 18.2222 13.4815 18.2222C13.9259 18.2222 14.1481 18 14.1481 17.5556C14.1481 15.3333 14.1481 13.1111 14.1481 10.8889C14.1481 9.18519 12.8889 8 11.2593 8C10.1728 8 9.08642 8 8 8C6.37037 8 5.11111 9.18519 5.11111 10.8889C5.11111 13.1111 5.11111 15.3333 5.11111 17.5556C5.11111 18 5.33333 18.2222 5.77778 18.2222C7.06173 18.2222 8.34568 18.2222 9.62963 18.2222ZM8.51852 6.81482C9.25926 6.81482 10 6.81482 10.7407 6.81482C10.7407 6.46914 10.7407 6.09877 10.7407 5.7037C10 5.7037 9.25926 5.7037 8.51852 5.7037C8.51852 6.09877 8.51852 6.46914 8.51852 6.81482ZM10.2222 1.11111C9.82716 1.11111 9.4321 1.11111 9.03704 1.11111C9.03704 1.50617 9.06173 1.90123 9.11111 2.2963C9.45679 2.2963 9.80247 2.2963 10.1481 2.2963C10.1975 1.90123 10.2222 1.50617 10.2222 1.11111ZM9.62963 10.2222C10.8889 10.2222 11.9259 11.2593 11.9259 12.5185C11.9259 13.7778 10.8889 14.7407 9.62963 14.7407C8.37037 14.7407 7.40741 13.7778 7.40741 12.5185C7.40741 11.2593 8.37037 10.2222 9.62963 10.2222ZM10.7407 12.5185C10.7407 11.8519 10.2963 11.4074 9.62963 11.4074C9.03704 11.4074 8.51852 11.8519 8.51852 12.5185C8.51852 13.1111 9.03704 13.6296 9.62963 13.6296C10.2963 13.6296 10.7407 13.1111 10.7407 12.5185Z" fill="#363636"/>
</svg>
