<svg width="20" height="20" viewBox="0 0 20 20" fill="none" xmlns="http://www.w3.org/2000/svg">
<path d="M16.124 6C17.1667 6.19048 17.688 6.71429 17.688 7.57143C17.7333 8.04762 17.5973 8.45238 17.28 8.78571C16.94 9.14286 16.6 9.28572 16.124 9.28572C16.124 9.38095 16.124 9.45238 16.124 9.5C16.124 11.6429 16.124 13.7857 16.124 15.9286C16.124 16.0714 16.192 16.1429 16.26 16.2143C16.532 16.4048 16.668 16.6667 16.668 17C16.668 17.381 16.668 17.7857 16.668 18.2143C16.668 18.5 16.464 18.7143 16.124 18.7143C16.0787 18.7143 16.0333 18.7143 15.988 18.7143C11.908 18.7143 7.80533 18.7143 3.68 18.7143C3.204 18.7143 3 18.5714 3 18C3 17.7143 3 17.4048 3 17.0714C3 16.7381 3.136 16.4524 3.408 16.2143C3.476 16.1429 3.544 16.0714 3.544 15.9286C3.544 11.5476 3.544 7.16667 3.544 2.78571C3.544 2.64286 3.544 2.47619 3.544 2.28571C3.748 1.5 4.36 1 5.108 1C6.332 1 7.556 1 8.78 1C10.6387 1 12.52 1 14.424 1C15.444 1 16.124 1.71429 16.124 2.78571C16.124 3.78571 16.124 4.78571 16.124 5.78571C16.124 5.83333 16.124 5.90476 16.124 6ZM11.976 15.9286C13.0187 15.9286 14.0387 15.9286 15.036 15.9286C15.036 13.7381 15.036 11.5476 15.036 9.35714C15.036 9.35714 15.036 9.33333 15.036 9.28572C14.9 9.28572 14.764 9.28572 14.628 9.28572C13.948 9.28572 13.4493 8.95238 13.132 8.28571C13.132 8.28571 13.064 8.21429 12.996 8.21429C12.8147 8.21429 12.6333 8.21429 12.452 8.21429C12.452 8.26191 12.452 8.28571 12.452 8.28571C12.316 9.28571 11.704 9.85714 10.752 9.85714C10.616 9.85714 10.48 9.85714 10.344 9.85714C10.344 10.0476 10.344 10.2143 10.344 10.3571C10.344 10.7143 10.14 11 9.8 11C9.528 11 9.324 10.7143 9.324 10.3571C9.324 10.2143 9.324 10.0476 9.324 9.85714C9.14267 9.85714 8.984 9.85714 8.848 9.85714C7.896 9.85714 7.216 9.14286 7.216 8.14286C7.216 7.14286 7.216 6.11905 7.216 5.07143C7.216 5.02381 7.216 4.95238 7.216 4.85714C6.30933 4.85714 5.42533 4.85714 4.564 4.85714C4.564 8.57143 4.564 12.2619 4.564 15.9286C5.60667 15.9286 6.64933 15.9286 7.692 15.9286C7.692 15.881 7.66933 15.8571 7.624 15.8571C7.352 15.381 7.216 14.8571 7.216 14.2857C7.216 13.7619 7.216 13.2381 7.216 12.7143C7.216 12.2857 7.42 12.0714 7.828 12.0714C9.14267 12.0714 10.48 12.0714 11.84 12.0714C12.248 12.0714 12.452 12.2857 12.452 12.7143C12.452 13.2381 12.452 13.7381 12.452 14.2143C12.452 14.5 12.452 14.7857 12.316 15.0714C12.248 15.3571 12.112 15.6429 11.976 15.9286ZM15.036 3.78571C15.0813 3.7381 15.104 3.71429 15.104 3.71429C15.104 3.42857 15.104 3.11905 15.104 2.78571C15.104 2.28571 14.9 2.14286 14.424 2.14286C11.3867 2.14286 8.32667 2.14286 5.244 2.14286C5.19867 2.14286 5.15333 2.14286 5.108 2.14286C4.836 2.14286 4.632 2.28571 4.564 2.57143C4.564 2.92857 4.564 3.35714 4.564 3.78571C8.05467 3.78571 11.5453 3.78571 15.036 3.78571ZM8.236 4.85714C8.236 4.90476 8.236 4.95238 8.236 5C8.236 6.04762 8.236 7.11905 8.236 8.21429C8.236 8.57143 8.508 8.78571 8.848 8.78571C9.48267 8.78571 10.14 8.78571 10.82 8.78571C11.228 8.78571 11.432 8.57143 11.432 8.14286C11.432 7.09524 11.432 6.07143 11.432 5.07143C11.432 5.02381 11.432 4.95238 11.432 4.85714C10.344 4.85714 9.27867 4.85714 8.236 4.85714ZM8.236 13.2143C8.236 13.5714 8.236 14 8.236 14.3571C8.304 15.2143 8.848 15.7857 9.596 15.9286C10.344 16.0714 11.024 15.6429 11.296 14.9286C11.5 14.3571 11.364 13.7857 11.432 13.2143C10.344 13.2143 9.324 13.2143 8.236 13.2143ZM4.088 17.6429C7.94133 17.6429 11.772 17.6429 15.58 17.6429C15.58 17.4524 15.58 17.2619 15.58 17.0714C11.7267 17.0714 7.896 17.0714 4.088 17.0714C4.088 17.2619 4.088 17.4524 4.088 17.6429ZM12.452 7.07143C12.6333 7.07143 12.8147 7.07143 12.996 7.07143C13.064 7.07143 13.064 7.07143 13.132 7C13.4493 6.33333 13.948 6 14.628 6C14.764 6 14.9 6 15.036 6C15.036 5.61905 15.036 5.2619 15.036 4.92857C14.1747 4.92857 13.3133 4.92857 12.452 4.92857C12.452 5.64286 12.452 6.35714 12.452 7.07143ZM15.308 8.21429C15.58 8.21429 15.852 8.21429 16.124 8.21429C16.396 8.21429 16.668 8 16.668 7.64286C16.668 7.35714 16.396 7.07143 16.124 7.07143C15.6253 7.07143 15.104 7.07143 14.56 7.07143C14.288 7.07143 14.016 7.35714 14.016 7.64286C14.016 7.92857 14.288 8.21429 14.56 8.21429C14.832 8.21429 15.0813 8.21429 15.308 8.21429Z" fill="#363636"/>
</svg>
