<svg width="20" height="20" viewBox="0 0 20 20" fill="none" xmlns="http://www.w3.org/2000/svg">
<path d="M1.27344 3.1681C0.847656 3.26966 0.417969 3.62513 0.207031 4.05482L0.0976562 4.27747V7.87122V11.465L0.210938 11.6993C0.34375 11.9689 0.65625 12.297 0.890625 12.4181C1.30078 12.629 0.8125 12.6173 10.0195 12.6173C17.1094 12.6173 18.5703 12.6056 18.7344 12.5626C19.3633 12.3947 19.8203 11.8908 19.9219 11.2501C19.9766 10.9064 19.9766 4.83607 19.9219 4.49232C19.8359 3.95716 19.5234 3.53528 19.0312 3.2931L18.7344 3.14466L10.082 3.13685C4.94531 3.13685 1.36328 3.14857 1.27344 3.1681ZM18.5156 4.31653C18.5742 4.34778 18.6641 4.422 18.707 4.47669C18.7891 4.58216 18.7891 4.59388 18.7891 7.87122V11.1603L18.7031 11.2697C18.5234 11.5001 19.0898 11.4845 10 11.4845C0.796875 11.4845 1.44922 11.504 1.28906 11.2423C1.21094 11.1173 1.21094 11.0548 1.21094 7.87122C1.21094 5.3556 1.22266 4.6056 1.26172 4.53138C1.28906 4.4806 1.37109 4.39466 1.44141 4.34778L1.57422 4.25794H9.98828C17.3398 4.25794 18.418 4.26575 18.5156 4.31653Z" fill="#363636"/>
<path d="M16.9727 5.27344C16.8008 5.38672 16.7188 5.56641 16.7188 5.83203C16.7188 6.24609 16.9297 6.48438 17.293 6.48438C17.6523 6.48438 17.8516 6.25781 17.8516 5.84375C17.8516 5.55859 17.7734 5.375 17.6094 5.27344C17.4375 5.16797 17.1328 5.16797 16.9727 5.27344Z" fill="#363636"/>
<path d="M16.9883 7.35558C16.8125 7.47277 16.7188 7.66808 16.7188 7.92199C16.7188 8.1837 16.793 8.36339 16.9531 8.47667C17.2188 8.66417 17.582 8.59777 17.7617 8.32433C17.8828 8.14464 17.8867 7.73839 17.7734 7.54699C17.6055 7.27355 17.2461 7.1837 16.9883 7.35558Z" fill="#363636"/>
<path d="M2.45715 9.46484C2.08997 9.71094 2.1134 10.2422 2.50403 10.4375C2.62903 10.5039 3.06653 10.5078 10.0001 10.5078C16.9337 10.5078 17.3712 10.5039 17.4962 10.4375C17.6798 10.3477 17.7775 10.1992 17.8009 9.99219C17.8243 9.79688 17.7618 9.64453 17.5978 9.49219L17.4923 9.39453L10.0431 9.38281L2.58997 9.375L2.45715 9.46484Z" fill="#363636"/>
<path d="M3.79318 13.4649C3.71896 13.504 3.62521 13.5821 3.58224 13.6368C3.53927 13.6993 3.41036 14.1329 3.27755 14.668C3.07052 15.504 3.05099 15.6133 3.09005 15.7579C3.11349 15.8438 3.16036 15.9493 3.19552 15.9922C3.42989 16.2501 3.92208 16.2227 4.09786 15.9376C4.1838 15.793 4.60958 14.129 4.60958 13.9376C4.60958 13.7852 4.4963 13.586 4.36349 13.5001C4.21505 13.3985 3.94552 13.3829 3.79318 13.4649Z" fill="#363636"/>
<path d="M15.7656 13.4377C15.5547 13.5041 15.3906 13.7229 15.3906 13.9455C15.3906 14.133 15.8203 15.7971 15.9023 15.9377C16.0977 16.258 16.6797 16.2424 16.8477 15.9104C16.9648 15.6799 16.957 15.6057 16.7227 14.6721C16.4961 13.7502 16.4414 13.6057 16.2773 13.5002C16.1641 13.4221 15.9062 13.3948 15.7656 13.4377Z" fill="#363636"/>
<path d="M7.70316 14.1446C7.48441 14.2853 7.46098 14.379 7.37504 15.4298C7.29691 16.379 7.29691 16.4064 7.36723 16.5509C7.50394 16.8204 7.79301 16.9376 8.07426 16.8321C8.21098 16.7814 8.35551 16.6486 8.40238 16.5314C8.46488 16.3673 8.59379 14.5939 8.55473 14.4532C8.45316 14.1056 8.01566 13.9454 7.70316 14.1446Z" fill="#363636"/>
<path d="M11.699 14.1329C11.4061 14.3126 11.3904 14.3986 11.4842 15.5118C11.5272 16.0236 11.5779 16.4845 11.5975 16.5314C11.6444 16.6486 11.7889 16.7814 11.9256 16.8321C12.2069 16.9376 12.4959 16.8204 12.6326 16.5509C12.7029 16.4064 12.7029 16.379 12.6248 15.4259C12.535 14.3478 12.5115 14.2657 12.2654 14.1368C12.0936 14.0431 11.8514 14.0431 11.699 14.1329Z" fill="#363636"/>
</svg>
