<svg width="20" height="20" viewBox="0 0 20 20" fill="none" xmlns="http://www.w3.org/2000/svg">
<path d="M11.037 1C11.0864 1 11.1358 1.02469 11.1852 1.07407C11.4815 1.22222 11.5556 1.59259 11.3333 1.88889C11.2346 2.03704 11.1358 2.18519 11.037 2.33333C10.8889 2.53086 10.8889 2.7284 11.037 2.92593C11.1358 3.07407 11.2346 3.22222 11.3333 3.37037C11.5556 3.66667 11.7778 3.96296 11.9259 4.25926C12.0741 4.62963 12.0741 5.07407 11.9259 5.44444C11.7778 5.74074 11.5802 6.03704 11.3333 6.33333C11.1111 6.55556 10.8148 6.55556 10.5185 6.33333C10.2963 6.18519 10.2963 5.81482 10.5185 5.59259C10.5185 5.59259 10.5185 5.5679 10.5185 5.51852C11.037 5 11.037 4.7037 10.5185 4.11111C10.321 3.8642 10.1481 3.59259 10 3.2963C9.77778 2.85185 9.77778 2.40741 10 1.96296C10.1481 1.59259 10.3704 1.22222 10.7407 1C10.8395 1 10.9383 1 11.037 1ZM8.59259 18.5556C7.92593 18.4815 7.25926 18.4074 6.66667 18.1852C5.18519 17.6667 4.22222 16.6296 3.62963 15.2222C3.25926 14.2593 3.03704 13.2963 2.96296 12.2593C2.81481 11.4444 2.81481 10.6296 2.74074 9.81481C2.74074 9.71605 2.69136 9.61728 2.59259 9.51852C2.44444 9.14815 2.66667 8.7037 3.11111 8.7037C3.16049 8.7037 3.20988 8.7037 3.25926 8.7037C7.25926 8.7037 11.2593 8.7037 15.2593 8.7037C15.3086 8.7037 15.358 8.7037 15.4074 8.7037C15.8519 8.7037 16.0741 9.14815 15.8519 9.51852C15.7778 9.59259 15.7778 9.74074 15.7037 9.96296C16.2222 9.81482 16.6667 9.74074 17.1111 9.81481C18.0741 10.037 18.8148 10.7778 18.8889 11.8148C19.1111 13.2222 18.5185 14.3333 17.4074 15.1481C16.5926 15.8148 15.6296 16.1111 14.5926 16.2593C14.4444 16.2593 14.2963 16.3333 14.1481 16.4815C13.2593 17.5926 12.0741 18.1852 10.6667 18.4074C10.5185 18.4568 10.3951 18.4815 10.2963 18.4815C10.1481 18.4815 10.0247 18.5062 9.92593 18.5556C10.0247 18.5556 10.1235 18.5556 10.2222 18.5556C12.1481 18.5556 14.0494 18.5556 15.9259 18.5556C16.3704 18.5556 16.5926 18.9259 16.4444 19.2963C16.3457 19.4938 16.1975 19.6173 16 19.6667C15.9506 19.6667 15.8765 19.6667 15.7778 19.6667C11.4321 19.6667 7.06173 19.6667 2.66667 19.6667C2.2963 19.6667 2 19.4444 2 19.0741C2 18.7778 2.2963 18.5556 2.74074 18.5556C4.5679 18.5556 6.39506 18.5556 8.22222 18.5556C8.37037 18.5556 8.49383 18.5556 8.59259 18.5556ZM7.55556 9.81481C6.32099 9.81481 5.08642 9.81481 3.85185 9.81481C3.90123 10.5556 3.95062 11.2963 4 12.037C4.07407 12.8519 4.22222 13.7407 4.51852 14.5556C5.03704 15.8889 5.92593 16.8519 7.33333 17.2222C8.37037 17.5185 9.40741 17.5185 10.5185 17.3704C11.2593 17.2222 12 17 12.6667 16.4815C13.4074 15.8148 13.8519 15 14.1481 14.037C14.4444 13.0741 14.5185 12.037 14.5926 11C14.5926 10.6049 14.6173 10.2099 14.6667 9.81481C12.6914 9.81481 10.6914 9.81481 8.66667 9.81481C8.66667 10.2099 8.66667 10.6049 8.66667 11C8.66667 11.1481 8.71605 11.2716 8.81481 11.3704C9.06173 11.6173 9.28395 11.8889 9.48148 12.1852C9.72839 12.5309 9.82716 12.8765 9.77778 13.2222C9.77778 13.7161 9.77778 14.1852 9.77778 14.6296C9.77778 15 9.55556 15.2222 9.18518 15.2222C8.49383 15.2222 7.80247 15.2222 7.11111 15.2222C6.66667 15.2222 6.44444 15 6.44444 14.6296C6.44444 14.1358 6.44444 13.6667 6.44444 13.2222C6.44444 12.9259 6.51852 12.6296 6.66667 12.4074C6.96296 12.037 7.18518 11.6667 7.48148 11.2963C7.48148 11.2222 7.55556 11.2222 7.55556 11.1481C7.55556 10.7037 7.55556 10.2593 7.55556 9.81481ZM14.963 15.0741C15.0123 15.0741 15.0617 15.0741 15.1111 15.0741C15.2593 15.0247 15.4074 14.9753 15.5556 14.9259C16.4444 14.5556 17.2593 14.037 17.6296 13.1481C17.8519 12.6296 17.9259 12.1111 17.7037 11.5185C17.5556 11.1235 17.2593 10.9012 16.8148 10.8519C16.4691 10.8519 16.1481 10.9259 15.8519 11.0741C15.7037 11.1481 15.7037 11.1481 15.7037 11.2963C15.6543 11.8395 15.5802 12.4074 15.4815 13C15.4321 13.6914 15.2593 14.3827 14.963 15.0741ZM7.55556 14.1111C7.95062 14.1111 8.32099 14.1111 8.66667 14.1111C8.66667 13.8889 8.66667 13.5926 8.66667 13.3704C8.74074 12.8519 8.37037 12.5556 8.14815 12.1852C8 12.3827 7.85185 12.5802 7.7037 12.7778C7.62963 12.8519 7.55556 13 7.55556 13.0741C7.55556 13.4198 7.55556 13.7654 7.55556 14.1111ZM7.62963 7.59259C7.33333 7.59259 7.18518 7.51852 7.11111 7.2963C7.01235 7.09877 7.03704 6.90123 7.18518 6.7037C7.28395 6.55556 7.38272 6.4321 7.48148 6.33333C7.62963 6.08642 7.62963 5.83951 7.48148 5.59259C7.38272 5.49383 7.28395 5.37037 7.18518 5.22222C6.96296 4.92593 6.74074 4.62963 6.59259 4.33333C6.37037 3.88889 6.44444 3.44444 6.59259 3.07407C6.74074 2.77778 6.93827 2.50617 7.18518 2.25926C7.33333 2.03704 7.7037 2.03704 7.92593 2.25926C8.22222 2.48148 8.22222 2.77778 8 3C7.48148 3.59259 7.48148 3.88889 8 4.48148C8.22222 4.77778 8.44444 5.07407 8.59259 5.44444C8.74074 5.79012 8.74074 6.1358 8.59259 6.48148C8.44444 6.82716 8.24691 7.12346 8 7.37037C7.85185 7.51852 7.7037 7.51852 7.62963 7.59259Z" fill="#363636"/>
</svg>
