<svg width="20" height="20" viewBox="0 0 20 20" fill="none" xmlns="http://www.w3.org/2000/svg">
<path d="M7.46667 18.6C7.33333 18.5333 7.2 18.4667 7.06667 18.4C6.48889 18.1333 6.17778 17.6889 6.13333 17.0667C6.13333 16.9778 6.13333 16.8667 6.13333 16.7333C6.13333 14.3333 6.13333 11.9111 6.13333 9.46667C6.13333 9.06667 6.13333 8.66667 6.4 8.33333C6.22222 8.2 6.06667 8.08889 5.93333 8C5.31111 7.42222 5 6.73333 5 5.93333C5 4.46667 5 3 5 1.53333C5 1.26667 5.2 1.06667 5.46667 1C5.66667 1 5.93333 1.13333 6 1.33333C6.04444 1.42222 6.04444 1.51111 6 1.6C6.04444 2.8 6.06667 4 6.06667 5.2C6.06667 5.24444 6.06667 5.31111 6.06667 5.4C6.4 5.4 6.8 5.4 7.2 5.4C7.2 5.35556 7.2 5.28889 7.2 5.2C7.2 4 7.2 2.77778 7.2 1.53333C7.2 1.26667 7.4 1.06667 7.66667 1C7.93333 1 8.13333 1.13333 8.2 1.4C8.24444 1.48889 8.26667 1.57778 8.26667 1.66667C8.26667 2.77778 8.26667 3.88889 8.26667 5C8.26667 5.13333 8.26667 5.26667 8.26667 5.4C8.66667 5.4 9.04445 5.4 9.4 5.4C9.4 5.31111 9.4 5.24444 9.4 5.2C9.4 4 9.4 2.77778 9.4 1.53333C9.4 1.31111 9.48889 1.15556 9.66667 1.06667C9.84444 0.977778 10.0222 0.977778 10.2 1.06667C10.4 1.2 10.4667 1.4 10.4667 1.6C10.4667 2.8 10.4667 4 10.4667 5.2C10.4667 5.6 10.4667 6 10.4 6.4C10.2667 7.2 9.86667 7.8 9.2 8.2C9.15556 8.24444 9.11111 8.28889 9.06667 8.33333C9.4 8.73333 9.33333 9.26667 9.33333 9.73333C9.33333 12.0889 9.33333 14.4444 9.33333 16.8C9.33333 17.7333 8.93333 18.3333 8 18.5333C7.95556 18.5333 7.93333 18.5556 7.93333 18.6C7.8 18.6 7.64444 18.6 7.46667 18.6ZM7.13333 13.0667C7.13333 13.6444 7.13333 14.2222 7.13333 14.8C7.13333 15.5111 7.13333 16.2222 7.13333 16.9333C7.13333 17.2667 7.4 17.5333 7.73333 17.5333C8.06667 17.5333 8.33333 17.2667 8.33333 16.9333C8.33333 16.8889 8.33333 16.8444 8.33333 16.8C8.33333 14.3111 8.33333 11.8444 8.33333 9.4C8.33333 9.31111 8.33333 9.24444 8.33333 9.2C8.26667 8.86667 8 8.66667 7.66667 8.66667C7.33333 8.66667 7.13333 8.93333 7.13333 9.33333C7.13333 10.5778 7.13333 11.8222 7.13333 13.0667ZM9.33333 6.46667C8.26667 6.46667 7.2 6.46667 6.13333 6.46667C6.33333 7.13333 7.06667 7.66667 7.8 7.6C8.53333 7.6 9.2 7.06667 9.33333 6.46667ZM13 18.6C12.9333 18.5333 12.7333 18.5333 12.6667 18.4667C12.0444 18.2 11.6889 17.7111 11.6 17C11.6 16.9556 11.6 16.8889 11.6 16.8C11.6 11.7778 11.6 6.73333 11.6 1.66667C11.6 1.2 11.8 1 12.3333 1C14.3333 1.06667 15.9333 2.73333 16 4.86667C16 7.04444 16 9.22222 16 11.4C16 11.7556 15.8 11.9333 15.4 11.9333C15.2222 11.9333 15.0444 11.9333 14.8667 11.9333C14.8667 12.0222 14.8667 12.1111 14.8667 12.2C14.8667 13.7556 14.8667 15.3111 14.8667 16.8667C14.8667 17.5778 14.5556 18.0889 13.9333 18.4C13.8 18.4667 13.6 18.5333 13.4667 18.6C13.3333 18.6 13.1778 18.6 13 18.6ZM12.6667 2.06667C12.6667 5.06667 12.6667 8 12.6667 10.9333C13.4222 10.9333 14.1778 10.9333 14.9333 10.9333C14.9333 10.8889 14.9333 10.8444 14.9333 10.8C14.9333 8.8 14.9333 6.8 14.9333 4.8C14.9333 3.66667 14.4 2.86667 13.4 2.33333C13.2 2.2 12.9333 2.13333 12.6667 2.06667ZM12.6667 11.9333C12.6667 12.0222 12.6667 12.0889 12.6667 12.1333C12.6667 12.6667 12.6667 13.1778 12.6667 13.6667C12.6667 14.7333 12.6667 15.8 12.6667 16.8667C12.6667 17.1333 12.7333 17.3333 13 17.4667C13.4 17.6667 13.8667 17.4 13.8667 16.9333C13.8667 15.2889 13.8667 13.6667 13.8667 12.0667C13.8222 12.0222 13.8 11.9778 13.8 11.9333C13.4444 11.9333 13.0667 11.9333 12.6667 11.9333Z" fill="#363636"/>
</svg>
