<svg width="20" height="20" viewBox="0 0 20 20" fill="none" xmlns="http://www.w3.org/2000/svg">
<g clip-path="url(#clip0_331_1647)">
<path d="M0.771436 0.403103C0.677104 0.462517 0.540846 0.591244 0.477958 0.680363L0.357422 0.848698L0.367903 9.69127L0.383625 18.5339L0.509402 18.7022C0.577531 18.7913 0.72951 18.9101 0.850046 18.9596C1.05443 19.0488 1.40032 19.0537 9.9898 19.0537C17.4525 19.0537 18.9409 19.0438 19.0824 18.9844C19.2868 18.9052 19.5121 18.6824 19.5855 18.4942C19.6274 18.3952 19.6431 15.682 19.6431 9.65167V0.952671L19.5278 0.734823C19.4597 0.611048 19.3287 0.462517 19.2291 0.403103L19.0509 0.28923H10.0003H0.949619L0.771436 0.403103ZM5.03211 6.67113C5.04783 11.3301 5.04783 11.3746 5.15789 11.5083C5.36751 11.7806 5.52474 11.8499 5.90206 11.8499C6.32656 11.8499 6.55191 11.7262 6.70389 11.4093C6.79298 11.2261 6.80346 11.0677 6.80346 9.87941V8.55748H9.13033C11.4519 8.55748 11.4519 8.55748 11.6249 8.44361C11.9079 8.26537 12.0075 8.09704 12.0284 7.78017C12.0546 7.40884 11.9079 7.15139 11.5777 6.988L11.3471 6.87413H9.07268H6.80346V4.42336V1.97259H12.3324H17.8613V4.42336V6.87413H16.4568C15.0837 6.87413 15.0418 6.87908 14.8165 6.988C14.4863 7.15139 14.3396 7.40884 14.3658 7.78017C14.3867 8.09704 14.4863 8.26537 14.7693 8.44361C14.937 8.55748 14.9737 8.55748 16.3992 8.55748H17.8613V12.9639V17.3704H12.3324H6.80346V16.0435C6.80346 14.8602 6.79298 14.7017 6.70389 14.5185C6.55191 14.2017 6.32656 14.0779 5.90206 14.0779C5.52474 14.0779 5.36751 14.1472 5.15789 14.4195C5.05307 14.5483 5.04783 14.6324 5.03211 15.9643L5.01639 17.3704H3.58044H2.13925V9.67147V1.97259H3.58044H5.02163L5.03211 6.67113Z" fill="#363636"/>
</g>
<defs>
<clipPath id="clip0_331_1647">
<rect width="20" height="20" fill="white"/>
</clipPath>
</defs>
</svg>
