<svg width="22" height="22" viewBox="0 0 22 22" fill="none" xmlns="http://www.w3.org/2000/svg">
<path d="M2.75 5.68351V16.3168C2.75 17.3436 2.75 17.8563 2.94982 18.2484C3.12559 18.5934 3.40585 18.8746 3.75081 19.0504C4.1426 19.25 4.65574 19.25 5.6805 19.25H16.3195C17.3443 19.25 17.8567 19.25 18.2484 19.0504C18.5934 18.8746 18.8746 18.5934 19.0504 18.2484C19.25 17.8567 19.25 17.3443 19.25 16.3195V5.6805C19.25 4.65574 19.25 4.1426 19.0504 3.75081C18.8746 3.40585 18.5934 3.12559 18.2484 2.94982C17.8563 2.75 17.3436 2.75 16.3168 2.75H5.68351C4.65675 2.75 4.14299 2.75 3.75081 2.94982C3.40585 3.12559 3.12559 3.40585 2.94982 3.75081C2.75 4.14299 2.75 4.65675 2.75 5.68351Z" stroke="#363636" stroke-width="2" stroke-linecap="round" stroke-linejoin="round"/>
</svg>
