<svg width="22" height="22" viewBox="0 0 22 22" fill="none" xmlns="http://www.w3.org/2000/svg">
<path d="M18.5429 15.4176V18.4347C18.5429 18.8348 18.3839 19.2186 18.101 19.5014C17.8182 19.7843 17.4344 19.9433 17.0343 19.9433H2.70291C2.3028 19.9433 1.9191 19.7843 1.63619 19.5014C1.35327 19.2186 1.19434 18.8348 1.19434 18.4347V7.12044C1.19434 4.62096 3.22057 2.59473 5.72005 2.59473H15.5258V6.36615" stroke="white" stroke-width="2" stroke-linecap="round" stroke-linejoin="round"/>
<path d="M20.0514 10.8918H14.7714C14.3548 10.8918 14.0171 11.2296 14.0171 11.6461V14.6633C14.0171 15.0798 14.3548 15.4176 14.7714 15.4176H20.0514C20.4679 15.4176 20.8057 15.0798 20.8057 14.6633V11.6461C20.8057 11.2296 20.4679 10.8918 20.0514 10.8918Z" stroke="white" stroke-width="2" stroke-linecap="round" stroke-linejoin="round"/>
<path d="M18.5428 10.8919V7.87478C18.5428 7.47468 18.3838 7.09097 18.101 6.80806C17.8181 6.52515 17.4343 6.36621 17.0343 6.36621H15.5257H5.71997" stroke="white" stroke-width="2" stroke-linecap="round" stroke-linejoin="round"/>
</svg>
