<svg width="286" height="76" viewBox="0 0 286 76" fill="none" xmlns="http://www.w3.org/2000/svg">
<path d="M74.877 39.3076C73.5781 39.3076 72.3281 39.1172 71.127 38.7363C69.9258 38.3555 68.7783 37.7695 67.6846 36.9785V32.4229H69.9258L70.4092 35.7773C71.0439 36.168 71.7324 36.4707 72.4746 36.6855C73.2168 36.9004 74.0176 37.0078 74.877 37.0078C75.8535 37.0078 76.6787 36.8613 77.3525 36.5684C78.0361 36.2656 78.5586 35.8506 78.9199 35.3232C79.2812 34.7959 79.4619 34.1807 79.4619 33.4775C79.4619 32.8232 79.3057 32.2471 78.9932 31.749C78.6807 31.251 78.1631 30.8164 77.4404 30.4453C76.7275 30.0645 75.751 29.7324 74.5107 29.4492C73.0459 29.1074 71.8057 28.6533 70.79 28.0869C69.7842 27.5107 69.0176 26.8174 68.4902 26.0068C67.9727 25.1865 67.7139 24.249 67.7139 23.1943C67.7139 22.0811 68.0068 21.085 68.5928 20.2061C69.1885 19.3271 70.0137 18.6338 71.0684 18.126C72.123 17.6182 73.3535 17.3643 74.7598 17.3643C76.2539 17.3643 77.5723 17.5938 78.7148 18.0527C79.8672 18.502 80.8145 19.0488 81.5566 19.6934V23.9561H79.3154L78.832 20.9092C78.3926 20.5576 77.8457 20.2646 77.1914 20.0303C76.5371 19.7959 75.7266 19.6787 74.7598 19.6787C73.9395 19.6787 73.2168 19.8252 72.5918 20.1182C71.9668 20.4014 71.4785 20.8018 71.127 21.3193C70.7754 21.8369 70.5996 22.4473 70.5996 23.1504C70.5996 23.7656 70.7559 24.3027 71.0684 24.7617C71.3906 25.2207 71.9082 25.626 72.6211 25.9775C73.3438 26.3193 74.3057 26.6416 75.5068 26.9443C77.7529 27.501 79.4521 28.3262 80.6045 29.4199C81.7666 30.5039 82.3477 31.8467 82.3477 33.4482C82.3477 34.5908 82.04 35.6064 81.4248 36.4951C80.8096 37.374 79.9404 38.0625 78.8174 38.5605C77.7041 39.0586 76.3906 39.3076 74.877 39.3076ZM99.2537 39.3076C97.8768 39.3076 96.6414 39.0439 95.5477 38.5166C94.4539 37.9893 93.5213 37.2471 92.7498 36.29C91.9881 35.3232 91.4021 34.1807 90.992 32.8623C90.5916 31.5439 90.3914 30.0889 90.3914 28.4971V28.1895C90.3914 26.6074 90.5916 25.1572 90.992 23.8389C91.4021 22.5107 91.9881 21.3633 92.7498 20.3965C93.5213 19.4297 94.4539 18.6826 95.5477 18.1553C96.6414 17.6279 97.8768 17.3643 99.2537 17.3643C100.709 17.3643 101.988 17.6279 103.092 18.1553C104.195 18.6826 105.118 19.4297 105.86 20.3965C106.612 21.3633 107.179 22.5107 107.559 23.8389C107.94 25.1572 108.131 26.6074 108.131 28.1895V28.4971C108.131 30.0889 107.94 31.5439 107.559 32.8623C107.179 34.1807 106.612 35.3232 105.86 36.29C105.118 37.2471 104.195 37.9893 103.092 38.5166C101.988 39.0439 100.709 39.3076 99.2537 39.3076ZM99.2537 36.9053C100.67 36.9053 101.812 36.5537 102.681 35.8506C103.56 35.1475 104.205 34.166 104.615 32.9062C105.025 31.6367 105.23 30.167 105.23 28.4971V28.1602C105.23 26.5 105.02 25.0449 104.6 23.7949C104.19 22.5352 103.546 21.5537 102.667 20.8506C101.788 20.1377 100.65 19.7812 99.2537 19.7812C97.9744 19.7812 96.8904 20.1377 96.0018 20.8506C95.1131 21.5635 94.4393 22.5498 93.9803 23.8096C93.5213 25.0596 93.2918 26.5098 93.2918 28.1602V28.4971C93.2918 30.1572 93.5213 31.6221 93.9803 32.8916C94.4393 34.1514 95.1131 35.1377 96.0018 35.8506C96.8904 36.5537 97.9744 36.9053 99.2537 36.9053ZM116.057 39V37.1543L118.445 36.7441V19.9424L116.057 19.5322V17.6719H132.097V22.7988H129.783L129.461 19.9131H121.331V27.2959H129.138V29.5664H121.331V36.7441L123.718 37.1543V39H116.057ZM149.047 39.3076C147.075 39.3076 145.366 38.8535 143.92 37.9453C142.475 37.0273 141.362 35.7578 140.58 34.1367C139.799 32.5156 139.409 30.6406 139.409 28.5117V28.1602C139.409 26.0117 139.799 24.1318 140.58 22.5205C141.371 20.8994 142.451 19.6348 143.818 18.7266C145.185 17.8184 146.738 17.3643 148.476 17.3643C150.136 17.3643 151.542 17.5547 152.695 17.9355C153.857 18.3164 154.848 18.8291 155.668 19.4736V23.7803H153.295L152.988 20.6895C152.509 20.377 151.923 20.1426 151.23 19.9863C150.537 19.8203 149.716 19.7373 148.769 19.7373C147.548 19.7373 146.45 20.0889 145.473 20.792C144.496 21.4951 143.725 22.4766 143.159 23.7363C142.592 24.9863 142.309 26.4512 142.309 28.1309V28.5117C142.309 30.2109 142.568 31.6953 143.085 32.9648C143.613 34.2246 144.379 35.2061 145.385 35.9092C146.391 36.6025 147.612 36.9492 149.047 36.9492C150.024 36.9492 150.849 36.8662 151.523 36.7002C152.197 36.5244 152.792 36.2998 153.31 36.0264V31.0166L149.223 30.8701V28.7461H156.196V37.0078C155.58 37.584 154.697 38.1113 153.544 38.5898C152.402 39.0684 150.903 39.3076 149.047 39.3076ZM164.84 39V37.1543L167.228 36.7441V19.9424L164.84 19.5322V17.6865H174.347C175.9 17.6865 177.208 17.9209 178.273 18.3896C179.347 18.8486 180.162 19.5176 180.719 20.3965C181.276 21.2754 181.554 22.3496 181.554 23.6191C181.554 24.8691 181.28 25.9189 180.734 26.7686C180.196 27.6182 179.43 28.2627 178.434 28.7021C177.438 29.1318 176.256 29.3613 174.889 29.3906L170.113 29.4785V36.7441L172.501 37.1543V39H164.84ZM178.917 39L174.171 28.3506L177.057 28.3213L180.997 36.8467L182.477 37.1104V39H178.917ZM170.113 27.208H174.054C175.665 27.208 176.837 26.9004 177.57 26.2852C178.302 25.6699 178.668 24.7715 178.668 23.5898C178.668 22.4668 178.317 21.5781 177.613 20.9238C176.91 20.2695 175.821 19.9424 174.347 19.9424H170.113V27.208ZM190.682 39V37.1543L192.264 36.9346L199.72 17.6719H202.195L209.52 36.9346L211.087 37.1543V39H204.964V37.1543L206.575 36.876L205.169 32.9502H196.629L195.179 36.876L196.79 37.1543V39H190.682ZM197.522 30.5332H204.29L201.155 21.8613L200.979 21.3779H200.892L200.716 21.8613L197.522 30.5332ZM219.043 39V37.1543L221.43 36.7441V19.9424L219.043 19.5322V17.6719H221.43H224.346L234.804 34.2979L234.892 34.2686V19.9424L232.27 19.5322V17.6719H237.544H239.931V19.5322L237.544 19.9424V39H234.907L224.17 22.2861L224.082 22.3154V36.7441L226.704 37.1543V39H219.043ZM248.034 39V37.1543L250.421 36.7441V19.9424L248.034 19.5322V17.6719H250.421H256.383C258.268 17.6719 259.909 18.1211 261.305 19.0195C262.712 19.918 263.805 21.1533 264.587 22.7256C265.368 24.2979 265.758 26.0947 265.758 28.1162V28.5703C265.758 30.543 265.382 32.3203 264.63 33.9023C263.879 35.4746 262.809 36.7197 261.422 37.6377C260.046 38.5459 258.415 39 256.53 39H248.034ZM253.307 36.7441H256.383C257.731 36.7441 258.888 36.3779 259.855 35.6455C260.822 34.9033 261.564 33.917 262.082 32.6865C262.609 31.4463 262.873 30.0742 262.873 28.5703V28.0869C262.873 26.5342 262.609 25.1475 262.082 23.9268C261.564 22.6963 260.822 21.7246 259.855 21.0117C258.888 20.2988 257.731 19.9424 256.383 19.9424H253.307V36.7441Z" fill="#BDA45F"/>
<path d="M117 56.4168C117 55.9509 117.094 55.5316 117.283 55.1123C117.472 54.6931 117.708 54.367 117.992 54.0408C118.322 53.7613 118.652 53.4818 119.077 53.342C119.502 53.1557 119.927 53.0625 120.399 53.0625C120.872 53.0625 121.297 53.1557 121.721 53.342C122.146 53.5284 122.477 53.7613 122.807 54.0408C123.091 54.3204 123.374 54.6931 123.516 55.1123C123.704 55.5316 123.799 55.9509 123.799 56.4168V56.4634V59.2586C123.799 59.3984 123.752 59.4916 123.657 59.5847C123.563 59.6779 123.468 59.7245 123.327 59.7245C123.185 59.7245 123.091 59.6779 122.996 59.5847C122.902 59.4916 122.855 59.3984 122.855 59.2586V58.6996C122.524 59.0257 122.194 59.3052 121.769 59.4916C121.344 59.6779 120.919 59.8177 120.399 59.8177C119.927 59.8177 119.502 59.7245 119.077 59.5382C118.652 59.3518 118.322 59.1189 117.992 58.8393C117.661 58.5132 117.425 58.1871 117.283 57.7678C117.094 57.302 117 56.8827 117 56.4168ZM117.944 56.4168C117.944 56.7429 117.991 57.069 118.133 57.3485C118.275 57.6281 118.416 57.9076 118.653 58.1405C118.889 58.3735 119.125 58.5598 119.455 58.653C119.738 58.7928 120.069 58.8393 120.399 58.8393C120.73 58.8393 121.06 58.7928 121.391 58.653C121.674 58.5132 121.958 58.3269 122.194 58.1405C122.43 57.9076 122.571 57.6746 122.713 57.3485C122.855 57.069 122.902 56.7429 122.902 56.4168C122.902 56.0907 122.855 55.7646 122.713 55.485C122.571 55.2055 122.43 54.926 122.194 54.6931C121.958 54.4601 121.721 54.2738 121.391 54.1806C121.108 54.0408 120.777 53.9942 120.447 53.9942C120.116 53.9942 119.786 54.0408 119.502 54.1806C119.219 54.3204 118.936 54.4601 118.7 54.6931C118.464 54.926 118.322 55.1589 118.18 55.485C117.992 55.7646 117.944 56.0907 117.944 56.4168Z" fill="#BDA45F"/>
<path d="M130.22 59.2586C130.22 59.3984 130.173 59.4916 130.079 59.5847C129.984 59.6779 129.89 59.7245 129.748 59.7245H129.701C129.37 59.7245 129.087 59.6779 128.804 59.5381C128.52 59.445 128.284 59.2586 128.096 59.0723C127.907 58.8859 127.718 58.6064 127.623 58.3269C127.529 58.0473 127.435 57.7212 127.435 57.3951V51.1524C127.435 51.0126 127.482 50.9195 127.576 50.8263C127.671 50.7331 127.765 50.6865 127.907 50.6865C128.048 50.6865 128.143 50.7331 128.237 50.8263C128.332 50.9195 128.379 51.0126 128.379 51.1524V57.3951C128.379 57.8144 128.52 58.1871 128.757 58.42C128.993 58.653 129.323 58.7927 129.701 58.7927H129.748C129.89 58.7927 129.984 58.8393 130.079 58.9325C130.173 59.0257 130.22 59.1188 130.22 59.2586Z" fill="#BDA45F"/>
<path d="M136.169 59.2586C136.169 59.3984 136.122 59.4916 136.028 59.5847C135.933 59.6779 135.839 59.7245 135.697 59.7245H135.65C135.32 59.7245 135.036 59.6779 134.753 59.5381C134.47 59.445 134.234 59.2586 134.045 59.0723C133.856 58.8859 133.667 58.6064 133.573 58.3269C133.478 58.0473 133.384 57.7212 133.384 57.3951V51.1524C133.384 51.0126 133.431 50.9195 133.525 50.8263C133.62 50.7331 133.714 50.6865 133.856 50.6865C133.998 50.6865 134.092 50.7331 134.186 50.8263C134.281 50.9195 134.328 51.0126 134.328 51.1524V57.3951C134.328 57.8144 134.47 58.1871 134.706 58.42C134.942 58.653 135.272 58.7927 135.65 58.7927H135.697C135.839 58.7927 135.933 58.8393 136.028 58.9325C136.122 59.0257 136.169 59.1188 136.169 59.2586Z" fill="#BDA45F"/>
<path d="M150.098 51.7109C150.098 51.5711 150.145 51.4314 150.239 51.2916C150.334 51.1984 150.475 51.1519 150.617 51.1519C150.759 51.1519 150.9 51.1984 150.995 51.2916C151.089 51.3848 151.136 51.5246 151.136 51.7109C151.136 51.8507 151.089 51.9904 150.995 52.0836C150.9 52.1768 150.759 52.2234 150.617 52.2234C150.523 52.2234 150.475 52.2234 150.381 52.1768C150.334 52.1302 150.239 52.0836 150.192 52.037C150.145 51.9904 150.098 51.9438 150.098 51.8507C150.098 51.8507 150.098 51.8041 150.098 51.7109ZM151.136 59.2115C151.136 59.3512 151.089 59.4444 150.995 59.5376C150.9 59.6308 150.806 59.6774 150.664 59.6774C150.523 59.6774 150.428 59.6308 150.334 59.5376C150.239 59.4444 150.192 59.3512 150.192 59.2115V53.621C150.192 53.4812 150.239 53.3881 150.334 53.2949C150.428 53.2017 150.523 53.1551 150.664 53.1551C150.806 53.1551 150.9 53.2017 150.995 53.2949C151.089 53.3881 151.136 53.4812 151.136 53.621V59.2115Z" fill="#BDA45F"/>
<path d="M155.81 56.277V59.212C155.81 59.3518 155.763 59.445 155.669 59.5382C155.574 59.6313 155.48 59.6779 155.338 59.6779C155.197 59.6779 155.102 59.6313 155.008 59.5382C154.913 59.445 154.866 59.3518 154.866 59.212V56.277C154.866 55.8112 154.961 55.4385 155.102 55.0192C155.244 54.6465 155.48 54.2738 155.763 53.9942C156.047 53.7147 156.377 53.4818 156.755 53.2954C157.132 53.1091 157.557 53.0625 158.03 53.0625C158.455 53.0625 158.879 53.1557 159.257 53.2954C159.635 53.4818 159.965 53.6681 160.249 53.9942C160.532 54.3204 160.721 54.6465 160.91 55.0192C161.051 55.3919 161.146 55.8112 161.146 56.277V56.3236V59.2586C161.146 59.3984 161.099 59.4916 161.004 59.5847C160.91 59.6779 160.815 59.7245 160.674 59.7245C160.532 59.7245 160.438 59.6779 160.343 59.5847C160.249 59.4916 160.201 59.3984 160.201 59.2586V56.3236C160.201 56.277 160.201 56.277 160.201 56.2304C160.201 55.9043 160.154 55.6248 160.013 55.3453C159.918 55.0658 159.729 54.8328 159.54 54.6465C159.352 54.4601 159.116 54.2738 158.879 54.1806C158.596 54.0408 158.313 53.9942 158.03 53.9942C157.699 53.9942 157.416 54.0408 157.133 54.1806C156.849 54.3204 156.613 54.4601 156.424 54.6465C156.235 54.8328 156.047 55.0658 155.952 55.3453C155.858 55.6248 155.81 55.9509 155.81 56.277Z" fill="#BDA45F"/>
<path d="M165.253 56.4166C165.253 56.4632 165.253 56.4632 165.253 56.4632C165.253 56.7893 165.3 57.0688 165.442 57.3483C165.583 57.6279 165.725 57.9074 165.961 58.1403C166.197 58.3733 166.433 58.5596 166.717 58.6994C167 58.8391 167.33 58.8857 167.661 58.9323C167.991 58.9323 168.275 58.8857 168.558 58.7925C168.841 58.6994 169.077 58.5596 169.313 58.3267C169.361 58.2801 169.408 58.2335 169.455 58.2335C169.502 58.1869 169.549 58.1869 169.644 58.1403C169.691 58.1403 169.785 58.1403 169.833 58.1403C169.88 58.1403 169.974 58.1869 170.069 58.2801C170.163 58.3733 170.21 58.4664 170.21 58.6062C170.21 58.746 170.163 58.8391 170.022 58.9789C169.88 59.1187 169.738 59.2584 169.549 59.3516C169.361 59.4448 169.172 59.538 168.983 59.6311C168.794 59.7243 168.558 59.7709 168.369 59.8175C168.133 59.8641 167.944 59.8641 167.708 59.8641C167.236 59.8641 166.811 59.7709 166.386 59.5845C165.961 59.3982 165.631 59.1653 165.3 58.8857C165.017 58.6062 164.734 58.2335 164.592 57.8142C164.403 57.3949 164.309 56.9756 164.309 56.5098V56.4632C164.309 55.9973 164.403 55.578 164.592 55.1587C164.781 54.7394 165.017 54.4133 165.3 54.0872C165.583 53.8077 165.961 53.5282 166.386 53.3884C166.811 53.2486 167.236 53.1089 167.708 53.1089C168.133 53.1089 168.558 53.2021 168.983 53.3418C169.408 53.4816 169.738 53.7145 170.022 53.994C170.116 54.0872 170.163 54.227 170.21 54.3667C170.21 54.5065 170.163 54.5997 170.069 54.6929C169.974 54.7394 169.927 54.786 169.88 54.8326C169.833 54.8326 169.738 54.8326 169.691 54.8326C169.644 54.8326 169.549 54.786 169.502 54.7394C169.455 54.6929 169.408 54.6463 169.361 54.6463C169.124 54.4133 168.888 54.2736 168.605 54.1804C168.322 54.0872 168.039 54.0406 167.708 54.0406C167.378 54.0406 167.094 54.1338 166.764 54.227C166.48 54.3667 166.244 54.5531 166.008 54.7394C165.772 54.9724 165.631 55.2053 165.489 55.4848C165.347 55.7644 165.253 56.0905 165.253 56.4166Z" fill="#BDA45F"/>
<path d="M176.396 59.2586C176.396 59.3984 176.349 59.4916 176.254 59.5847C176.16 59.6779 176.065 59.7245 175.924 59.7245H175.877C175.546 59.7245 175.263 59.6779 174.98 59.5381C174.696 59.445 174.46 59.2586 174.271 59.0723C174.082 58.8859 173.894 58.6064 173.799 58.3269C173.705 58.0473 173.61 57.7212 173.61 57.3951V51.1524C173.61 51.0126 173.658 50.9195 173.752 50.8263C173.846 50.7331 173.941 50.6865 174.082 50.6865C174.224 50.6865 174.319 50.7331 174.413 50.8263C174.507 50.9195 174.555 51.0126 174.555 51.1524V57.3951C174.555 57.8144 174.696 58.1871 174.932 58.42C175.168 58.653 175.499 58.7927 175.877 58.7927H175.924C176.065 58.7927 176.16 58.8393 176.254 58.9325C176.349 59.0257 176.396 59.1188 176.396 59.2586Z" fill="#BDA45F"/>
<path d="M180.504 56.5565C180.504 56.8826 180.551 57.1621 180.692 57.4416C180.787 57.7211 180.976 57.9541 181.165 58.187C181.353 58.4199 181.589 58.5597 181.873 58.6995C182.156 58.8392 182.439 58.8858 182.77 58.8858C183.1 58.8858 183.384 58.8392 183.667 58.6995C183.95 58.5597 184.139 58.4199 184.328 58.187C184.517 57.9541 184.658 57.7211 184.753 57.4416C184.847 57.1621 184.894 56.836 184.894 56.5565V53.668C184.894 53.5283 184.942 53.4351 185.036 53.3419C185.131 53.2487 185.225 53.2021 185.367 53.2021C185.508 53.2021 185.603 53.2487 185.697 53.3419C185.792 53.4351 185.839 53.5283 185.839 53.668V56.603C185.839 57.0689 185.744 57.4882 185.603 57.8609C185.461 58.2336 185.225 58.6063 184.989 58.8858C184.706 59.1653 184.375 59.3983 183.997 59.5846C183.62 59.771 183.195 59.8642 182.77 59.8642C182.298 59.8642 181.92 59.771 181.495 59.6312C181.117 59.4449 180.787 59.2119 180.504 58.9324C180.22 58.6529 179.984 58.2802 179.843 57.9075C179.701 57.5348 179.606 57.1155 179.606 56.6496V53.7146C179.606 53.5749 179.654 53.4817 179.748 53.3885C179.843 53.2953 179.937 53.2487 180.079 53.2487C180.22 53.2487 180.315 53.2953 180.409 53.3885C180.504 53.4817 180.551 53.5749 180.551 53.7146V56.5565H180.504Z" fill="#BDA45F"/>
<path d="M191.174 56.6495C190.937 56.5563 190.749 56.5098 190.513 56.4166C190.276 56.3234 190.088 56.1837 189.946 56.0439C189.757 55.9041 189.615 55.7644 189.521 55.5314C189.427 55.3451 189.379 55.1121 189.379 54.8326C189.379 54.5531 189.427 54.2736 189.568 54.0872C189.71 53.8543 189.852 53.6679 190.04 53.5282C190.229 53.3884 190.465 53.2486 190.749 53.2021C191.032 53.1089 191.315 53.1089 191.598 53.1089C191.787 53.1089 192.023 53.1089 192.212 53.1555C192.401 53.2021 192.59 53.2486 192.779 53.3418C192.968 53.435 193.109 53.5282 193.251 53.6213C193.393 53.7611 193.487 53.8543 193.581 54.0406C193.629 54.1338 193.629 54.227 193.629 54.3201C193.629 54.4133 193.581 54.5065 193.534 54.5531C193.487 54.5997 193.393 54.6463 193.298 54.6929C193.204 54.6929 193.109 54.6929 193.062 54.6463C192.873 54.4133 192.637 54.2736 192.448 54.1804C192.212 54.0872 191.976 54.0406 191.646 54.0406C191.457 54.0406 191.315 54.0406 191.126 54.0872C190.985 54.1338 190.796 54.1804 190.701 54.227C190.56 54.3202 190.465 54.3667 190.418 54.5065C190.371 54.6463 190.324 54.7394 190.324 54.9258C190.324 55.0656 190.371 55.2053 190.418 55.2985C190.513 55.3917 190.607 55.4848 190.701 55.578C190.796 55.6712 190.985 55.7178 191.126 55.7644C191.315 55.811 191.457 55.8575 191.646 55.9507C191.929 56.0439 192.259 56.1371 192.496 56.2302C192.779 56.3234 193.015 56.4632 193.204 56.6029C193.393 56.7427 193.581 56.929 193.676 57.162C193.818 57.3483 193.865 57.6279 193.865 57.9074C193.865 58.1869 193.818 58.4199 193.676 58.6528C193.534 58.8857 193.393 59.0721 193.204 59.2584C193.015 59.4448 192.732 59.5845 192.448 59.6777C192.165 59.7709 191.882 59.8175 191.551 59.8175C191.315 59.8175 191.079 59.7709 190.843 59.7243C190.607 59.6777 190.371 59.5845 190.182 59.4914C189.993 59.3982 189.804 59.2584 189.615 59.1187C189.427 58.9789 189.332 58.7926 189.191 58.6062C189.096 58.4664 189.096 58.3267 189.143 58.2335C189.191 58.1403 189.238 58.0472 189.332 58.0006C189.427 57.954 189.521 57.9074 189.663 57.954C189.804 57.954 189.899 58.0472 189.993 58.1403C190.135 58.3733 190.371 58.5596 190.607 58.6994C190.89 58.8391 191.221 58.8857 191.551 58.8857C191.74 58.8857 191.929 58.8391 192.071 58.7925C192.259 58.746 192.401 58.6528 192.496 58.5596C192.637 58.4664 192.732 58.3733 192.779 58.2335C192.873 58.0937 192.873 57.954 192.873 57.8142C192.873 57.6744 192.826 57.5347 192.732 57.3949C192.637 57.2552 192.496 57.162 192.307 57.0688C192.118 56.9756 191.929 56.8825 191.74 56.7893C191.598 56.7893 191.362 56.6961 191.174 56.6495Z" fill="#BDA45F"/>
<path d="M197.406 51.7109C197.406 51.5711 197.453 51.4314 197.548 51.2916C197.642 51.1984 197.784 51.1519 197.926 51.1519C198.067 51.1519 198.209 51.1984 198.303 51.2916C198.398 51.3848 198.445 51.5246 198.445 51.7109C198.445 51.8507 198.398 51.9904 198.303 52.0836C198.209 52.1768 198.067 52.2234 197.926 52.2234C197.831 52.2234 197.784 52.2234 197.69 52.1768C197.642 52.1302 197.548 52.0836 197.501 52.037C197.453 51.9904 197.406 51.9438 197.406 51.8507C197.406 51.8507 197.406 51.8041 197.406 51.7109ZM198.398 59.2115C198.398 59.3512 198.351 59.4444 198.256 59.5376C198.162 59.6308 198.067 59.6774 197.926 59.6774C197.784 59.6774 197.69 59.6308 197.595 59.5376C197.501 59.4444 197.453 59.3512 197.453 59.2115V53.621C197.453 53.4812 197.501 53.3881 197.595 53.2949C197.69 53.2017 197.784 53.1551 197.926 53.1551C198.067 53.1551 198.162 53.2017 198.256 53.2949C198.351 53.3881 198.398 53.4812 198.398 53.621V59.2115Z" fill="#BDA45F"/>
<path d="M204.583 58.2337L206.802 53.4817C206.849 53.342 206.943 53.2954 207.038 53.2488C207.132 53.2022 207.274 53.2022 207.415 53.2488C207.557 53.2954 207.604 53.3886 207.651 53.4817C207.699 53.6215 207.699 53.7147 207.651 53.8544L205.055 59.4449C205.007 59.5381 204.96 59.6313 204.866 59.6779C204.771 59.7245 204.724 59.7711 204.63 59.7711C204.535 59.7711 204.441 59.7245 204.346 59.6779C204.252 59.6313 204.205 59.5381 204.158 59.4449L201.561 53.8544C201.514 53.7147 201.514 53.6215 201.561 53.4817C201.608 53.342 201.702 53.2954 201.797 53.2488C201.939 53.2022 202.033 53.2022 202.175 53.2488C202.316 53.2954 202.363 53.3886 202.411 53.4817L204.583 58.2337Z" fill="#BDA45F"/>
<path d="M211.24 56.8361C211.287 57.1156 211.382 57.3951 211.523 57.6281C211.665 57.861 211.854 58.0939 212.043 58.2803C212.231 58.4666 212.515 58.6064 212.751 58.6996C213.034 58.7928 213.317 58.8393 213.601 58.8393C213.931 58.8393 214.262 58.7928 214.592 58.653C214.923 58.5132 215.159 58.3269 215.348 58.0939C215.489 57.9542 215.678 57.9542 215.82 58.0008C215.914 58.0474 215.961 58.0939 216.056 58.1871C216.103 58.2803 216.15 58.3735 216.15 58.4666C216.15 58.6064 216.103 58.6996 215.961 58.7928C215.725 59.0723 215.395 59.3052 214.97 59.4916C214.592 59.6779 214.12 59.7711 213.601 59.7711C213.128 59.7711 212.704 59.6779 212.279 59.4916C211.854 59.3052 211.523 59.0723 211.193 58.7928C210.862 58.4666 210.626 58.1405 210.484 57.7212C210.296 57.302 210.201 56.8827 210.201 56.4168C210.201 55.9509 210.296 55.5316 210.484 55.1123C210.673 54.6931 210.909 54.367 211.193 54.0408C211.523 53.7147 211.854 53.4818 212.279 53.342C212.704 53.1557 213.128 53.0625 213.601 53.0625C214.073 53.0625 214.498 53.1557 214.923 53.342C215.348 53.5284 215.678 53.7613 216.009 54.0408C216.292 54.3204 216.575 54.6931 216.717 55.1123C216.906 55.5316 217 55.9509 217 56.4168C217 56.5566 216.953 56.6497 216.858 56.7429C216.764 56.8361 216.67 56.8827 216.528 56.8827H211.24V56.8361ZM216.056 56.0907C216.009 55.8112 215.914 55.5316 215.82 55.2521C215.678 55.0192 215.489 54.7862 215.3 54.5999C215.064 54.4135 214.828 54.2738 214.545 54.1806C214.262 54.0874 213.978 54.0408 213.648 54.0408C213.317 54.0408 213.034 54.0874 212.751 54.1806C212.467 54.2738 212.231 54.4135 211.995 54.5999C211.759 54.7862 211.618 55.0192 211.476 55.2521C211.334 55.485 211.24 55.7646 211.24 56.0907H216.056Z" fill="#BDA45F"/>
<g clip-path="url(#clip0_2202_637)">
<path d="M49.8573 27.7417C49.8573 27.8222 49.8573 27.9027 49.844 27.9832C49.1928 27.8222 48.5549 27.7551 47.9569 27.782C47.3588 27.8088 46.7608 27.8356 46.1495 27.8759C44.1162 27.9966 42.0165 28.1173 39.9034 27.849C39.5047 27.7954 39.0795 27.8222 38.6675 27.9161C35.478 28.6405 32.2354 28.2247 29.0858 27.8222L28.8997 27.7954C28.727 27.7685 28.5409 27.7551 28.3549 27.7551C27.3714 27.7417 26.3747 27.7149 25.4179 27.6881C23.0656 27.621 20.8596 27.5405 18.6801 27.7417C18.4808 27.7551 18.2814 27.7685 18.0821 27.7417C18.0688 27.7417 18.0555 27.7417 18.0289 27.7417C18.0289 27.6612 18.0289 27.5807 18.0156 27.5002C18.0422 27.5002 18.0688 27.5002 18.0954 27.5002C18.2814 27.5137 18.4675 27.5137 18.6402 27.5002C20.8463 27.299 23.0656 27.3795 25.4179 27.4466C26.3747 27.4734 27.3714 27.5137 28.3416 27.5137C28.5409 27.5137 28.7402 27.5271 28.9396 27.5539L29.1256 27.5807C32.2354 27.9832 35.4514 28.3991 38.5745 27.6881C39.013 27.5807 39.4914 27.5673 39.93 27.621C42.0165 27.8893 44.1029 27.7685 46.1096 27.6478C46.7209 27.6076 47.319 27.5807 47.917 27.5539C48.5549 27.5271 49.1928 27.5807 49.8573 27.7417Z" fill="#BDA45F"/>
<path d="M49.8041 28.5602C49.8041 28.6407 49.7908 28.7212 49.7775 28.8017C49.6845 28.7883 49.6047 28.7749 49.5117 28.7615C48.0366 28.6676 46.5348 28.7346 44.9534 28.8017C43.1062 28.8822 41.1792 28.9627 39.2655 28.7749C36.8601 28.6944 34.375 28.7212 31.9696 28.7481C30.9197 28.7615 29.8831 28.7749 28.8465 28.7749C28.7136 28.7749 28.594 28.7749 28.4611 28.7615C26.8531 28.6273 25.2318 28.7212 23.6636 28.8151C21.9626 28.909 20.3545 29.0029 18.7465 28.8285C18.5206 28.8017 18.308 28.7883 18.1086 28.8017C18.0953 28.7212 18.0953 28.6407 18.082 28.5602C18.308 28.5468 18.5339 28.5602 18.7864 28.5871C20.3678 28.7615 21.9626 28.6676 23.6503 28.5737C25.2318 28.4798 26.8664 28.3859 28.501 28.5334C28.6206 28.5468 28.7402 28.5468 28.8465 28.5468C29.8831 28.5468 30.9197 28.5334 31.9696 28.52C34.375 28.4932 36.8601 28.4663 39.2921 28.5468C41.2058 28.7346 43.1062 28.6542 44.9401 28.5737C46.5348 28.5066 48.0498 28.4395 49.5516 28.5468C49.6313 28.5334 49.7243 28.5468 49.8041 28.5602Z" fill="#BDA45F"/>
<path d="M49.6709 29.6198C49.6576 29.7003 49.6443 29.7808 49.631 29.8613C49.6044 29.8613 49.5911 29.8613 49.5646 29.8613C47.9299 29.8076 46.2688 29.8344 44.5013 29.8613C43.3052 29.8747 42.0826 29.8881 40.8466 29.8881C40.1955 29.8881 39.1589 29.7942 38.521 29.6466C36.7801 29.2442 34.9727 29.4588 33.2318 29.6869C31.9427 29.8479 30.6137 30.0088 29.3114 29.9284C28.8861 29.9015 28.4475 29.9284 27.9824 30.0223C27.7299 30.0759 27.4907 30.1162 27.2382 30.1564C26.8661 30.2235 26.5073 30.2637 26.1352 30.304C25.4973 30.371 24.8594 30.4247 24.2215 30.4381C23.7165 30.4515 23.2115 30.4515 22.7065 30.4381C21.6566 30.3979 20.6067 30.2906 19.5702 30.1027C19.1449 30.0357 18.7196 29.9954 18.2811 30.0088C18.2678 29.9284 18.2545 29.8479 18.2412 29.7674C18.7063 29.754 19.1848 29.7808 19.6366 29.8613C21.1383 30.1296 22.6666 30.2369 24.2082 30.1832C24.8461 30.1698 25.4973 30.1162 26.1352 30.0491C26.7332 29.982 27.3179 29.8881 27.916 29.7808C28.4077 29.6869 28.8861 29.6601 29.3379 29.6869C30.6137 29.7674 31.9294 29.6064 33.1919 29.4454C34.9594 29.2174 36.7933 28.9893 38.6007 29.4186C39.1987 29.5527 40.2353 29.6466 40.8466 29.6466C42.0693 29.6601 43.3052 29.6332 44.488 29.6198C46.2555 29.593 47.9299 29.5796 49.5778 29.6198C49.6177 29.6198 49.6443 29.6198 49.6709 29.6198Z" fill="#BDA45F"/>
<path d="M49.1525 30.5455C49.2588 30.5589 49.3784 30.5589 49.498 30.5589C49.4847 30.6394 49.4714 30.7199 49.4448 30.8004C49.3385 30.8004 49.2322 30.8004 49.1392 30.787C47.1989 30.6662 45.2188 30.7065 43.1323 30.7601C41.9097 30.787 40.6339 30.8272 39.3581 30.8138C37.9361 30.7736 36.4743 30.8272 35.0656 30.8675C33.5772 30.9077 32.0489 30.9614 30.5472 30.9211C29.6435 30.8943 28.7398 30.7601 27.876 30.5187C27.3045 30.3577 26.7198 30.2906 26.1483 30.2906C25.5104 30.2772 24.8725 30.3443 24.2347 30.4248C23.7961 30.4918 23.3708 30.5589 22.9456 30.626C21.7096 30.8406 20.4206 31.0553 19.1714 30.9211C18.9454 30.8943 18.7195 30.8809 18.4936 30.8809C18.467 30.8004 18.4537 30.7199 18.4404 30.6394C18.7062 30.6394 18.9587 30.6528 19.2245 30.6797C20.3674 30.8004 21.5236 30.6126 22.7329 30.4114C22.7861 30.3979 22.8393 30.3979 22.8924 30.3845C23.331 30.3174 23.7695 30.237 24.2214 30.1699C24.8593 30.076 25.4972 30.0223 26.1483 30.0357C26.5204 30.0357 26.8793 30.0626 27.2514 30.1296C27.4906 30.1699 27.7298 30.2101 27.969 30.2772C28.8062 30.5053 29.6833 30.6394 30.5604 30.6662C32.0489 30.7065 33.5772 30.6662 35.0523 30.6126C36.4743 30.5723 37.9361 30.5187 39.3714 30.5589C40.6206 30.5723 41.8964 30.5321 43.119 30.5053C45.2055 30.465 47.1856 30.4114 49.1525 30.5455Z" fill="#BDA45F"/>
<path d="M48.3956 31.2431C48.7013 31.3102 48.9936 31.3505 49.2993 31.3639C49.2727 31.4444 49.2594 31.5249 49.2328 31.6053C48.9272 31.5785 48.6215 31.5383 48.3291 31.4712C46.854 31.1626 45.3656 31.3907 43.7841 31.6322C42.309 31.8602 40.794 32.0883 39.2657 31.8602C37.445 31.3639 35.5845 31.5919 33.7904 31.8066C33.6974 31.82 33.5911 31.8334 33.4981 31.8468C32.4083 31.981 31.292 32.1017 30.189 32.048C29.9764 32.0346 29.7504 32.0212 29.5378 31.9944C28.86 31.9273 28.3019 31.9139 27.7703 31.9541C25.737 32.1419 23.7303 32.048 21.79 31.9541C20.9395 31.9139 20.0624 31.8736 19.2252 31.8602C19.0657 31.8602 18.9062 31.8468 18.7467 31.82C18.7202 31.7395 18.6936 31.6456 18.667 31.5651C18.853 31.5919 19.0391 31.6053 19.2252 31.6188C20.0757 31.6322 20.9528 31.6724 21.8033 31.7127C23.7303 31.8066 25.7237 31.9005 27.7304 31.7127C28.2753 31.659 28.86 31.6724 29.5644 31.7529C30.9332 31.9005 32.3552 31.7261 33.7373 31.5651C35.5712 31.337 37.4716 31.109 39.3322 31.6188C40.7807 31.8334 42.2691 31.6053 43.7177 31.3907C45.2593 31.1626 46.854 30.9212 48.3956 31.2431Z" fill="#BDA45F"/>
<path d="M48.8871 32.6382C48.8605 32.7187 48.8207 32.7992 48.7941 32.8797C47.5847 32.9468 46.3488 32.8126 45.1528 32.6785C43.5314 32.5041 41.8702 32.3163 40.2091 32.598C39.425 32.7321 38.7339 32.759 38.096 32.6919C37.5113 32.6248 36.9 32.5309 36.3285 32.437C34.056 32.0882 31.7171 31.7394 29.4446 32.5175C28.9263 32.6919 28.408 32.7724 27.903 32.7456C27.079 32.7053 26.2418 32.7321 25.4179 32.7858C24.9527 32.8126 24.4876 32.8529 24.0225 32.8931C24.0092 32.8931 23.9959 32.8931 23.9826 32.8931C23.0257 32.9736 22.029 33.0541 21.0589 33.0541H21.0323C20.9526 33.0541 20.8728 33.0541 20.7798 33.0541C20.5273 33.0541 20.2748 33.0407 20.0223 33.0139C19.7034 32.987 19.3977 32.9468 19.1053 32.8931C19.0655 32.7992 19.0389 32.7053 18.999 32.6248C19.5572 32.7456 20.1552 32.8126 20.7798 32.8261C20.8596 32.8261 20.9393 32.8261 21.019 32.8261C21.9759 32.8261 22.9194 32.7456 23.9294 32.6651C23.956 32.6651 23.9693 32.6651 23.9959 32.6651C25.2717 32.5578 26.6006 32.4504 27.9296 32.5175C28.3814 32.5443 28.8465 32.4638 29.325 32.3029C29.604 32.209 29.8964 32.1285 30.1755 32.0614C31.2785 31.8065 32.3815 31.7797 33.4846 31.8602C34.4547 31.9272 35.4248 32.0748 36.3817 32.2224C36.9531 32.3163 37.5645 32.3968 38.1492 32.4773C38.7472 32.5443 39.3984 32.5175 40.1559 32.3968C41.8702 32.1016 43.5713 32.2895 45.2059 32.4638C46.4684 32.5846 47.691 32.7187 48.8871 32.6382Z" fill="#BDA45F"/>
<path d="M48.5283 33.537C48.5018 33.6175 48.4619 33.698 48.422 33.7785C47.5715 33.7517 46.6944 33.6578 45.8571 33.5773C43.9567 33.376 42.0032 33.1748 40.0363 33.6041C39.5579 33.7114 39.0529 33.6846 38.6011 33.537C35.6508 32.5711 32.6474 33.0943 29.7636 33.6041C29.0991 33.7248 28.3947 33.698 27.7568 33.5236C26.4412 33.1748 25.192 32.9736 23.9826 32.9199C22.9726 32.8663 22.0025 32.9199 21.0589 33.0809C20.5672 33.1614 20.0755 33.2687 19.5838 33.4029C19.5041 33.4297 19.4243 33.4431 19.3313 33.4699C19.2914 33.3895 19.2649 33.3224 19.2383 33.2419C19.318 33.2285 19.411 33.2016 19.4908 33.1748C19.6635 33.1212 19.8496 33.0809 20.0357 33.0407C20.3679 32.9602 20.7001 32.8931 21.0324 32.8394C21.9759 32.6919 22.9461 32.6382 23.9428 32.6785C24.4345 32.6919 24.9262 32.7455 25.4312 32.7992C26.2286 32.9065 27.0259 33.0675 27.8499 33.2821C28.4479 33.4431 29.0858 33.4699 29.7104 33.3626C32.6474 32.8529 35.6907 32.3163 38.734 33.309C39.1194 33.4431 39.5712 33.4565 39.9832 33.3626C42.0032 32.9199 43.9833 33.1346 45.9103 33.3358C46.8007 33.4163 47.6645 33.5102 48.5283 33.537Z" fill="#BDA45F"/>
<path d="M48.0499 34.5435C48.01 34.624 47.9701 34.7045 47.9303 34.785C47.5847 34.7716 47.2525 34.7716 46.907 34.785C44.9933 34.8386 42.8537 34.8118 40.3553 34.7313C39.6376 34.7045 38.9732 34.5972 38.3751 34.4094C36.6209 33.8728 34.8135 34.1679 33.0593 34.4362C31.5576 34.6777 30.016 34.9326 28.4877 34.6777C26.6671 34.074 24.8597 34.3557 23.1055 34.624C22.0955 34.785 21.0722 34.9326 20.0489 34.9326C20.009 34.8521 19.9559 34.7716 19.916 34.6911C20.926 34.7179 21.9626 34.5569 23.039 34.396C24.8331 34.1142 26.6937 33.8325 28.5675 34.463C30.0027 34.7045 31.5177 34.463 32.9929 34.2216C34.787 33.9264 36.6475 33.6313 38.4814 34.1947C39.0529 34.3691 39.6908 34.4764 40.3685 34.4899C42.8537 34.5703 44.98 34.5972 46.8937 34.5435C47.2791 34.5301 47.6645 34.5301 48.0499 34.5435Z" fill="#BDA45F"/>
<path d="M47.6516 35.2541C47.6118 35.3346 47.5586 35.4151 47.5187 35.4822C47.4922 35.4822 47.4656 35.4687 47.439 35.4687C44.9273 35.187 42.3225 34.8919 39.7045 35.6029C39.452 35.67 39.2527 35.7102 39.0666 35.737C37.0466 36.0053 35 35.898 33.0066 35.7907C31.9169 35.737 30.7873 35.6565 29.6842 35.6834C29.1925 35.6834 28.7141 35.737 28.249 35.8444C27.744 35.9651 27.2257 36.0188 26.7207 36.0322C26.2024 36.0456 25.6708 36.0053 25.1658 35.9517C24.5943 35.8846 24.0229 35.7907 23.4515 35.6968C22.3617 35.509 21.3251 35.3346 20.3018 35.3748C20.262 35.2943 20.2088 35.2139 20.1689 35.1468C21.2853 35.0931 22.4149 35.2809 23.5179 35.4687C25.0462 35.7236 26.6144 35.9919 28.1692 35.6297C28.6476 35.5224 29.1526 35.4553 29.6842 35.4553C30.8005 35.4553 31.9302 35.509 33.0332 35.5626C35 35.67 37.0466 35.7773 39.0267 35.509C39.1995 35.4822 39.3856 35.4419 39.6248 35.3882C42.3092 34.6638 44.9539 34.959 47.4922 35.2541C47.532 35.2407 47.5985 35.2541 47.6516 35.2541Z" fill="#BDA45F"/>
<path d="M47.1595 36.0324C47.1063 36.1129 47.0531 36.1934 47 36.2739C45.8039 36.2202 44.5946 36.3543 43.3454 36.4751C42.2689 36.5824 41.1659 36.7031 40.0496 36.7031C40.0363 36.7031 40.0363 36.7031 40.023 36.7031C39.5446 36.7031 39.0529 36.7568 38.508 36.8775C37.6973 37.0519 36.8734 37.119 36.0627 37.1458H36.0362C35.9298 37.1458 35.8235 37.1458 35.7172 37.1458C35.5312 37.1458 35.3318 37.1458 35.1458 37.1324C34.1358 37.1056 33.139 37.0117 32.1556 36.9178C31.2254 36.8239 30.2552 36.73 29.3117 36.7031C28.8864 36.6897 28.4346 36.6226 27.9694 36.5019C25.8963 35.9787 23.8098 36.2202 21.8031 36.4348C21.5639 36.4617 21.3114 36.4885 21.0589 36.5153C21.0057 36.4482 20.9526 36.3678 20.8994 36.2873C21.1785 36.2604 21.4576 36.2336 21.7499 36.1934C22.8663 36.0726 24.0092 35.9385 25.1521 35.9385C25.6703 35.9385 26.1886 35.9653 26.7069 36.019C27.1455 36.0726 27.5973 36.1531 28.0359 36.2604C28.4744 36.3678 28.8997 36.4348 29.2984 36.4482C30.2552 36.4751 31.2254 36.569 32.1689 36.6629C34.2288 36.8641 36.3551 37.0653 38.415 36.6361C38.9864 36.5153 39.5047 36.4617 40.0097 36.4617H40.0363C41.126 36.4617 42.2291 36.3409 43.2922 36.2336C44.5813 36.1129 45.8837 35.9787 47.1595 36.0324Z" fill="#BDA45F"/>
<path d="M45.9237 37.6557C45.8572 37.7362 45.7775 37.8301 45.6978 37.9106C43.5847 38.0179 41.4318 38.0045 39.2391 37.6557C36.5812 37.2265 33.8435 37.3874 31.1989 37.535C30.7072 37.5618 30.2155 37.5887 29.7238 37.6155C29.139 37.6423 28.5277 37.7228 27.8898 37.8436C26.9862 38.0314 26.0825 38.085 25.1788 38.085C24.1688 38.085 23.1588 38.0045 22.1621 37.9106C22.0823 37.8167 22.0026 37.7362 21.9229 37.6423C23.8365 37.8301 25.8167 38.0045 27.7968 37.6021C28.448 37.4679 29.0859 37.3874 29.6839 37.3606C30.1756 37.3338 30.6673 37.307 31.159 37.2801C32.4614 37.1996 33.7904 37.1326 35.1193 37.1191C35.4117 37.1191 35.7173 37.1191 36.0097 37.1326H36.0363C37.126 37.1594 38.2025 37.2399 39.2789 37.4143C41.5514 37.7765 43.7575 37.7631 45.9237 37.6557Z" fill="#BDA45F"/>
<path d="M44.2356 39.346C44.1957 39.3862 44.1559 39.413 44.116 39.4533C44.0628 39.5069 44.0097 39.5472 43.9565 39.5874C43.5977 39.574 43.2389 39.5606 42.8934 39.5204C41.9365 39.4265 41.0195 39.2252 40.1158 38.9167C39.664 38.7691 39.159 38.702 38.6673 38.7423C37.2985 38.8362 35.9164 38.702 34.5608 38.5813C32.9794 38.4337 31.3315 38.2862 29.7368 38.5008C29.0324 38.5947 28.461 38.635 27.9028 38.6216C26.6137 38.5813 25.3113 38.6484 24.0488 38.7155C23.69 38.7289 23.3445 38.7557 22.999 38.7691C22.9192 38.6886 22.8395 38.6081 22.7598 38.5411C23.185 38.5277 23.597 38.5008 24.0356 38.4874C25.2981 38.4203 26.6004 38.3533 27.9161 38.3935C28.4477 38.4069 29.0058 38.3667 29.6836 38.2862C31.3182 38.0581 32.9927 38.2191 34.6007 38.3667C35.9297 38.4874 37.3118 38.6216 38.6407 38.5277C39.1856 38.4874 39.7305 38.5545 40.2355 38.7289C41.498 39.1313 42.8269 39.346 44.2356 39.346Z" fill="#BDA45F"/>
<path d="M44.1166 39.4396C44.0634 39.4932 44.0103 39.5335 43.9571 39.5737C43.9039 39.614 43.8508 39.6676 43.7976 39.7079C42.2693 39.8152 40.7012 39.842 39.133 39.5469C38.0698 39.5603 36.9402 39.5871 35.8505 39.6274C33.6312 39.6945 31.3321 39.7615 29.0994 39.6006C28.7672 39.5737 28.4217 39.614 28.0761 39.6945C26.92 39.9896 25.7904 40.1103 24.6607 40.1372C24.5544 40.0567 24.4481 39.9762 24.3418 39.8957C25.5379 39.8957 26.7605 39.775 27.9831 39.4664C28.3685 39.3725 28.7539 39.3323 29.126 39.3591C31.3454 39.5201 33.6312 39.453 35.8372 39.3859C36.9269 39.3591 38.0566 39.3188 39.1729 39.3188C40.4354 39.5603 41.6713 39.5871 42.8939 39.5335C43.2926 39.4932 43.7046 39.4798 44.1166 39.4396Z" fill="#BDA45F"/>
<path d="M42.6014 40.5667C42.4818 40.6472 42.3489 40.7277 42.2293 40.8082C41.6446 40.7947 41.0465 40.7813 40.4618 40.7411C39.9701 40.7008 39.4518 40.5935 38.8936 40.4057C37.3653 39.8959 35.8503 40.2447 34.2423 40.6338C33.219 40.8752 32.1692 41.1301 31.1326 41.1301C30.3751 41.1301 29.6043 40.996 28.8468 40.6338C27.6507 40.3386 26.4281 40.3789 25.2187 40.513C25.1124 40.446 25.0061 40.3789 24.9131 40.2984C26.242 40.1374 27.6109 40.0703 28.9664 40.4057C30.694 41.224 32.3818 40.8216 34.1626 40.3923C35.744 40.0167 37.3919 39.6276 39.0132 40.1777C39.5448 40.3521 40.0232 40.4594 40.4884 40.4862C41.1927 40.5399 41.8971 40.5667 42.6014 40.5667Z" fill="#BDA45F"/>
<path d="M40.8601 41.5593C40.7272 41.6264 40.5811 41.6935 40.4349 41.7605C40.1425 41.7203 39.8634 41.6801 39.5976 41.6264C39.3584 41.5862 39.1325 41.5593 38.8933 41.5862C37.0461 41.7203 35.1722 41.6532 33.3516 41.5996C31.9429 41.5593 30.481 41.5057 29.0591 41.5459C28.8331 41.5593 28.5806 41.5861 28.2883 41.6398C28.0092 41.6935 27.7434 41.7337 27.4643 41.774C27.3181 41.7069 27.1852 41.6398 27.0391 41.5727C27.4245 41.5325 27.8231 41.4788 28.2085 41.3983C28.5275 41.3313 28.7933 41.3044 29.0458 41.3044C30.481 41.2642 31.9429 41.3044 33.3649 41.3581C35.1722 41.4252 37.0461 41.4788 38.8667 41.3581C39.1325 41.3313 39.3983 41.3581 39.6641 41.4118C40.0362 41.452 40.4349 41.5191 40.8601 41.5593Z" fill="#BDA45F"/>
<path d="M37.8172 42.6727C37.5248 42.7397 37.2324 42.8068 36.9401 42.8739C36.5813 42.8471 36.2224 42.8068 35.8769 42.7532L35.3586 42.6592C33.6974 42.3775 31.9831 42.0958 30.3219 42.4983C30.1624 42.5385 29.9897 42.5788 29.8302 42.6056C29.6574 42.5653 29.498 42.5117 29.3252 42.458C29.6176 42.4044 29.9099 42.3373 30.2289 42.2568C31.9698 41.8409 33.724 42.1361 35.4251 42.4178L35.9434 42.4983C36.5414 42.6056 37.166 42.6592 37.8172 42.6727Z" fill="#BDA45F"/>
<path d="M49.8706 27.0712H18.0156C18.0156 18.1904 25.1521 11 33.9364 11C42.7341 11 49.8706 18.1904 49.8706 27.0712Z" fill="#BDA45F"/>
</g>
<defs>
<clipPath id="clip0_2202_637">
<rect width="32" height="32" fill="white" transform="translate(18 11)"/>
</clipPath>
</defs>
</svg>
