<svg width="145" height="96" viewBox="0 0 145 96" fill="none" xmlns="http://www.w3.org/2000/svg">
<g clip-path="url(#clip0_2214_624)">
<path d="M102.646 31.4458C102.646 31.597 102.646 31.7482 102.621 31.8994C101.392 31.597 100.188 31.471 99.0585 31.5214C97.9294 31.5718 96.8003 31.6222 95.6461 31.6978C91.8072 31.9246 87.8429 32.1513 83.8534 31.6474C83.1007 31.5466 82.2978 31.597 81.52 31.7734C75.4982 33.134 69.376 32.3529 63.4295 31.597L63.0782 31.5466C62.752 31.4962 62.4008 31.471 62.0495 31.471C60.1928 31.4458 58.3109 31.3954 56.5044 31.345C52.0633 31.219 47.8982 31.0679 43.7834 31.4458C43.407 31.471 43.0306 31.4962 42.6543 31.4458C42.6292 31.4458 42.6041 31.4458 42.5539 31.4458C42.5539 31.2946 42.5539 31.1435 42.5288 30.9923C42.579 30.9923 42.6292 30.9923 42.6794 30.9923C43.0306 31.0175 43.3819 31.0175 43.7081 30.9923C47.8732 30.6143 52.0633 30.7655 56.5044 30.8915C58.3109 30.9419 60.1928 31.0175 62.0244 31.0175C62.4008 31.0175 62.7771 31.0427 63.1535 31.0931L63.5048 31.1435C69.376 31.8994 75.448 32.6805 81.3443 31.345C82.1723 31.1435 83.0756 31.1183 83.9036 31.219C87.8429 31.723 91.7821 31.4962 95.5709 31.2694C96.725 31.1939 97.8541 31.1435 98.9832 31.0931C100.188 31.0427 101.392 31.1435 102.646 31.4458Z" fill="white"/>
<path d="M102.546 32.9829C102.546 33.1341 102.521 33.2852 102.496 33.4364C102.32 33.4112 102.17 33.386 101.994 33.3608C99.2091 33.1844 96.3738 33.3104 93.388 33.4364C89.9004 33.5876 86.2622 33.7388 82.6491 33.386C78.1077 33.2348 73.4157 33.2852 68.8742 33.3356C66.8921 33.3608 64.935 33.386 62.9779 33.386C62.727 33.386 62.5012 33.386 62.2502 33.3608C59.2143 33.1089 56.1532 33.2852 53.1925 33.4616C49.9808 33.638 46.9448 33.8144 43.9088 33.4868C43.4823 33.4364 43.0808 33.4112 42.7045 33.4364C42.6794 33.2852 42.6794 33.1341 42.6543 32.9829C43.0808 32.9577 43.5074 32.9829 43.9841 33.0333C46.9699 33.3608 49.9808 33.1844 53.1674 33.0081C56.1532 32.8317 59.2393 32.6553 62.3255 32.9325C62.5513 32.9577 62.7772 32.9577 62.9779 32.9577C64.935 32.9577 66.8921 32.9325 68.8742 32.9073C73.4157 32.8569 78.1077 32.8065 82.6993 32.9577C86.3124 33.3104 89.9004 33.1592 93.3629 33.0081C96.3738 32.8821 99.2341 32.7561 102.069 32.9577C102.22 32.9325 102.396 32.9577 102.546 32.9829Z" fill="white"/>
<path d="M102.295 34.9733C102.27 35.1245 102.245 35.2756 102.22 35.4268C102.17 35.4268 102.145 35.4268 102.094 35.4268C99.0083 35.326 95.8719 35.3764 92.5348 35.4268C90.2766 35.452 87.9683 35.4772 85.6348 35.4772C84.4054 35.4772 82.4483 35.3008 81.2439 35.0237C77.957 34.2678 74.5447 34.6709 71.2578 35.0993C68.824 35.4016 66.3149 35.704 63.856 35.5528C63.0531 35.5024 62.2251 35.5528 61.3469 35.7292C60.8702 35.83 60.4185 35.9056 59.9418 35.9812C59.2393 36.1071 58.5618 36.1827 57.8593 36.2583C56.6549 36.3843 55.4506 36.4851 54.2462 36.5103C53.2927 36.5355 52.3393 36.5355 51.3858 36.5103C49.4037 36.4347 47.4215 36.2331 45.4644 35.8804C44.6615 35.7544 43.8586 35.6788 43.0306 35.704C43.0055 35.5528 42.9804 35.4016 42.9553 35.2504C43.8335 35.2252 44.7368 35.2756 45.5899 35.4268C48.4251 35.9308 51.3106 36.1323 54.2211 36.0315C55.4255 36.0063 56.6549 35.9056 57.8593 35.7796C58.9884 35.6536 60.0924 35.4772 61.2215 35.2756C62.1498 35.0993 63.0531 35.0489 63.9062 35.0993C66.3149 35.2504 68.7989 34.9481 71.1825 34.6457C74.5196 34.2174 77.9821 33.789 81.3945 34.5953C82.5236 34.8473 84.4807 35.0237 85.6348 35.0237C87.9432 35.0489 90.2767 34.9985 92.5097 34.9733C95.8468 34.9229 99.0083 34.8977 102.12 34.9733C102.195 34.9733 102.245 34.9733 102.295 34.9733Z" fill="white"/>
<path d="M101.317 36.7118C101.517 36.737 101.743 36.737 101.969 36.737C101.944 36.8882 101.919 37.0394 101.869 37.1905C101.668 37.1905 101.467 37.1905 101.292 37.1653C97.6284 36.9386 93.8898 37.0142 89.9506 37.115C87.6422 37.1653 85.2335 37.2409 82.8248 37.2157C80.1401 37.1401 77.3801 37.2409 74.7204 37.3165C71.9103 37.3921 69.0248 37.4929 66.1895 37.4173C64.4834 37.3669 62.7772 37.115 61.1463 36.6614C60.0674 36.359 58.9634 36.2331 57.8845 36.2331C56.6801 36.2079 55.4758 36.3338 54.2714 36.485C53.4434 36.611 52.6405 36.737 51.8376 36.863C49.5041 37.2661 47.0703 37.6693 44.7118 37.4173C44.2852 37.3669 43.8587 37.3417 43.4322 37.3417C43.382 37.1905 43.3569 37.0394 43.3318 36.8882C43.8336 36.8882 44.3103 36.9134 44.8121 36.9638C46.97 37.1905 49.1529 36.8378 51.4361 36.4598C51.5365 36.4346 51.6369 36.4346 51.7372 36.4094C52.5652 36.2835 53.3932 36.1323 54.2463 36.0063C55.4507 35.8299 56.655 35.7291 57.8845 35.7543C58.587 35.7543 59.2645 35.8047 59.967 35.9307C60.4187 36.0063 60.8703 36.0819 61.3219 36.2079C62.9026 36.6362 64.5586 36.8882 66.2146 36.9386C69.0248 37.0142 71.9103 36.9386 74.6953 36.8378C77.3801 36.7622 80.1401 36.6614 82.8499 36.737C85.2084 36.7622 87.6171 36.6866 89.9255 36.6362C93.8647 36.5606 97.6033 36.4598 101.317 36.7118Z" fill="white"/>
<path d="M99.8865 38.022C100.464 38.148 101.016 38.2236 101.593 38.2488C101.543 38.4 101.517 38.5511 101.467 38.7023C100.89 38.6519 100.313 38.5763 99.7611 38.4504C96.976 37.8708 94.1658 38.2992 91.18 38.7527C88.3949 39.1811 85.5346 39.6094 82.6491 39.1811C79.2117 38.2488 75.6989 38.6771 72.3117 39.0803C72.136 39.1055 71.9353 39.1307 71.7597 39.1559C69.7022 39.4078 67.5946 39.6346 65.5121 39.5338C65.1106 39.5086 64.6841 39.4834 64.2826 39.433C63.003 39.307 61.9492 39.2818 60.9455 39.3574C57.1066 39.7102 53.3179 39.5338 49.6546 39.3574C48.0488 39.2818 46.3928 39.2063 44.8121 39.1811C44.511 39.1811 44.2099 39.1559 43.9088 39.1055C43.8587 38.9543 43.8085 38.7779 43.7583 38.6267C44.1096 38.6771 44.4608 38.7023 44.8121 38.7275C46.4179 38.7527 48.0739 38.8283 49.6797 38.9039C53.3179 39.0803 57.0815 39.2567 60.8703 38.9039C61.899 38.8031 63.003 38.8283 64.3328 38.9795C66.9171 39.2567 69.6019 38.9291 72.2113 38.6267C75.6739 38.1984 79.2618 37.77 82.7746 38.7275C85.5095 39.1307 88.3196 38.7023 91.0545 38.2992C93.9651 37.8708 96.976 37.4173 99.8865 38.022Z" fill="white"/>
<path d="M100.815 40.6427C100.765 40.7939 100.689 40.945 100.639 41.0962C98.3559 41.2222 96.0225 40.9702 93.7643 40.7183C90.7032 40.3907 87.5668 40.0379 84.4305 40.5671C82.9501 40.819 81.6454 40.8694 80.441 40.7435C79.3371 40.6175 78.1829 40.4411 77.104 40.2647C72.8134 39.6096 68.3974 38.9545 64.1069 40.4159C63.1284 40.7435 62.1498 40.8946 61.1964 40.8442C59.6407 40.7687 58.06 40.819 56.5044 40.9198C55.6262 40.9702 54.748 41.0458 53.8698 41.1214C53.8447 41.1214 53.8197 41.1214 53.7946 41.1214C51.988 41.2726 50.1062 41.4238 48.2746 41.4238H48.2244C48.0739 41.4238 47.9233 41.4238 47.7477 41.4238C47.2709 41.4238 46.7942 41.3986 46.3175 41.3482C45.7153 41.2978 45.1382 41.2222 44.5862 41.1214C44.511 40.945 44.4608 40.7687 44.3855 40.6175C45.4393 40.8442 46.5684 40.9702 47.7477 40.9954C47.8982 40.9954 48.0488 40.9954 48.1993 40.9954C50.0059 40.9954 51.7873 40.8442 53.6942 40.6931C53.7444 40.6931 53.7695 40.6931 53.8197 40.6931C56.2284 40.4915 58.7375 40.2899 61.2465 40.4159C62.0996 40.4663 62.9778 40.3151 63.8811 40.0127C64.408 39.8364 64.96 39.6852 65.4869 39.5592C67.5694 39.0805 69.652 39.0301 71.7345 39.1813C73.5662 39.3072 75.3978 39.5844 77.2043 39.8616C78.2832 40.0379 79.4374 40.1891 80.5414 40.3403C81.6705 40.4663 82.9 40.4159 84.3301 40.1891C87.5668 39.6348 90.7785 39.9876 93.8647 40.3151C96.2483 40.5419 98.5566 40.7939 100.815 40.6427Z" fill="white"/>
<path d="M100.137 42.3307C100.087 42.4819 100.012 42.6331 99.9366 42.7843C98.3308 42.7339 96.6748 42.5575 95.0941 42.4063C91.5061 42.0284 87.8178 41.6504 84.1043 42.4567C83.2011 42.6583 82.2476 42.6079 81.3945 42.3307C75.8243 40.5166 70.1538 41.4992 64.7091 42.4567C63.4546 42.6835 62.1248 42.6331 60.9204 42.3055C58.4364 41.6504 56.0779 41.2725 53.7946 41.1717C51.8877 41.0709 50.0561 41.1717 48.2746 41.4741C47.3462 41.6252 46.4179 41.8268 45.4895 42.0788C45.339 42.1292 45.1884 42.1544 45.0128 42.2048C44.9375 42.0536 44.8873 41.9276 44.8372 41.7764C44.9877 41.7512 45.1633 41.7008 45.3139 41.6504C45.6401 41.5496 45.9913 41.474 46.3426 41.3985C46.9699 41.2473 47.5972 41.1213 48.2244 41.0205C50.0059 40.7433 51.8375 40.6426 53.7193 40.7181C54.6477 40.7433 55.576 40.8441 56.5295 40.9449C58.0349 41.1465 59.5404 41.4489 61.096 41.852C62.2251 42.1544 63.4295 42.2048 64.6087 42.0032C70.1538 41.0457 75.8996 40.0378 81.6454 41.9024C82.3731 42.1544 83.2261 42.1796 84.004 42.0032C87.8178 41.1717 91.5563 41.5748 95.1945 41.9528C96.8756 42.104 98.5065 42.2803 100.137 42.3307Z" fill="white"/>
<path d="M99.234 44.2206C99.1587 44.3717 99.0835 44.5229 99.0082 44.6741C98.3558 44.6489 97.7286 44.6489 97.0762 44.6741C93.4631 44.7749 89.4235 44.7245 84.7064 44.5733C83.3515 44.5229 82.097 44.3213 80.9679 43.9686C77.6559 42.9607 74.2435 43.515 70.9315 44.019C68.0963 44.4725 65.1857 44.9513 62.3003 44.4725C58.8628 43.3387 55.4505 43.8678 52.1385 44.3717C50.2316 44.6741 48.2996 44.9513 46.3676 44.9513C46.2923 44.8001 46.192 44.6489 46.1167 44.4977C48.0236 44.5481 49.9807 44.2458 52.013 43.9434C55.4003 43.4143 58.913 42.8851 62.4508 44.0694C65.1606 44.5229 68.021 44.0694 70.8061 43.6158C74.1934 43.0615 77.7061 42.5072 81.1686 43.5654C82.2475 43.893 83.4519 44.0946 84.7315 44.1198C89.4235 44.271 93.438 44.3213 97.0511 44.2206C97.7787 44.1954 98.5064 44.1954 99.234 44.2206Z" fill="white"/>
<path d="M98.4814 45.556C98.4061 45.7071 98.3057 45.8583 98.2305 45.9843C98.1803 45.9843 98.1301 45.9591 98.0799 45.9591C93.3378 45.43 88.42 44.8756 83.4771 46.2111C83.0003 46.3371 82.624 46.4127 82.2727 46.463C78.4589 46.967 74.5949 46.7654 70.8313 46.5638C68.7738 46.463 66.6411 46.3119 64.5585 46.3623C63.6302 46.3623 62.7269 46.463 61.8487 46.6646C60.8953 46.8914 59.9167 46.9922 58.9633 47.0174C57.9848 47.0426 56.9811 46.967 56.0277 46.8662C54.9488 46.7402 53.8699 46.5638 52.7909 46.3875C50.7335 46.0347 48.7764 45.7071 46.8444 45.7827C46.7691 45.6316 46.6688 45.4804 46.5935 45.3544C48.7011 45.2536 50.8339 45.6064 52.9164 45.9591C55.8018 46.4379 58.7626 46.9418 61.6982 46.2615C62.6015 46.0599 63.5549 45.9339 64.5585 45.9339C66.6662 45.9339 68.7989 46.0347 70.8814 46.1355C74.5949 46.3371 78.4589 46.5386 82.1974 46.0347C82.5236 45.9843 82.8749 45.9087 83.3265 45.8079C88.3949 44.4473 93.3879 45.0016 98.1803 45.556C98.2556 45.5308 98.381 45.556 98.4814 45.556Z" fill="white"/>
<path d="M97.5531 47.0172C97.4528 47.1684 97.3524 47.3196 97.2521 47.4707C94.9939 47.37 92.7106 47.6219 90.3521 47.8487C88.3197 48.0503 86.2372 48.277 84.1295 48.277C84.1045 48.277 84.1045 48.277 84.0794 48.277C83.1761 48.277 82.2477 48.3778 81.219 48.6046C79.6885 48.9322 78.1328 49.0581 76.6023 49.1085H76.5521C76.3514 49.1085 76.1507 49.1085 75.9499 49.1085C75.5987 49.1085 75.2223 49.1085 74.871 49.0833C72.9641 49.0329 71.0823 48.8566 69.2256 48.6802C67.4692 48.5038 65.6376 48.3274 63.8561 48.277C63.0532 48.2518 62.2001 48.1259 61.322 47.8991C57.4078 46.9164 53.4685 47.37 49.6798 47.7731C49.2282 47.8235 48.7514 47.8739 48.2747 47.9243C48.1744 47.7983 48.074 47.6471 47.9736 47.4959C48.5005 47.4455 49.0275 47.3952 49.5794 47.3196C51.6871 47.0928 53.8449 46.8408 56.0027 46.8408C56.9812 46.8408 57.9598 46.8912 58.9383 46.992C59.7663 47.0928 60.6194 47.244 61.4474 47.4455C62.2754 47.6471 63.0783 47.7731 63.831 47.7983C65.6376 47.8487 67.4692 48.0251 69.2507 48.2015C73.1398 48.5794 77.1543 48.9574 81.0434 48.1511C82.1223 47.9243 83.1008 47.8235 84.0543 47.8235H84.1045C86.1619 47.8235 88.2444 47.5967 90.2517 47.3952C92.6855 47.1684 95.1444 46.9164 97.5531 47.0172Z" fill="white"/>
<path d="M95.2196 50.066C95.0941 50.2172 94.9436 50.3935 94.793 50.5447C90.8036 50.7463 86.7389 50.7211 82.5989 50.066C77.5807 49.2597 72.412 49.562 67.4189 49.8392C66.4906 49.8896 65.5622 49.94 64.6338 49.9904C63.5299 50.0408 62.3757 50.192 61.1713 50.4187C59.4651 50.7715 57.759 50.8723 56.0528 50.8723C54.1459 50.8723 52.239 50.7211 50.3572 50.5447C50.2066 50.3683 50.0561 50.2172 49.9055 50.0408C53.5186 50.3935 57.2571 50.7211 60.9957 49.9652C62.2251 49.7132 63.4295 49.562 64.5586 49.5116C65.4869 49.4613 66.4153 49.4109 67.3437 49.3605C69.8026 49.2093 72.3116 49.0833 74.8207 49.0581C75.3727 49.0581 75.9498 49.0581 76.5018 49.0833H76.552C78.6094 49.1337 80.6418 49.2849 82.6742 49.6124C86.9647 50.2928 91.1298 50.2676 95.2196 50.066Z" fill="white"/>
<path d="M92.0331 53.241C91.9579 53.3165 91.8826 53.3669 91.8073 53.4425C91.707 53.5433 91.6066 53.6189 91.5062 53.6945C90.8288 53.6693 90.1513 53.6441 89.499 53.5685C87.6924 53.3921 85.9611 53.0142 84.255 52.4347C83.4019 52.1575 82.4484 52.0315 81.5201 52.1071C78.9357 52.2835 76.3263 52.0315 73.767 51.8047C70.7812 51.5276 67.6699 51.2504 64.659 51.6536C63.3292 51.8299 62.2503 51.9055 61.1965 51.8803C58.7627 51.8047 56.3038 51.9307 53.9201 52.0567C53.2427 52.0819 52.5903 52.1323 51.938 52.1575C51.7874 52.0063 51.6369 51.8551 51.4863 51.7291C52.2892 51.7039 53.0671 51.6536 53.8951 51.6284C56.2787 51.5024 58.7376 51.3764 61.2216 51.452C62.2252 51.4772 63.279 51.4016 64.5587 51.2504C67.6448 50.8221 70.8063 51.1244 73.8423 51.4016C76.3514 51.6284 78.9608 51.8803 81.4699 51.7039C82.4986 51.6284 83.5273 51.7543 84.4808 52.0819C86.8644 52.8378 89.3735 53.241 92.0331 53.241Z" fill="white"/>
<path d="M91.8073 53.4172C91.707 53.518 91.6066 53.5936 91.5063 53.6692C91.4059 53.7448 91.3055 53.8455 91.2052 53.9211C88.3197 54.1227 85.359 54.1731 82.3983 53.6188C80.391 53.644 78.2583 53.6944 76.2008 53.77C72.0107 53.8959 67.6699 54.0219 63.4547 53.7196C62.8274 53.6692 62.1751 53.7448 61.5227 53.8959C59.3398 54.4503 57.2071 54.677 55.0743 54.7274C54.8736 54.5763 54.6729 54.4251 54.4722 54.2739C56.7303 54.2739 59.0387 54.0471 61.3471 53.4676C62.0747 53.2912 62.8023 53.2156 63.5049 53.266C67.695 53.5684 72.0107 53.4424 76.1758 53.3164C78.2332 53.266 80.3659 53.1904 82.4736 53.1904C84.8572 53.644 87.1906 53.6944 89.499 53.5936C90.2517 53.518 91.0295 53.4928 91.8073 53.4172Z" fill="white"/>
<path d="M88.9469 55.5337C88.7211 55.6849 88.4702 55.8361 88.2444 55.9872C87.1404 55.962 86.0113 55.9368 84.9073 55.8613C83.979 55.7857 83.0004 55.5841 81.9466 55.2313C79.0612 54.2739 76.2008 54.929 73.1648 55.6597C71.2328 56.1132 69.2506 56.592 67.2935 56.592C65.8634 56.592 64.4081 56.34 62.9779 55.6597C60.7197 55.1054 58.4114 55.1809 56.1281 55.4329C55.9274 55.3069 55.7267 55.1809 55.551 55.0298C58.0601 54.7274 60.6445 54.6014 63.2037 55.2313C66.4655 56.7683 69.6521 56.0124 73.0143 55.2061C76.0001 54.5006 79.1113 53.7699 82.1724 54.803C83.176 55.1306 84.0793 55.3321 84.9575 55.3825C86.2873 55.4833 87.6171 55.5337 88.9469 55.5337Z" fill="white"/>
<path d="M85.6599 57.3986C85.409 57.5246 85.133 57.6506 84.857 57.7766C84.305 57.701 83.7781 57.6254 83.2763 57.5246C82.8246 57.449 82.3981 57.3986 81.9465 57.449C78.4588 57.701 74.921 57.575 71.4836 57.4742C68.824 57.3986 66.064 57.2978 63.3792 57.3734C62.9527 57.3986 62.476 57.449 61.924 57.5498C61.3971 57.6506 60.8952 57.7262 60.3683 57.8018C60.0923 57.6758 59.8414 57.5498 59.5654 57.4238C60.2931 57.3482 61.0458 57.2474 61.7734 57.0962C62.3756 56.9703 62.8774 56.9199 63.3541 56.9199C66.064 56.8443 68.824 56.9199 71.5087 57.0207C74.921 57.1466 78.4588 57.2474 81.8963 57.0207C82.3981 56.9703 82.8999 57.0207 83.4017 57.1214C84.1043 57.197 84.857 57.323 85.6599 57.3986Z" fill="white"/>
<path d="M79.9142 59.4898C79.3622 59.6158 78.8102 59.7417 78.2582 59.8677C77.5807 59.8173 76.9032 59.7417 76.2509 59.641L75.2723 59.4646C72.136 58.9354 68.8993 58.4063 65.7629 59.1622C65.4618 59.2378 65.1356 59.3134 64.8346 59.3638C64.5084 59.2882 64.2073 59.1874 63.8811 59.0866C64.4331 58.9858 64.9851 58.8599 65.5873 58.7087C68.8742 57.9276 72.1862 58.4819 75.3978 59.011L76.3763 59.1622C77.5054 59.3638 78.6847 59.4646 79.9142 59.4898Z" fill="white"/>
<path d="M102.672 30.1858H42.5288C42.5288 13.5055 56.0026 0 72.5876 0C89.1978 0 102.672 13.5055 102.672 30.1858Z" fill="white"/>
<path d="M5.19375 85.8959C4.31557 85.8959 3.43739 85.7699 2.53412 85.4927C1.65594 85.2156 0.802851 84.8124 -0.0251465 84.2329V81.2345H1.02867L1.17921 83.6534C1.80649 84.0565 2.45885 84.3337 3.11121 84.5353C3.78866 84.7368 4.46611 84.8124 5.14357 84.8124C5.94647 84.8124 6.67411 84.6864 7.27629 84.4345C7.87847 84.1825 8.35519 83.8297 8.68138 83.3762C9.00756 82.9227 9.18319 82.3935 9.18319 81.814C9.18319 81.2345 9.05774 80.7557 8.78174 80.3274C8.50574 79.899 8.0792 79.5211 7.45193 79.1935C6.84974 78.866 6.02175 78.5636 4.96793 78.2864C3.83884 77.9841 2.93557 77.6565 2.20794 77.2534C1.5054 76.8502 0.978487 76.3967 0.627215 75.8424C0.301034 75.288 0.125399 74.6329 0.125399 73.877C0.125399 73.0959 0.326125 72.4156 0.75267 71.8361C1.15412 71.2313 1.73121 70.7778 2.48394 70.4502C3.21157 70.1227 4.08975 69.9463 5.0683 69.9463C6.09702 69.9463 7.02538 70.0975 7.85338 70.425C8.68138 70.7274 9.35883 71.1305 9.93592 71.6345V74.4061H8.8821L8.73156 72.214C8.27992 71.8612 7.75302 71.5589 7.15084 71.3573C6.54865 71.1557 5.84611 71.0549 5.0683 71.0549C4.31557 71.0549 3.66321 71.1809 3.11121 71.4329C2.55921 71.6849 2.15776 72.0124 1.85667 72.4408C1.55558 72.8691 1.40503 73.3479 1.40503 73.9022C1.40503 74.4313 1.53049 74.8849 1.7563 75.2628C1.98212 75.666 2.38357 75.9935 2.96066 76.2959C3.53775 76.5983 4.34066 76.8754 5.36938 77.1526C7.05047 77.5809 8.30501 78.1605 9.1581 78.9164C10.0112 79.6471 10.4377 80.6046 10.4377 81.814C10.4377 82.6455 10.2119 83.351 9.76028 83.9809C9.30865 84.5857 8.68138 85.0644 7.87847 85.4172C7.17593 85.7447 6.24756 85.8959 5.19375 85.8959Z" fill="white"/>
<path d="M23.4347 85.8962C22.4561 85.8962 21.578 85.7198 20.775 85.3419C19.9721 84.9639 19.2947 84.4348 18.7427 83.7293C18.1656 83.0237 17.7391 82.1923 17.438 81.2348C17.1369 80.2773 16.9863 79.1938 16.9863 78.0096V77.808C16.9863 76.6237 17.1369 75.5655 17.438 74.5828C17.7391 73.6253 18.1656 72.7938 18.7427 72.0883C19.3198 71.3828 19.9972 70.8537 20.775 70.4757C21.578 70.0978 22.4561 69.9214 23.4347 69.9214C24.4383 69.9214 25.3416 70.0978 26.1194 70.4757C26.9223 70.8537 27.5998 71.3828 28.1518 72.0883C28.7038 72.7938 29.1303 73.6253 29.4314 74.5828C29.7325 75.5403 29.883 76.6237 29.883 77.808V78.0096C29.883 79.1938 29.7325 80.2521 29.4314 81.2348C29.1303 82.1923 28.7038 83.0237 28.1518 83.7293C27.5998 84.4348 26.9223 84.9639 26.1194 85.3419C25.3165 85.7198 24.4132 85.8962 23.4347 85.8962ZM23.4347 84.7875C24.5638 84.7875 25.4921 84.5104 26.2699 83.956C27.0478 83.4017 27.6248 82.5954 28.0263 81.5875C28.4278 80.5797 28.6285 79.3954 28.6285 78.0348V77.808C28.6285 76.4474 28.4278 75.2883 28.0263 74.2804C27.6248 73.2726 27.0478 72.4915 26.2699 71.9119C25.4921 71.3576 24.5638 71.0552 23.4347 71.0552C22.3558 71.0552 21.4525 71.3324 20.6747 71.9119C19.8969 72.4663 19.3198 73.2726 18.8932 74.2804C18.4667 75.2883 18.266 76.4726 18.266 77.808V78.0348C18.266 79.3954 18.4667 80.5797 18.8932 81.5875C19.3198 82.5954 19.8969 83.4017 20.6747 83.956C21.4274 84.5104 22.3558 84.7875 23.4347 84.7875Z" fill="white"/>
<path d="M36.1809 85.6694V84.7371L37.9122 84.6111V71.2316L36.1809 71.1056V70.1733H47.6223V73.5749H46.5434L46.4431 71.2316H39.1918V77.3292H45.4896V78.4127H39.1918V84.6363L40.9231 84.7623V85.6946H36.1809V85.6694Z" fill="white"/>
<path d="M60.4689 85.896C59.0638 85.896 57.8343 85.5684 56.8056 84.8881C55.7769 84.233 54.974 83.3007 54.422 82.1165C53.87 80.9322 53.594 79.5716 53.594 78.0094V77.6566C53.594 76.1196 53.87 74.7842 54.4471 73.5999C55.0242 72.4409 55.802 71.5338 56.8056 70.8787C57.8093 70.2236 58.9383 69.896 60.1929 69.896C61.322 69.896 62.3005 70.0472 63.1034 70.3243C63.9063 70.6015 64.6089 71.0047 65.2111 71.4834V74.381H64.1071L64.0067 72.0629C63.5551 71.7354 63.0532 71.4834 62.4511 71.307C61.874 71.1306 61.1463 71.0299 60.2682 71.0299C59.2394 71.0299 58.3111 71.307 57.5082 71.8614C56.6802 72.4157 56.0529 73.1968 55.5762 74.1795C55.0994 75.1621 54.8485 76.3212 54.8485 77.6314V77.9842C54.8485 79.3196 55.0744 80.5039 55.5009 81.5369C55.9525 82.5448 56.5798 83.3511 57.4078 83.9306C58.2358 84.5102 59.2394 84.7873 60.4187 84.7873C61.2467 84.7873 61.9994 84.6865 62.6267 84.5102C63.254 84.3338 63.806 84.107 64.2827 83.8551V79.748L61.0962 79.6976V78.6645H65.5372V84.359C64.9852 84.7621 64.2827 85.1149 63.4547 85.4425C62.702 85.7448 61.6732 85.896 60.4689 85.896Z" fill="white"/>
<path d="M72.3118 85.6943V84.762L74.043 84.636V71.2565L72.3118 71.1305V70.1982H78.8354C79.9394 70.1982 80.8677 70.3494 81.6456 70.677C82.3983 71.0045 83.0005 71.4833 83.4019 72.1132C83.8034 72.7431 84.0041 73.499 84.0041 74.4313C84.0041 75.3132 83.8034 76.0691 83.3768 76.6738C82.9754 77.2786 82.3732 77.7573 81.6456 78.0597C80.8928 78.3872 80.0147 78.5384 79.011 78.5384L75.3478 78.5636V84.6108L77.079 84.7368V85.6691H72.3118V85.6943ZM75.3227 77.5053H78.7099C80.0899 77.5053 81.0936 77.2282 81.7459 76.6486C82.3983 76.0691 82.7245 75.3384 82.7245 74.4061C82.7245 73.3982 82.3983 72.6171 81.7459 72.088C81.0936 71.5337 80.1401 71.2565 78.8354 71.2565H75.3227V77.5053ZM82.6994 85.6943L79.3874 77.9841H80.667L83.6277 84.6612L84.8823 84.7368V85.6943H82.6994Z" fill="white"/>
<path d="M91.1047 85.6692V84.7369L92.2338 84.6613L97.7287 70.1479H98.9331L104.378 84.6613L105.507 84.7369V85.6692H101.693V84.7369L103.048 84.6361L101.768 81.1338H94.8433L93.5385 84.6361L94.8935 84.7369V85.6692H91.1047ZM95.2447 80.0251H101.367L98.5818 72.3905L98.3811 71.7605H98.3058L98.08 72.3905L95.2447 80.0251Z" fill="white"/>
<path d="M111.529 85.6694V84.7371L113.26 84.6111V71.2316L111.529 71.1056V70.1733H113.26H114.54L123.372 83.5277L123.447 83.5025V71.2568L121.64 71.1308V70.1985H124.651H126.383V71.1308L124.651 71.2568V85.6694H123.447L114.515 72.2647L114.439 72.2899V84.6111L116.246 84.7371V85.6694H111.529Z" fill="white"/>
<path d="M132.329 85.6694V84.7371L134.06 84.6111V71.2316L132.329 71.1056V70.1733H134.06H138.301C139.605 70.1733 140.785 70.5009 141.763 71.156C142.767 71.8111 143.545 72.7182 144.122 73.8521C144.699 75.0111 144.975 76.3214 144.975 77.7828V78.0348C144.975 79.4962 144.699 80.8064 144.147 81.9655C143.595 83.1245 142.817 84.0064 141.813 84.6867C140.81 85.3418 139.656 85.6694 138.351 85.6694H132.329ZM135.34 84.6111H138.301C139.38 84.6111 140.308 84.334 141.136 83.7544C141.939 83.1749 142.566 82.3938 143.043 81.4111C143.495 80.4285 143.72 79.2946 143.72 78.06V77.7828C143.72 76.5229 143.495 75.4143 143.043 74.4316C142.591 73.4489 141.964 72.6678 141.136 72.1135C140.333 71.534 139.38 71.2568 138.301 71.2568H135.34V84.6111Z" fill="white"/>
<path d="M91.7322 94.1858C91.7322 93.9338 91.7824 93.707 91.8827 93.4802C91.9831 93.2535 92.1085 93.0771 92.2591 92.9007C92.4347 92.7495 92.6104 92.5984 92.8362 92.5228C93.062 92.422 93.2878 92.3716 93.5387 92.3716C93.7896 92.3716 94.0154 92.422 94.2413 92.5228C94.4671 92.6236 94.6427 92.7495 94.8183 92.9007C94.9689 93.0519 95.1194 93.2535 95.1947 93.4802C95.2951 93.707 95.3453 93.9338 95.3453 94.1858V94.2109V95.7228C95.3453 95.7984 95.3202 95.8487 95.27 95.8991C95.2198 95.9495 95.1696 95.9747 95.0943 95.9747C95.0191 95.9747 94.9689 95.9495 94.9187 95.8991C94.8685 95.8487 94.8434 95.7984 94.8434 95.7228V95.4204C94.6678 95.5968 94.4922 95.748 94.2664 95.8487C94.0405 95.9495 93.8147 96.0251 93.5387 96.0251C93.2878 96.0251 93.062 95.9747 92.8362 95.8739C92.6104 95.7732 92.4347 95.6472 92.2591 95.496C92.0835 95.3196 91.958 95.1432 91.8827 94.9165C91.7824 94.6645 91.7322 94.4377 91.7322 94.1858ZM92.234 94.1858C92.234 94.3621 92.2591 94.5385 92.3344 94.6897C92.4096 94.8409 92.4849 94.9921 92.6104 95.118C92.7358 95.244 92.8613 95.3448 93.0369 95.3952C93.1874 95.4708 93.3631 95.496 93.5387 95.496C93.7143 95.496 93.89 95.4708 94.0656 95.3952C94.2162 95.3196 94.3667 95.2188 94.4922 95.118C94.6176 94.9921 94.6929 94.8661 94.7682 94.6897C94.8434 94.5385 94.8685 94.3621 94.8685 94.1858C94.8685 94.0094 94.8434 93.833 94.7682 93.6818C94.6929 93.5306 94.6176 93.3795 94.4922 93.2535C94.3667 93.1275 94.2413 93.0267 94.0656 92.9763C93.9151 92.9007 93.7394 92.8755 93.5638 92.8755C93.3882 92.8755 93.2125 92.9007 93.062 92.9763C92.9114 93.0519 92.7609 93.1275 92.6354 93.2535C92.51 93.3795 92.4347 93.5054 92.3594 93.6818C92.2591 93.833 92.234 94.0094 92.234 94.1858Z" fill="white"/>
<path d="M98.7577 95.7226C98.7577 95.7982 98.7326 95.8486 98.6824 95.899C98.6322 95.9494 98.5821 95.9746 98.5068 95.9746H98.4817C98.3061 95.9746 98.1555 95.9494 98.005 95.8738C97.8544 95.8234 97.729 95.7226 97.6286 95.6219C97.5283 95.5211 97.4279 95.3699 97.3777 95.2187C97.3275 95.0675 97.2773 94.8911 97.2773 94.7148V91.3384C97.2773 91.2628 97.3024 91.2124 97.3526 91.162C97.4028 91.1116 97.453 91.0864 97.5283 91.0864C97.6035 91.0864 97.6537 91.1116 97.7039 91.162C97.7541 91.2124 97.7792 91.2628 97.7792 91.3384V94.7148C97.7792 94.9415 97.8544 95.1431 97.9799 95.2691C98.1053 95.3951 98.281 95.4707 98.4817 95.4707H98.5068C98.5821 95.4707 98.6322 95.4959 98.6824 95.5463C98.7326 95.5967 98.7577 95.6471 98.7577 95.7226Z" fill="white"/>
<path d="M101.919 95.7226C101.919 95.7982 101.894 95.8486 101.844 95.899C101.794 95.9494 101.743 95.9746 101.668 95.9746H101.643C101.467 95.9746 101.317 95.9494 101.166 95.8738C101.016 95.8234 100.89 95.7226 100.79 95.6219C100.69 95.5211 100.589 95.3699 100.539 95.2187C100.489 95.0675 100.439 94.8911 100.439 94.7148V91.3384C100.439 91.2628 100.464 91.2124 100.514 91.162C100.564 91.1116 100.614 91.0864 100.69 91.0864C100.765 91.0864 100.815 91.1116 100.865 91.162C100.915 91.2124 100.941 91.2628 100.941 91.3384V94.7148C100.941 94.9415 101.016 95.1431 101.141 95.2691C101.267 95.3951 101.442 95.4707 101.643 95.4707H101.668C101.743 95.4707 101.794 95.4959 101.844 95.5463C101.894 95.5967 101.919 95.6471 101.919 95.7226Z" fill="white"/>
<path d="M109.321 91.6407C109.321 91.5652 109.346 91.4896 109.396 91.414C109.446 91.3636 109.522 91.3384 109.597 91.3384C109.672 91.3384 109.747 91.3636 109.798 91.414C109.848 91.4644 109.873 91.54 109.873 91.6407C109.873 91.7163 109.848 91.7919 109.798 91.8423C109.747 91.8927 109.672 91.9179 109.597 91.9179C109.547 91.9179 109.522 91.9179 109.471 91.8927C109.446 91.8675 109.396 91.8423 109.371 91.8171C109.346 91.7919 109.321 91.7667 109.321 91.7163C109.321 91.7163 109.321 91.6911 109.321 91.6407ZM109.873 95.6974C109.873 95.773 109.848 95.8234 109.798 95.8738C109.747 95.9242 109.697 95.9494 109.622 95.9494C109.547 95.9494 109.496 95.9242 109.446 95.8738C109.396 95.8234 109.371 95.773 109.371 95.6974V92.6738C109.371 92.5982 109.396 92.5478 109.446 92.4974C109.496 92.447 109.547 92.4218 109.622 92.4218C109.697 92.4218 109.747 92.447 109.798 92.4974C109.848 92.5478 109.873 92.5982 109.873 92.6738V95.6974Z" fill="white"/>
<path d="M112.357 94.1102V95.6976C112.357 95.7732 112.332 95.8235 112.282 95.8739C112.231 95.9243 112.181 95.9495 112.106 95.9495C112.031 95.9495 111.98 95.9243 111.93 95.8739C111.88 95.8235 111.855 95.7732 111.855 95.6976V94.1102C111.855 93.8582 111.905 93.6566 111.98 93.4298C112.056 93.2283 112.181 93.0267 112.332 92.8755C112.482 92.7243 112.658 92.5984 112.859 92.4976C113.059 92.3968 113.285 92.3716 113.536 92.3716C113.762 92.3716 113.988 92.422 114.188 92.4976C114.389 92.5984 114.565 92.6991 114.715 92.8755C114.866 93.0519 114.966 93.2283 115.067 93.4298C115.142 93.6314 115.192 93.8582 115.192 94.1102V94.1354V95.7228C115.192 95.7984 115.167 95.8487 115.117 95.8991C115.067 95.9495 115.016 95.9747 114.941 95.9747C114.866 95.9747 114.816 95.9495 114.766 95.8991C114.715 95.8487 114.69 95.7984 114.69 95.7228V94.1354C114.69 94.1102 114.69 94.1102 114.69 94.085C114.69 93.9086 114.665 93.7574 114.59 93.6062C114.54 93.455 114.439 93.3291 114.339 93.2283C114.239 93.1275 114.113 93.0267 113.988 92.9763C113.837 92.9007 113.687 92.8755 113.536 92.8755C113.36 92.8755 113.21 92.9007 113.059 92.9763C112.909 93.0519 112.783 93.1275 112.683 93.2283C112.583 93.3291 112.482 93.455 112.432 93.6062C112.382 93.7574 112.357 93.9338 112.357 94.1102Z" fill="white"/>
<path d="M117.375 94.1855C117.375 94.2107 117.375 94.2107 117.375 94.2107C117.375 94.387 117.4 94.5382 117.475 94.6894C117.551 94.8406 117.626 94.9918 117.751 95.1177C117.877 95.2437 118.002 95.3445 118.153 95.4201C118.303 95.4957 118.479 95.5209 118.655 95.5461C118.83 95.5461 118.981 95.5209 119.131 95.4705C119.282 95.4201 119.407 95.3445 119.533 95.2185C119.558 95.1933 119.583 95.1681 119.608 95.1681C119.633 95.1429 119.658 95.1429 119.709 95.1177C119.734 95.1177 119.784 95.1177 119.809 95.1177C119.834 95.1177 119.884 95.1429 119.934 95.1933C119.985 95.2437 120.01 95.2941 120.01 95.3697C120.01 95.4453 119.985 95.4957 119.909 95.5713C119.834 95.6469 119.759 95.7225 119.658 95.7729C119.558 95.8233 119.458 95.8737 119.357 95.924C119.257 95.9744 119.131 95.9996 119.031 96.0248C118.906 96.05 118.805 96.05 118.68 96.05C118.429 96.05 118.203 95.9996 117.977 95.8988C117.751 95.7981 117.576 95.6721 117.4 95.5209C117.25 95.3697 117.099 95.1681 117.024 94.9414C116.923 94.7146 116.873 94.4878 116.873 94.2359V94.2107C116.873 93.9587 116.923 93.7319 117.024 93.5051C117.124 93.2784 117.25 93.102 117.4 92.9256C117.551 92.7744 117.751 92.6232 117.977 92.5477C118.203 92.4721 118.429 92.3965 118.68 92.3965C118.906 92.3965 119.131 92.4469 119.357 92.5225C119.583 92.5981 119.759 92.724 119.909 92.8752C119.959 92.9256 119.985 93.0012 120.01 93.0768C120.01 93.1524 119.985 93.2028 119.934 93.2532C119.884 93.2784 119.859 93.3036 119.834 93.3288C119.809 93.3288 119.759 93.3288 119.734 93.3288C119.709 93.3288 119.658 93.3036 119.633 93.2784C119.608 93.2532 119.583 93.228 119.558 93.228C119.433 93.102 119.307 93.0264 119.157 92.976C119.006 92.9256 118.855 92.9004 118.68 92.9004C118.504 92.9004 118.354 92.9508 118.178 93.0012C118.027 93.0768 117.902 93.1776 117.777 93.2784C117.651 93.4044 117.576 93.5303 117.501 93.6815C117.425 93.8327 117.375 94.0091 117.375 94.1855Z" fill="white"/>
<path d="M123.297 95.7226C123.297 95.7982 123.271 95.8486 123.221 95.899C123.171 95.9494 123.121 95.9746 123.046 95.9746H123.021C122.845 95.9746 122.694 95.9494 122.544 95.8738C122.393 95.8234 122.268 95.7226 122.167 95.6219C122.067 95.5211 121.967 95.3699 121.917 95.2187C121.866 95.0675 121.816 94.8911 121.816 94.7148V91.3384C121.816 91.2628 121.841 91.2124 121.891 91.162C121.942 91.1116 121.992 91.0864 122.067 91.0864C122.142 91.0864 122.193 91.1116 122.243 91.162C122.293 91.2124 122.318 91.2628 122.318 91.3384V94.7148C122.318 94.9415 122.393 95.1431 122.519 95.2691C122.644 95.3951 122.82 95.4707 123.021 95.4707H123.046C123.121 95.4707 123.171 95.4959 123.221 95.5463C123.271 95.5967 123.297 95.6471 123.297 95.7226Z" fill="white"/>
<path d="M125.479 94.2614C125.479 94.4378 125.504 94.589 125.58 94.7402C125.63 94.8914 125.73 95.0173 125.831 95.1433C125.931 95.2693 126.056 95.3449 126.207 95.4205C126.358 95.4961 126.508 95.5213 126.684 95.5213C126.859 95.5213 127.01 95.4961 127.16 95.4205C127.311 95.3449 127.411 95.2693 127.512 95.1433C127.612 95.0173 127.687 94.8914 127.738 94.7402C127.788 94.589 127.813 94.4126 127.813 94.2614V92.6992C127.813 92.6236 127.838 92.5733 127.888 92.5229C127.938 92.4725 127.988 92.4473 128.064 92.4473C128.139 92.4473 128.189 92.4725 128.239 92.5229C128.29 92.5733 128.315 92.6236 128.315 92.6992V94.2866C128.315 94.5386 128.264 94.7654 128.189 94.967C128.114 95.1685 127.988 95.3701 127.863 95.5213C127.712 95.6725 127.537 95.7984 127.336 95.8992C127.135 96 126.91 96.0504 126.684 96.0504C126.433 96.0504 126.232 96 126.006 95.9244C125.806 95.8236 125.63 95.6977 125.479 95.5465C125.329 95.3953 125.203 95.1937 125.128 94.9921C125.053 94.7906 125.003 94.5638 125.003 94.3118V92.7244C125.003 92.6488 125.028 92.5984 125.078 92.5481C125.128 92.4977 125.178 92.4725 125.254 92.4725C125.329 92.4725 125.379 92.4977 125.429 92.5481C125.479 92.5984 125.505 92.6488 125.505 92.7244V94.2614H125.479Z" fill="white"/>
<path d="M131.15 94.3114C131.024 94.261 130.924 94.2358 130.799 94.1855C130.673 94.1351 130.573 94.0595 130.497 93.9839C130.397 93.9083 130.322 93.8327 130.272 93.7067C130.221 93.6059 130.196 93.4799 130.196 93.3288C130.196 93.1776 130.221 93.0264 130.297 92.9256C130.372 92.7996 130.447 92.6988 130.548 92.6233C130.648 92.5477 130.773 92.4721 130.924 92.4469C131.075 92.3965 131.225 92.3965 131.376 92.3965C131.476 92.3965 131.601 92.3965 131.702 92.4217C131.802 92.4469 131.903 92.4721 132.003 92.5225C132.103 92.5729 132.179 92.6232 132.254 92.6736C132.329 92.7492 132.379 92.7996 132.429 92.9004C132.455 92.9508 132.455 93.0012 132.455 93.0516C132.455 93.102 132.429 93.1524 132.404 93.1776C132.379 93.2028 132.329 93.228 132.279 93.2532C132.229 93.2532 132.179 93.2532 132.153 93.228C132.053 93.102 131.928 93.0264 131.827 92.976C131.702 92.9256 131.576 92.9004 131.401 92.9004C131.3 92.9004 131.225 92.9004 131.125 92.9256C131.049 92.9508 130.949 92.976 130.899 93.0012C130.824 93.0516 130.773 93.0768 130.748 93.1524C130.723 93.228 130.698 93.2784 130.698 93.3792C130.698 93.4548 130.723 93.5303 130.748 93.5807C130.799 93.6311 130.849 93.6815 130.899 93.7319C130.949 93.7823 131.049 93.8075 131.125 93.8327C131.225 93.8579 131.3 93.8831 131.401 93.9335C131.551 93.9839 131.727 94.0343 131.852 94.0847C132.003 94.1351 132.128 94.2107 132.229 94.2862C132.329 94.3618 132.429 94.4626 132.48 94.5886C132.555 94.6894 132.58 94.8406 132.58 94.9918C132.58 95.1429 132.555 95.2689 132.48 95.3949C132.404 95.5209 132.329 95.6217 132.229 95.7225C132.128 95.8233 131.978 95.8988 131.827 95.9492C131.677 95.9996 131.526 96.0248 131.351 96.0248C131.225 96.0248 131.1 95.9996 130.974 95.9744C130.849 95.9492 130.723 95.8988 130.623 95.8484C130.523 95.7981 130.422 95.7225 130.322 95.6469C130.221 95.5713 130.171 95.4705 130.096 95.3697C130.046 95.2941 130.046 95.2185 130.071 95.1681C130.096 95.1177 130.121 95.0674 130.171 95.0422C130.221 95.017 130.272 94.9918 130.347 95.017C130.422 95.017 130.472 95.0673 130.523 95.1177C130.598 95.2437 130.723 95.3445 130.849 95.4201C130.999 95.4957 131.175 95.5209 131.351 95.5209C131.451 95.5209 131.551 95.4957 131.627 95.4705C131.727 95.4453 131.802 95.3949 131.852 95.3445C131.928 95.2941 131.978 95.2437 132.003 95.1681C132.053 95.0925 132.053 95.017 132.053 94.9414C132.053 94.8658 132.028 94.7902 131.978 94.7146C131.928 94.639 131.852 94.5886 131.752 94.5382C131.652 94.4878 131.551 94.4374 131.451 94.387C131.376 94.387 131.25 94.3366 131.15 94.3114Z" fill="white"/>
<path d="M134.462 91.6407C134.462 91.5652 134.487 91.4896 134.537 91.414C134.587 91.3636 134.663 91.3384 134.738 91.3384C134.813 91.3384 134.888 91.3636 134.939 91.414C134.989 91.4644 135.014 91.54 135.014 91.6407C135.014 91.7163 134.989 91.7919 134.939 91.8423C134.888 91.8927 134.813 91.9179 134.738 91.9179C134.688 91.9179 134.663 91.9179 134.612 91.8927C134.587 91.8675 134.537 91.8423 134.512 91.8171C134.487 91.7919 134.462 91.7667 134.462 91.7163C134.462 91.7163 134.462 91.6911 134.462 91.6407ZM134.989 95.6974C134.989 95.773 134.964 95.8234 134.914 95.8738C134.863 95.9242 134.813 95.9494 134.738 95.9494C134.663 95.9494 134.612 95.9242 134.562 95.8738C134.512 95.8234 134.487 95.773 134.487 95.6974V92.6738C134.487 92.5982 134.512 92.5478 134.562 92.4974C134.612 92.447 134.663 92.4218 134.738 92.4218C134.813 92.4218 134.863 92.447 134.914 92.4974C134.964 92.5478 134.989 92.5982 134.989 92.6738V95.6974Z" fill="white"/>
<path d="M138.276 95.1681L139.455 92.598C139.48 92.5224 139.53 92.4972 139.58 92.472C139.631 92.4468 139.706 92.4468 139.781 92.472C139.856 92.4972 139.882 92.5476 139.907 92.598C139.932 92.6736 139.932 92.724 139.907 92.7996L138.527 95.8232C138.502 95.8736 138.476 95.924 138.426 95.9492C138.376 95.9744 138.351 95.9996 138.301 95.9996C138.251 95.9996 138.2 95.9744 138.15 95.9492C138.1 95.924 138.075 95.8736 138.05 95.8232L136.67 92.7996C136.645 92.724 136.645 92.6736 136.67 92.598C136.695 92.5224 136.745 92.4972 136.795 92.472C136.871 92.4468 136.921 92.4468 136.996 92.472C137.071 92.4972 137.096 92.5476 137.122 92.598L138.276 95.1681Z" fill="white"/>
<path d="M141.813 94.4125C141.839 94.5637 141.889 94.7149 141.964 94.8409C142.039 94.9669 142.14 95.0928 142.24 95.1936C142.34 95.2944 142.491 95.37 142.616 95.4204C142.767 95.4708 142.917 95.496 143.068 95.496C143.244 95.496 143.419 95.4708 143.595 95.3952C143.771 95.3196 143.896 95.2188 143.996 95.0928C144.072 95.0172 144.172 95.0173 144.247 95.0424C144.297 95.0676 144.323 95.0928 144.373 95.1432C144.398 95.1936 144.423 95.244 144.423 95.2944C144.423 95.37 144.398 95.4204 144.323 95.4708C144.197 95.622 144.021 95.748 143.796 95.8487C143.595 95.9495 143.344 95.9999 143.068 95.9999C142.817 95.9999 142.591 95.9495 142.365 95.8487C142.14 95.748 141.964 95.622 141.788 95.4708C141.613 95.2944 141.487 95.118 141.412 94.8913C141.312 94.6645 141.261 94.4377 141.261 94.1858C141.261 93.9338 141.312 93.707 141.412 93.4802C141.512 93.2535 141.638 93.0771 141.788 92.9007C141.964 92.7243 142.14 92.5984 142.365 92.5228C142.591 92.422 142.817 92.3716 143.068 92.3716C143.319 92.3716 143.545 92.422 143.771 92.5228C143.996 92.6236 144.172 92.7495 144.348 92.9007C144.498 93.0519 144.649 93.2535 144.724 93.4802C144.824 93.707 144.875 93.9338 144.875 94.1858C144.875 94.2613 144.849 94.3117 144.799 94.3621C144.749 94.4125 144.699 94.4377 144.624 94.4377H141.813V94.4125ZM144.373 94.0094C144.348 93.8582 144.297 93.707 144.247 93.5558C144.172 93.4298 144.072 93.3039 143.971 93.2031C143.846 93.1023 143.72 93.0267 143.57 92.9763C143.419 92.9259 143.269 92.9007 143.093 92.9007C142.917 92.9007 142.767 92.9259 142.616 92.9763C142.466 93.0267 142.34 93.1023 142.215 93.2031C142.089 93.3039 142.014 93.4298 141.939 93.5558C141.864 93.6818 141.813 93.833 141.813 94.0094H144.373Z" fill="white"/>
</g>
<defs>
<clipPath id="clip0_2214_624">
<rect width="145" height="96" fill="white"/>
</clipPath>
</defs>
</svg>
