<svg width="116" height="36" viewBox="0 0 116 36" fill="none" xmlns="http://www.w3.org/2000/svg">
<g opacity="0.6">
<g clip-path="url(#clip0_2205_941)">
<path d="M48.5956 2.48982L47.4475 3.40138C47.3786 3.45594 47.3482 3.5446 47.3692 3.6287L47.7164 5.00741C47.7679 5.23132 47.5925 5.41659 47.3961 5.41659C47.3376 5.41659 47.2757 5.39954 47.2184 5.36317L45.9628 4.61301C45.888 4.56868 45.7945 4.56868 45.7196 4.61414L44.4792 5.3643C44.422 5.40181 44.36 5.41772 44.3004 5.41772C44.0993 5.41772 43.9181 5.23246 43.9812 5.00854L44.3284 3.6287C44.3495 3.5446 44.3191 3.45708 44.2513 3.40252L43.1184 2.4921C42.8858 2.29887 43.0191 1.9272 43.3172 1.91129L44.7844 1.80786C44.8721 1.80218 44.948 1.74762 44.9808 1.66919L45.5419 0.343909C45.6004 0.20638 45.729 0.138184 45.8576 0.138184C45.9862 0.138184 46.1148 0.20638 46.1732 0.343909L46.7332 1.66806C46.766 1.74648 46.8431 1.7999 46.9296 1.80672L48.3968 1.91015C48.6961 1.92607 48.8282 2.2966 48.5956 2.48982Z" fill="white"/>
</g>
<g clip-path="url(#clip1_2205_941)">
<path d="M56.6908 2.48982L55.5428 3.40138C55.4738 3.45594 55.4434 3.5446 55.4644 3.6287L55.8116 5.00741C55.8631 5.23132 55.6877 5.41659 55.4913 5.41659C55.4329 5.41659 55.3709 5.39954 55.3136 5.36317L54.058 4.61301C53.9832 4.56868 53.8897 4.56868 53.8148 4.61414L52.5745 5.3643C52.5172 5.40181 52.4552 5.41772 52.3956 5.41772C52.1945 5.41772 52.0133 5.23246 52.0764 5.00854L52.4236 3.6287C52.4447 3.5446 52.4143 3.45708 52.3465 3.40252L51.2136 2.4921C50.981 2.29887 51.1143 1.9272 51.4124 1.91129L52.8796 1.80786C52.9673 1.80218 53.0433 1.74762 53.076 1.66919L53.6371 0.343909C53.6956 0.20638 53.8242 0.138184 53.9528 0.138184C54.0814 0.138184 54.21 0.20638 54.2685 0.343909L54.8284 1.66806C54.8612 1.74648 54.9383 1.7999 55.0248 1.80672L56.492 1.91015C56.7913 1.92607 56.9234 2.2966 56.6908 2.48982Z" fill="white"/>
</g>
<g clip-path="url(#clip2_2205_941)">
<path d="M64.786 2.48982L63.638 3.40138C63.569 3.45594 63.5386 3.5446 63.5596 3.6287L63.9069 5.00741C63.9583 5.23132 63.7829 5.41659 63.5865 5.41659C63.5281 5.41659 63.4661 5.39954 63.4088 5.36317L62.1532 4.61301C62.0784 4.56868 61.9849 4.56868 61.9101 4.61414L60.6697 5.3643C60.6124 5.40181 60.5504 5.41772 60.4908 5.41772C60.2897 5.41772 60.1085 5.23246 60.1716 5.00854L60.5189 3.6287C60.5399 3.5446 60.5095 3.45708 60.4417 3.40252L59.3089 2.4921C59.0762 2.29887 59.2095 1.9272 59.5076 1.91129L60.9748 1.80786C61.0625 1.80218 61.1385 1.74762 61.1712 1.66919L61.7324 0.343909C61.7908 0.20638 61.9194 0.138184 62.048 0.138184C62.1766 0.138184 62.3052 0.20638 62.3637 0.343909L62.9237 1.66806C62.9564 1.74648 63.0336 1.7999 63.1201 1.80672L64.5873 1.91015C64.8865 1.92607 65.0187 2.2966 64.786 2.48982Z" fill="white"/>
</g>
<g clip-path="url(#clip3_2205_941)">
<path d="M72.8812 2.48982L71.7332 3.40138C71.6642 3.45594 71.6338 3.5446 71.6549 3.6287L72.0021 5.00741C72.0535 5.23132 71.8781 5.41659 71.6817 5.41659C71.6233 5.41659 71.5613 5.39954 71.504 5.36317L70.2484 4.61301C70.1736 4.56868 70.0801 4.56868 70.0053 4.61414L68.7649 5.3643C68.7076 5.40181 68.6456 5.41772 68.586 5.41772C68.3849 5.41772 68.2037 5.23246 68.2669 5.00854L68.6141 3.6287C68.6351 3.5446 68.6047 3.45708 68.5369 3.40252L67.4041 2.4921C67.1714 2.29887 67.3047 1.9272 67.6028 1.91129L69.07 1.80786C69.1577 1.80218 69.2337 1.74762 69.2664 1.66919L69.8276 0.343909C69.886 0.20638 70.0146 0.138184 70.1432 0.138184C70.2718 0.138184 70.4004 0.20638 70.4589 0.343909L71.0189 1.66806C71.0516 1.74648 71.1288 1.7999 71.2153 1.80672L72.6825 1.91015C72.9818 1.92607 73.1139 2.2966 72.8812 2.48982Z" fill="white"/>
</g>
</g>
<path d="M4.21215 23.9639C3.4515 23.9639 2.71945 23.8538 2.016 23.6336C1.31254 23.4133 0.640544 23.0746 0 22.6172V19.9831H1.31254L1.59564 21.9227C1.96739 22.1485 2.37058 22.3236 2.80524 22.4478C3.23989 22.572 3.70886 22.6341 4.21215 22.6341C4.78406 22.6341 5.26733 22.5494 5.66195 22.38C6.06229 22.205 6.36827 21.965 6.57987 21.6601C6.79148 21.3552 6.89729 20.9995 6.89729 20.593C6.89729 20.2146 6.80578 19.8815 6.62277 19.5935C6.43975 19.3056 6.13664 19.0543 5.71342 18.8397C5.29593 18.6195 4.72401 18.4276 3.99768 18.2638C3.13981 18.0662 2.41348 17.8036 1.81869 17.4761C1.22962 17.143 0.780663 16.7421 0.471829 16.2734C0.168715 15.7991 0.0171574 15.2571 0.0171574 14.6473C0.0171574 14.0036 0.188732 13.4277 0.53188 12.9195C0.880748 12.4113 1.36402 12.0104 1.98168 11.7168C2.59935 11.4232 3.31996 11.2764 4.14352 11.2764C5.01855 11.2764 5.79063 11.4091 6.45977 11.6744C7.13463 11.9342 7.68939 12.2504 8.12404 12.623V15.0877H6.8115L6.5284 13.326C6.27104 13.1227 5.95077 12.9534 5.56759 12.8178C5.1844 12.6823 4.70971 12.6146 4.14352 12.6146C3.66311 12.6146 3.23989 12.6993 2.87387 12.8687C2.50784 13.0324 2.22189 13.2639 2.016 13.5632C1.81011 13.8624 1.70716 14.2153 1.70716 14.6219C1.70716 14.9776 1.79867 15.2881 1.98168 15.5535C2.17041 15.8189 2.47353 16.0532 2.89103 16.2565C3.31424 16.4541 3.87758 16.6405 4.58103 16.8155C5.89644 17.1373 6.89157 17.6145 7.56643 18.2469C8.247 18.8736 8.58729 19.65 8.58729 20.576C8.58729 21.2366 8.40714 21.8239 8.04683 22.3377C7.68653 22.8459 7.17752 23.2439 6.51982 23.5319C5.86784 23.8199 5.09862 23.9639 4.21215 23.9639Z" fill="white"/>
<path d="M18.4882 23.9639C17.6818 23.9639 16.9583 23.8114 16.3177 23.5065C15.6772 23.2016 15.131 22.7725 14.6792 22.2191C14.2331 21.6601 13.89 20.9995 13.6498 20.2372C13.4153 19.475 13.298 18.6336 13.298 17.7133V17.5354C13.298 16.6207 13.4153 15.7822 13.6498 15.0199C13.89 14.252 14.2331 13.5886 14.6792 13.0296C15.131 12.4706 15.6772 12.0386 16.3177 11.7337C16.9583 11.4288 17.6818 11.2764 18.4882 11.2764C19.3403 11.2764 20.0895 11.4288 20.7358 11.7337C21.382 12.0386 21.9225 12.4706 22.3572 13.0296C22.7975 13.5886 23.1292 14.252 23.3523 15.0199C23.5753 15.7822 23.6869 16.6207 23.6869 17.5354V17.7133C23.6869 18.6336 23.5753 19.475 23.3523 20.2372C23.1292 20.9995 22.7975 21.6601 22.3572 22.2191C21.9225 22.7725 21.382 23.2016 20.7358 23.5065C20.0895 23.8114 19.3403 23.9639 18.4882 23.9639ZM18.4882 22.5748C19.3174 22.5748 19.9866 22.3716 20.4956 21.965C21.0103 21.5585 21.3878 20.991 21.628 20.2626C21.8682 19.5286 21.9883 18.6788 21.9883 17.7133V17.5185C21.9883 16.5586 21.8653 15.7173 21.6194 14.9945C21.3792 14.2661 21.0017 13.6987 20.487 13.2921C19.9723 12.8799 19.306 12.6739 18.4882 12.6739C17.739 12.6739 17.1041 12.8799 16.5837 13.2921C16.0632 13.7043 15.6686 14.2746 15.3998 15.003C15.131 15.7257 14.9966 16.5642 14.9966 17.5185V17.7133C14.9966 18.6732 15.131 19.5201 15.3998 20.2542C15.6686 20.9826 16.0632 21.5528 16.5837 21.965C17.1041 22.3716 17.739 22.5748 18.4882 22.5748Z" fill="white"/>
<path d="M28.329 23.786V22.7188L29.7273 22.4817V12.767L28.329 12.5299V11.4542H37.7227V14.4186H36.3672L36.1785 12.7501H31.4173V17.0188H35.9898V18.3316H31.4173V22.4817L32.8156 22.7188V23.786H28.329Z" fill="white"/>
<path d="M47.6493 23.9639C46.494 23.9639 45.4932 23.7013 44.6467 23.1762C43.8003 22.6454 43.1483 21.9114 42.6908 20.9741C42.2332 20.0368 42.0045 18.9527 42.0045 17.7218V17.5185C42.0045 16.2763 42.2332 15.1893 42.6908 14.2577C43.154 13.3204 43.786 12.5892 44.5867 12.064C45.3873 11.5389 46.2967 11.2764 47.3147 11.2764C48.287 11.2764 49.1105 11.3865 49.7854 11.6067C50.4659 11.8269 51.0464 12.1233 51.5268 12.496V14.9861H50.1371L49.9569 13.199C49.6767 13.0183 49.3336 12.8828 48.9275 12.7924C48.5214 12.6964 48.041 12.6484 47.4863 12.6484C46.7714 12.6484 46.128 12.8517 45.5561 13.2583C44.9841 13.6648 44.5323 14.2323 44.2006 14.9607C43.8689 15.6834 43.7031 16.5304 43.7031 17.5015V17.7218C43.7031 18.7042 43.8546 19.5625 44.1577 20.2965C44.4666 21.0249 44.9155 21.5924 45.5046 21.9989C46.0937 22.3998 46.8086 22.6003 47.6493 22.6003C48.2212 22.6003 48.7044 22.5523 49.0991 22.4563C49.4937 22.3546 49.8426 22.2248 50.1457 22.0667V19.1701L47.7522 19.0854V17.8573H51.8357V22.6341C51.4754 22.9673 50.9578 23.2722 50.2829 23.5489C49.6138 23.8255 48.7359 23.9639 47.6493 23.9639Z" fill="white"/>
<path d="M56.8982 23.786V22.7188L58.2965 22.4817V12.767L56.8982 12.5299V11.4627H62.4657C63.3751 11.4627 64.1414 11.5982 64.7648 11.8692C65.3939 12.1346 65.8715 12.5214 66.1975 13.0296C66.5235 13.5378 66.6865 14.1589 66.6865 14.8929C66.6865 15.6156 66.5263 16.2226 66.2061 16.7139C65.8915 17.2051 65.4426 17.5778 64.8592 17.8319C64.2758 18.0803 63.5838 18.213 62.7832 18.2299L59.9865 18.2807V22.4817L61.3848 22.7188V23.786H56.8982ZM65.1423 23.786L62.3628 17.6286L64.0528 17.6116L66.3605 22.541L67.2269 22.6934V23.786H65.1423ZM59.9865 16.968H62.2942C63.2378 16.968 63.9241 16.7901 64.3531 16.4344C64.782 16.0786 64.9965 15.5592 64.9965 14.876C64.9965 14.2266 64.7906 13.7128 64.3788 13.3345C63.967 12.9562 63.3293 12.767 62.4657 12.767H59.9865V16.968Z" fill="white"/>
<path d="M72.032 23.786V22.7188L72.9585 22.5918L77.3251 11.4542H78.7749L83.0643 22.5918L83.9822 22.7188V23.786H80.3963V22.7188L81.3399 22.5579L80.5164 20.288H75.515L74.6657 22.5579L75.6094 22.7188V23.786H72.032ZM76.0383 18.8906H80.0017L78.1658 13.8765L78.0629 13.597H78.0114L77.9085 13.8765L76.0383 18.8906Z" fill="white"/>
<path d="M88.6415 23.786V22.7188L90.0398 22.4817V12.767L88.6415 12.5299V11.4542H91.7469L97.8722 21.0673L97.9236 21.0503V12.767L96.388 12.5299V11.4542H100.875V12.5299L99.4764 12.767V23.786H97.9322L91.644 14.1222L91.5925 14.1391V22.4817L93.1281 22.7188V23.786H88.6415Z" fill="white"/>
<path d="M105.62 23.786V22.7188L107.018 22.4817V12.767L105.62 12.5299V11.4542H110.51C111.613 11.4542 112.574 11.714 113.392 12.2334C114.216 12.7529 114.856 13.4672 115.314 14.3763C115.771 15.2853 116 16.3243 116 17.4931V17.7556C116 18.8962 115.78 19.9239 115.339 20.8386C114.899 21.7476 114.273 22.4676 113.461 22.9983C112.654 23.5234 111.699 23.786 110.595 23.786H105.62ZM108.708 22.4817H110.51C111.299 22.4817 111.977 22.2699 112.543 21.8465C113.109 21.4173 113.544 20.847 113.847 20.1356C114.156 19.4185 114.31 18.6252 114.31 17.7556V17.4761C114.31 16.5784 114.156 15.7766 113.847 15.0708C113.544 14.3593 113.109 13.7975 112.543 13.3853C111.977 12.9731 111.299 12.767 110.51 12.767H108.708V22.4817Z" fill="white"/>
<path d="M29 33.9368C29 33.6637 29.0553 33.4179 29.166 33.1722C29.2767 32.9264 29.4151 32.7353 29.5812 32.5441C29.7749 32.3803 29.9686 32.2165 30.2176 32.1345C30.4667 32.0253 30.7158 31.9707 30.9925 31.9707C31.2692 31.9707 31.5183 32.0253 31.7674 32.1345C32.0164 32.2438 32.2102 32.3803 32.4039 32.5441C32.5699 32.708 32.736 32.9264 32.819 33.1722C32.9297 33.4179 32.985 33.6637 32.985 33.9368V33.9641V35.6024C32.985 35.6844 32.9574 35.739 32.902 35.7936C32.8467 35.8482 32.7913 35.8755 32.7083 35.8755C32.6253 35.8755 32.5699 35.8482 32.5146 35.7936C32.4592 35.739 32.4316 35.6844 32.4316 35.6024V35.2748C32.2378 35.4659 32.0441 35.6298 31.7951 35.739C31.546 35.8482 31.2969 35.9301 30.9925 35.9301C30.7158 35.9301 30.4667 35.8755 30.2176 35.7663C29.9686 35.6571 29.7749 35.5205 29.5812 35.3567C29.3874 35.1655 29.2491 34.9744 29.166 34.7286C29.0553 34.4556 29 34.2098 29 33.9368ZM29.5535 33.9368C29.5535 34.1279 29.5811 34.319 29.6642 34.4829C29.7472 34.6467 29.8302 34.8106 29.9686 34.9471C30.107 35.0836 30.2453 35.1929 30.439 35.2475C30.6051 35.3294 30.7988 35.3567 30.9925 35.3567C31.1862 35.3567 31.3799 35.3294 31.5737 35.2475C31.7397 35.1655 31.9057 35.0563 32.0441 34.9471C32.1825 34.8106 32.2655 34.674 32.3485 34.4829C32.4316 34.319 32.4592 34.1279 32.4592 33.9368C32.4592 33.7456 32.4316 33.5545 32.3485 33.3906C32.2655 33.2268 32.1825 33.063 32.0441 32.9264C31.9057 32.7899 31.7674 32.6807 31.5737 32.6261C31.4076 32.5441 31.2139 32.5168 31.0202 32.5168C30.8265 32.5168 30.6328 32.5441 30.4667 32.6261C30.3007 32.708 30.1346 32.7899 29.9963 32.9264C29.8579 33.063 29.7749 33.1995 29.6918 33.3906C29.5811 33.5545 29.5535 33.7456 29.5535 33.9368Z" fill="white"/>
<path d="M36.7485 35.6025C36.7485 35.6844 36.7208 35.739 36.6654 35.7936C36.6101 35.8483 36.5548 35.8756 36.4717 35.8756H36.4441C36.2503 35.8756 36.0843 35.8483 35.9183 35.7663C35.7522 35.7117 35.6138 35.6025 35.5032 35.4933C35.3925 35.384 35.2818 35.2202 35.2264 35.0564C35.1711 34.8925 35.1157 34.7014 35.1157 34.5102V30.8512C35.1157 30.7693 35.1434 30.7147 35.1987 30.66C35.2541 30.6054 35.3094 30.5781 35.3925 30.5781C35.4755 30.5781 35.5308 30.6054 35.5862 30.66C35.6415 30.7147 35.6692 30.7693 35.6692 30.8512V34.5102C35.6692 34.756 35.7522 34.9745 35.8906 35.111C36.029 35.2475 36.2227 35.3294 36.4441 35.3294H36.4717C36.5548 35.3294 36.6101 35.3567 36.6654 35.4114C36.7208 35.466 36.7485 35.5206 36.7485 35.6025Z" fill="white"/>
<path d="M40.2358 35.6025C40.2358 35.6844 40.2081 35.739 40.1528 35.7936C40.0974 35.8483 40.0421 35.8756 39.9591 35.8756H39.9314C39.7377 35.8756 39.5716 35.8483 39.4056 35.7663C39.2395 35.7117 39.1012 35.6025 38.9905 35.4933C38.8798 35.384 38.7691 35.2202 38.7137 35.0564C38.6584 34.8925 38.603 34.7014 38.603 34.5102V30.8512C38.603 30.7693 38.6307 30.7147 38.6861 30.66C38.7414 30.6054 38.7967 30.5781 38.8798 30.5781C38.9628 30.5781 39.0181 30.6054 39.0735 30.66C39.1288 30.7147 39.1565 30.7693 39.1565 30.8512V34.5102C39.1565 34.756 39.2395 34.9745 39.3779 35.111C39.5163 35.2475 39.71 35.3294 39.9314 35.3294H39.9591C40.0421 35.3294 40.0974 35.3567 40.1528 35.4114C40.2081 35.466 40.2358 35.5206 40.2358 35.6025Z" fill="white"/>
<path d="M48.3994 31.1783C48.3994 31.0963 48.4271 31.0144 48.4824 30.9325C48.5378 30.8779 48.6208 30.8506 48.7038 30.8506C48.7868 30.8506 48.8699 30.8779 48.9252 30.9325C48.9806 30.9871 49.0082 31.069 49.0082 31.1783C49.0082 31.2602 48.9806 31.3421 48.9252 31.3967C48.8699 31.4513 48.7868 31.4786 48.7038 31.4786C48.6485 31.4786 48.6208 31.4786 48.5655 31.4513C48.5378 31.424 48.4824 31.3967 48.4548 31.3694C48.4271 31.3421 48.3994 31.3148 48.3994 31.2602C48.3994 31.2602 48.3994 31.2329 48.3994 31.1783ZM49.0082 35.5746C49.0082 35.6565 48.9806 35.7111 48.9252 35.7657C48.8699 35.8203 48.8145 35.8476 48.7315 35.8476C48.6485 35.8476 48.5931 35.8203 48.5378 35.7657C48.4824 35.7111 48.4548 35.6565 48.4548 35.5746V32.2978C48.4548 32.2159 48.4824 32.1613 48.5378 32.1067C48.5931 32.0521 48.6485 32.0248 48.7315 32.0248C48.8145 32.0248 48.8699 32.0521 48.9252 32.1067C48.9806 32.1613 49.0082 32.2159 49.0082 32.2978V35.5746Z" fill="white"/>
<path d="M51.7478 33.8548V35.5751C51.7478 35.6571 51.7201 35.7117 51.6648 35.7663C51.6094 35.8209 51.5541 35.8482 51.4711 35.8482C51.3881 35.8482 51.3327 35.8209 51.2774 35.7663C51.222 35.7117 51.1943 35.6571 51.1943 35.5751V33.8548C51.1943 33.5818 51.2497 33.3633 51.3327 33.1176C51.4157 32.8991 51.5541 32.6807 51.7201 32.5168C51.8862 32.353 52.0799 32.2165 52.3013 32.1072C52.5227 31.998 52.7717 31.9707 53.0485 31.9707C53.2975 31.9707 53.5466 32.0253 53.768 32.1072C53.9894 32.2165 54.1831 32.3257 54.3492 32.5168C54.5152 32.708 54.6259 32.8991 54.7366 33.1176C54.8196 33.336 54.875 33.5818 54.875 33.8548V33.8821V35.6024C54.875 35.6844 54.8473 35.739 54.7919 35.7936C54.7366 35.8482 54.6812 35.8755 54.5982 35.8755C54.5152 35.8755 54.4598 35.8482 54.4045 35.7936C54.3492 35.739 54.3215 35.6844 54.3215 35.6024V33.8821C54.3215 33.8548 54.3215 33.8548 54.3215 33.8275C54.3215 33.6364 54.2938 33.4726 54.2108 33.3087C54.1554 33.1449 54.0447 33.0083 53.934 32.8991C53.8234 32.7899 53.685 32.6807 53.5466 32.6261C53.3806 32.5441 53.2145 32.5168 53.0485 32.5168C52.8548 32.5168 52.6887 32.5441 52.5227 32.6261C52.3566 32.708 52.2183 32.7899 52.1076 32.8991C51.9969 33.0083 51.8862 33.1449 51.8308 33.3087C51.7755 33.4726 51.7478 33.6637 51.7478 33.8548Z" fill="white"/>
<path d="M57.2825 33.9368C57.2825 33.9641 57.2825 33.9641 57.2825 33.9641C57.2825 34.1552 57.3102 34.3191 57.3932 34.4829C57.4762 34.6468 57.5592 34.8106 57.6976 34.9471C57.836 35.0837 57.9743 35.1929 58.1404 35.2748C58.3064 35.3567 58.5001 35.384 58.6938 35.4113C58.8876 35.4113 59.0536 35.384 59.2196 35.3294C59.3857 35.2748 59.5241 35.1929 59.6624 35.0564C59.6901 35.029 59.7178 35.0017 59.7455 35.0017C59.7731 34.9744 59.8008 34.9744 59.8561 34.9471C59.8838 34.9471 59.9392 34.9471 59.9668 34.9471C59.9945 34.9471 60.0499 34.9744 60.1052 35.029C60.1606 35.0837 60.1882 35.1383 60.1882 35.2202C60.1882 35.3021 60.1606 35.3567 60.0775 35.4386C59.9945 35.5206 59.9115 35.6025 59.8008 35.6571C59.6901 35.7117 59.5794 35.7663 59.4687 35.8209C59.358 35.8756 59.2196 35.9029 59.109 35.9302C58.9706 35.9575 58.8599 35.9575 58.7215 35.9575C58.4448 35.9575 58.1957 35.9029 57.9467 35.7936C57.6976 35.6844 57.5039 35.5479 57.3102 35.384C57.1441 35.2202 56.9781 35.0017 56.895 34.756C56.7844 34.5102 56.729 34.2645 56.729 33.9914V33.9641C56.729 33.691 56.7844 33.4453 56.895 33.1995C57.0057 32.9538 57.1441 32.7626 57.3102 32.5715C57.4762 32.4076 57.6976 32.2438 57.9467 32.1619C58.1957 32.08 58.4448 31.998 58.7215 31.998C58.9706 31.998 59.2197 32.0527 59.4687 32.1346C59.7178 32.2165 59.9115 32.353 60.0775 32.5169C60.1329 32.5715 60.1606 32.6534 60.1882 32.7353C60.1882 32.8172 60.1606 32.8718 60.1052 32.9265C60.0499 32.9538 60.0222 32.9811 59.9945 33.0084C59.9668 33.0084 59.9115 33.0084 59.8838 33.0084C59.8562 33.0084 59.8008 32.9811 59.7731 32.9538C59.7454 32.9265 59.7178 32.8992 59.6901 32.8992C59.5517 32.7626 59.4134 32.6807 59.2473 32.6261C59.0813 32.5715 58.9152 32.5442 58.7215 32.5442C58.5278 32.5442 58.3618 32.5988 58.168 32.6534C58.002 32.7353 57.8636 32.8445 57.7253 32.9538C57.5869 33.0903 57.5039 33.2268 57.4208 33.3907C57.3378 33.5545 57.2825 33.7456 57.2825 33.9368Z" fill="white"/>
<path d="M63.8134 35.6025C63.8134 35.6844 63.7857 35.739 63.7304 35.7936C63.6751 35.8483 63.6197 35.8756 63.5367 35.8756H63.509C63.3153 35.8756 63.1492 35.8483 62.9832 35.7663C62.8172 35.7117 62.6788 35.6025 62.5681 35.4933C62.4574 35.384 62.3467 35.2202 62.2914 35.0564C62.236 34.8925 62.1807 34.7014 62.1807 34.5102V30.8512C62.1807 30.7693 62.2083 30.7147 62.2637 30.66C62.319 30.6054 62.3744 30.5781 62.4574 30.5781C62.5404 30.5781 62.5958 30.6054 62.6511 30.66C62.7065 30.7147 62.7341 30.7693 62.7341 30.8512V34.5102C62.7341 34.756 62.8172 34.9745 62.9555 35.111C63.0939 35.2475 63.2876 35.3294 63.509 35.3294H63.5367C63.6197 35.3294 63.6751 35.3567 63.7304 35.4114C63.7857 35.466 63.8134 35.5206 63.8134 35.6025Z" fill="white"/>
<path d="M66.2216 34.0188C66.2216 34.2099 66.2493 34.3738 66.3323 34.5376C66.3876 34.7015 66.4983 34.838 66.609 34.9745C66.7197 35.1111 66.8581 35.193 67.0241 35.2749C67.1902 35.3568 67.3562 35.3841 67.5499 35.3841C67.7437 35.3841 67.9097 35.3568 68.0757 35.2749C68.2418 35.193 68.3525 35.1111 68.4632 34.9745C68.5739 34.838 68.6569 34.7015 68.7122 34.5376C68.7676 34.3738 68.7953 34.1826 68.7953 34.0188V32.3258C68.7953 32.2439 68.8229 32.1893 68.8783 32.1347C68.9336 32.08 68.989 32.0527 69.072 32.0527C69.155 32.0527 69.2104 32.08 69.2657 32.1347C69.3211 32.1893 69.3487 32.2439 69.3487 32.3258V34.0461C69.3487 34.3192 69.2934 34.5649 69.2104 34.7834C69.1273 35.0018 68.989 35.2203 68.8506 35.3841C68.6846 35.548 68.4909 35.6845 68.2695 35.7937C68.0481 35.9029 67.799 35.9575 67.5499 35.9575C67.2732 35.9575 67.0518 35.9029 66.8028 35.821C66.5814 35.7118 66.3876 35.5753 66.2216 35.4114C66.0556 35.2476 65.9172 35.0291 65.8342 34.8107C65.7511 34.5922 65.6958 34.3465 65.6958 34.0734V32.3531C65.6958 32.2712 65.7235 32.2166 65.7788 32.162C65.8342 32.1073 65.8895 32.08 65.9725 32.08C66.0556 32.08 66.1109 32.1073 66.1663 32.162C66.2216 32.2166 66.2493 32.2712 66.2493 32.3531V34.0188H66.2216Z" fill="white"/>
<path d="M72.4752 34.0733C72.3369 34.0187 72.2262 33.9914 72.0878 33.9368C71.9494 33.8822 71.8387 33.8003 71.7557 33.7183C71.645 33.6364 71.562 33.5545 71.5067 33.418C71.4513 33.3087 71.4236 33.1722 71.4236 33.0084C71.4236 32.8445 71.4513 32.6807 71.5343 32.5715C71.6173 32.4349 71.7004 32.3257 71.8111 32.2438C71.9218 32.1619 72.0601 32.08 72.2262 32.0527C72.3922 31.998 72.5583 31.998 72.7243 31.998C72.835 31.998 72.9734 31.998 73.0841 32.0253C73.1948 32.0527 73.3054 32.08 73.4161 32.1346C73.5268 32.1892 73.6099 32.2438 73.6929 32.2984C73.7759 32.3803 73.8312 32.4349 73.8866 32.5442C73.9143 32.5988 73.9143 32.6534 73.9143 32.708C73.9143 32.7626 73.8866 32.8172 73.8589 32.8445C73.8313 32.8718 73.7759 32.8992 73.7206 32.9265C73.6652 32.9265 73.6099 32.9265 73.5822 32.8992C73.4715 32.7626 73.3331 32.6807 73.2224 32.6261C73.0841 32.5715 72.9457 32.5442 72.752 32.5442C72.6413 32.5442 72.5583 32.5442 72.4476 32.5715C72.3645 32.5988 72.2538 32.6261 72.1985 32.6534C72.1155 32.708 72.0601 32.7353 72.0324 32.8172C72.0048 32.8992 71.9771 32.9538 71.9771 33.063C71.9771 33.1449 72.0048 33.2268 72.0324 33.2814C72.0878 33.3361 72.1432 33.3907 72.1985 33.4453C72.2538 33.4999 72.3645 33.5272 72.4476 33.5545C72.5583 33.5818 72.6413 33.6091 72.752 33.6637C72.918 33.7183 73.1117 33.773 73.2501 33.8276C73.4161 33.8822 73.5545 33.9641 73.6652 34.046C73.7759 34.1279 73.8866 34.2372 73.9419 34.3737C74.025 34.4829 74.0527 34.6468 74.0527 34.8106C74.0527 34.9744 74.025 35.111 73.9419 35.2475C73.8589 35.384 73.7759 35.4933 73.6652 35.6025C73.5545 35.7117 73.3885 35.7936 73.2224 35.8482C73.0564 35.9029 72.8903 35.9302 72.6966 35.9302C72.5583 35.9302 72.4199 35.9029 72.2815 35.8755C72.1432 35.8482 72.0048 35.7936 71.8941 35.739C71.7834 35.6844 71.6727 35.6025 71.562 35.5206C71.4513 35.4386 71.396 35.3294 71.3129 35.2202C71.2576 35.1383 71.2576 35.0564 71.2853 35.0017C71.3129 34.9471 71.3406 34.8925 71.396 34.8652C71.4513 34.8379 71.5067 34.8106 71.5897 34.8379C71.6727 34.8379 71.728 34.8925 71.7834 34.9471C71.8664 35.0837 72.0048 35.1929 72.1432 35.2748C72.3092 35.3567 72.5029 35.384 72.6966 35.384C72.8073 35.384 72.918 35.3567 73.001 35.3294C73.1117 35.3021 73.1948 35.2475 73.2501 35.1929C73.3331 35.1383 73.3885 35.0837 73.4161 35.0017C73.4715 34.9198 73.4715 34.8379 73.4715 34.756C73.4715 34.6741 73.4438 34.5921 73.3885 34.5102C73.3331 34.4283 73.2501 34.3737 73.1394 34.3191C73.0287 34.2645 72.918 34.2099 72.8073 34.1552C72.7243 34.1552 72.5859 34.1006 72.4752 34.0733Z" fill="white"/>
<path d="M76.1284 31.1783C76.1284 31.0963 76.1561 31.0144 76.2114 30.9325C76.2668 30.8779 76.3498 30.8506 76.4328 30.8506C76.5158 30.8506 76.5989 30.8779 76.6542 30.9325C76.7096 30.9871 76.7372 31.069 76.7372 31.1783C76.7372 31.2602 76.7096 31.3421 76.6542 31.3967C76.5989 31.4513 76.5158 31.4786 76.4328 31.4786C76.3775 31.4786 76.3498 31.4786 76.2945 31.4513C76.2668 31.424 76.2114 31.3967 76.1838 31.3694C76.1561 31.3421 76.1284 31.3148 76.1284 31.2602C76.1284 31.2602 76.1284 31.2329 76.1284 31.1783ZM76.7096 35.5746C76.7096 35.6565 76.6819 35.7111 76.6265 35.7657C76.5712 35.8203 76.5158 35.8476 76.4328 35.8476C76.3498 35.8476 76.2945 35.8203 76.2391 35.7657C76.1838 35.7111 76.1561 35.6565 76.1561 35.5746V32.2978C76.1561 32.2159 76.1838 32.1613 76.2391 32.1067C76.2945 32.0521 76.3498 32.0248 76.4328 32.0248C76.5158 32.0248 76.5712 32.0521 76.6265 32.1067C76.6819 32.1613 76.7096 32.2159 76.7096 32.2978V35.5746Z" fill="white"/>
<path d="M80.3348 35.0018L81.6355 32.2166C81.6632 32.1347 81.7185 32.1074 81.7739 32.0801C81.8292 32.0527 81.9122 32.0527 81.9953 32.0801C82.0783 32.1074 82.106 32.162 82.1336 32.2166C82.1613 32.2985 82.1613 32.3531 82.1336 32.435L80.6116 35.7118C80.5839 35.7664 80.5562 35.821 80.5009 35.8483C80.4455 35.8756 80.4179 35.9029 80.3625 35.9029C80.3072 35.9029 80.2518 35.8756 80.1965 35.8483C80.1411 35.821 80.1135 35.7664 80.0858 35.7118L78.5637 32.435C78.5361 32.3531 78.5361 32.2985 78.5637 32.2166C78.5914 32.1347 78.6467 32.1074 78.7021 32.0801C78.7851 32.0527 78.8405 32.0527 78.9235 32.0801C79.0065 32.1074 79.0342 32.162 79.0618 32.2166L80.3348 35.0018Z" fill="white"/>
<path d="M84.2368 34.1825C84.2644 34.3464 84.3198 34.5102 84.4028 34.6467C84.4858 34.7833 84.5965 34.9198 84.7072 35.029C84.8179 35.1382 84.984 35.2202 85.1223 35.2748C85.2884 35.3294 85.4544 35.3567 85.6204 35.3567C85.8142 35.3567 86.0079 35.3294 86.2016 35.2475C86.3953 35.1655 86.5337 35.0563 86.6444 34.9198C86.7274 34.8379 86.8381 34.8379 86.9211 34.8652C86.9765 34.8925 87.0041 34.9198 87.0595 34.9744C87.0872 35.029 87.1148 35.0836 87.1148 35.1382C87.1148 35.2202 87.0872 35.2748 87.0041 35.3294C86.8658 35.4932 86.672 35.6298 86.423 35.739C86.2016 35.8482 85.9249 35.9028 85.6204 35.9028C85.3437 35.9028 85.0946 35.8482 84.8456 35.739C84.5965 35.6298 84.4028 35.4932 84.2091 35.3294C84.0154 35.1382 83.877 34.9471 83.794 34.7013C83.6833 34.4556 83.6279 34.2098 83.6279 33.9368C83.6279 33.6637 83.6833 33.4179 83.794 33.1722C83.9047 32.9264 84.043 32.7353 84.2091 32.5441C84.4028 32.353 84.5965 32.2165 84.8456 32.1345C85.0946 32.0253 85.3437 31.9707 85.6204 31.9707C85.8972 31.9707 86.1462 32.0253 86.3953 32.1345C86.6444 32.2438 86.8381 32.3803 87.0318 32.5441C87.1978 32.708 87.3639 32.9264 87.4469 33.1722C87.5576 33.4179 87.613 33.6637 87.613 33.9368C87.613 34.0187 87.5853 34.0733 87.5299 34.1279C87.4746 34.1825 87.4192 34.2098 87.3362 34.2098H84.2368V34.1825ZM87.0595 33.7456C87.0318 33.5818 86.9765 33.4179 86.9211 33.2541C86.8381 33.1176 86.7274 32.981 86.6167 32.8718C86.4783 32.7626 86.34 32.6807 86.1739 32.6261C86.0079 32.5714 85.8418 32.5441 85.6481 32.5441C85.4544 32.5441 85.2884 32.5714 85.1223 32.6261C84.9563 32.6807 84.8179 32.7626 84.6795 32.8718C84.5412 32.981 84.4581 33.1176 84.3751 33.2541C84.2921 33.3906 84.2368 33.5545 84.2368 33.7456H87.0595Z" fill="white"/>
<defs>
<clipPath id="clip0_2205_941">
<rect width="5.71428" height="5.55555" fill="white" transform="translate(43)"/>
</clipPath>
<clipPath id="clip1_2205_941">
<rect width="5.71428" height="5.55555" fill="white" transform="translate(51.0952)"/>
</clipPath>
<clipPath id="clip2_2205_941">
<rect width="5.71428" height="5.55555" fill="white" transform="translate(59.1904)"/>
</clipPath>
<clipPath id="clip3_2205_941">
<rect width="5.71428" height="5.55555" fill="white" transform="translate(67.2856)"/>
</clipPath>
</defs>
</svg>
