<svg width="188" height="37" viewBox="0 0 188 37" fill="none" xmlns="http://www.w3.org/2000/svg">
<g clip-path="url(#clip0_331_1548)">
<path d="M43.4467 21C42.4632 21 41.5165 20.8611 40.6069 20.5834C39.6973 20.3057 38.8283 19.8785 38 19.3017V15.98H39.6973L40.0633 18.4259C40.544 18.7107 41.0654 18.9315 41.6275 19.0881C42.1895 19.2448 42.7959 19.3231 43.4467 19.3231C44.1863 19.3231 44.8112 19.2163 45.3215 19.0027C45.8392 18.7819 46.2348 18.4793 46.5085 18.0948C46.7821 17.7103 46.9189 17.2617 46.9189 16.749C46.9189 16.2719 46.8006 15.8518 46.5639 15.4887C46.3273 15.1255 45.9353 14.8086 45.388 14.5381C44.8482 14.2603 44.1086 14.0182 43.1694 13.8117C42.0601 13.5625 41.1209 13.2314 40.3518 12.8184C39.59 12.3983 39.0095 11.8927 38.6101 11.3017C38.2182 10.7036 38.0222 10.02 38.0222 9.251C38.0222 8.43925 38.244 7.71295 38.6878 7.0721C39.1389 6.43124 39.7638 5.92568 40.5625 5.55541C41.3612 5.18514 42.2931 5 43.358 5C44.4895 5 45.4879 5.16733 46.3532 5.502C47.2258 5.82955 47.9432 6.2283 48.5052 6.69826V9.80641H46.808L46.4419 7.58478C46.1091 7.32844 45.695 7.11482 45.1995 6.94393C44.704 6.77303 44.0901 6.68758 43.358 6.68758C42.7368 6.68758 42.1895 6.79439 41.7162 7.00801C41.2429 7.21451 40.8731 7.50645 40.6069 7.88385C40.3407 8.26124 40.2075 8.70628 40.2075 9.21896C40.2075 9.66756 40.3259 10.0592 40.5625 10.3939C40.8066 10.7285 41.1985 11.024 41.7384 11.2804C42.2857 11.5296 43.0141 11.7646 43.9237 11.9853C45.6247 12.3912 46.9115 12.9929 47.7842 13.7904C48.6642 14.5808 49.1043 15.5599 49.1043 16.7276C49.1043 17.5607 48.8713 18.3013 48.4054 18.9493C47.9395 19.5901 47.2813 20.0921 46.4308 20.4553C45.5877 20.8184 44.593 21 43.4467 21Z" fill="white"/>
<path d="M61.9071 21C60.8643 21 59.9288 20.8077 59.1005 20.4232C58.2722 20.0387 57.566 19.4976 56.9817 18.7997C56.4049 18.0948 55.9612 17.2617 55.6506 16.3004C55.3473 15.3391 55.1957 14.2781 55.1957 13.1175V12.8932C55.1957 11.7397 55.3473 10.6822 55.6506 9.72096C55.9612 8.75256 56.4049 7.91589 56.9817 7.21095C57.566 6.50601 58.2722 5.96128 59.1005 5.57677C59.9288 5.19226 60.8643 5 61.9071 5C63.009 5 63.9778 5.19226 64.8135 5.57677C65.6492 5.96128 66.3481 6.50601 66.9101 7.21095C67.4796 7.91589 67.9085 8.75256 68.1969 9.72096C68.4853 10.6822 68.6296 11.7397 68.6296 12.8932V13.1175C68.6296 14.2781 68.4853 15.3391 68.1969 16.3004C67.9085 17.2617 67.4796 18.0948 66.9101 18.7997C66.3481 19.4976 65.6492 20.0387 64.8135 20.4232C63.9778 20.8077 63.009 21 61.9071 21ZM61.9071 19.2483C62.9794 19.2483 63.8447 18.992 64.5029 18.4793C65.1685 17.9666 65.6566 17.251 65.9672 16.3324C66.2778 15.4068 66.4331 14.3351 66.4331 13.1175V12.8718C66.4331 11.6613 66.2741 10.6004 65.9561 9.68892C65.6455 8.77036 65.1574 8.05474 64.4918 7.54206C63.8262 7.02225 62.9647 6.76235 61.9071 6.76235C60.9383 6.76235 60.1174 7.02225 59.4444 7.54206C58.7714 8.06186 58.2611 8.78104 57.9136 9.6996C57.566 10.611 57.3922 11.6684 57.3922 12.8718V13.1175C57.3922 14.328 57.566 15.3961 57.9136 16.3218C58.2611 17.2403 58.7714 17.9595 59.4444 18.4793C60.1174 18.992 60.9383 19.2483 61.9071 19.2483Z" fill="white"/>
<path d="M74.6323 20.7757V19.4299L76.4405 19.1308V6.87984L74.6323 6.58077V5.2243H86.7793V8.96262H85.0266L84.7825 6.85848H78.6258V12.2417H84.5385V13.8972H78.6258V19.1308L80.434 19.4299V20.7757H74.6323Z" fill="white"/>
<path d="M99.6154 21C98.1216 21 96.8274 20.6689 95.7328 20.0067C94.6383 19.3373 93.7952 18.4117 93.2036 17.2296C92.6119 16.0476 92.3161 14.6805 92.3161 13.1282V12.8718C92.3161 11.3053 92.6119 9.93458 93.2036 8.75968C93.8026 7.57766 94.6198 6.65554 95.6552 5.99332C96.6905 5.33111 97.8664 5 99.1828 5C100.44 5 101.505 5.13885 102.378 5.41656C103.258 5.69426 104.008 6.06809 104.63 6.53805V9.67824H102.832L102.599 7.42457C102.237 7.19671 101.793 7.02581 101.268 6.91188C100.743 6.79083 100.122 6.73031 99.4047 6.73031C98.4802 6.73031 97.6482 6.98665 96.9087 7.49933C96.1692 8.01202 95.5849 8.72764 95.156 9.64619C94.727 10.5576 94.5126 11.6257 94.5126 12.8505V13.1282C94.5126 14.3672 94.7086 15.4495 95.1005 16.3752C95.4999 17.2937 96.0804 18.0093 96.8421 18.522C97.6039 19.0276 98.5283 19.2804 99.6154 19.2804C100.355 19.2804 100.98 19.2198 101.49 19.0988C102 18.9706 102.452 18.8069 102.844 18.6075V14.9546L99.7486 14.8478V13.2991H105.029V19.3231C104.563 19.7432 103.894 20.1277 103.021 20.4766C102.156 20.8255 101.021 21 99.6154 21Z" fill="white"/>
<path d="M111.575 20.7757V19.4299L113.383 19.1308V6.87984L111.575 6.58077V5.23498H118.775C119.951 5.23498 120.942 5.40587 121.748 5.74766C122.561 6.08233 123.179 6.57009 123.6 7.21095C124.022 7.8518 124.232 8.63507 124.232 9.56075C124.232 10.4722 124.025 11.2377 123.611 11.8571C123.205 12.4766 122.624 12.9466 121.87 13.267C121.115 13.5803 120.22 13.7477 119.185 13.769L115.569 13.8331V19.1308L117.377 19.4299V20.7757H111.575ZM122.236 20.7757L118.642 13.0107L120.827 12.9893L123.811 19.2056L124.931 19.3979V20.7757H122.236ZM115.569 12.1776H118.553C119.773 12.1776 120.66 11.9533 121.215 11.5047C121.77 11.0561 122.047 10.401 122.047 9.53939C122.047 8.72052 121.781 8.07254 121.248 7.59546C120.716 7.11838 119.891 6.87984 118.775 6.87984H115.569V12.1776Z" fill="white"/>
<path d="M131.145 20.7757V19.4299L132.343 19.2697L137.989 5.2243H139.864L145.411 19.2697L146.598 19.4299V20.7757H141.961V19.4299L143.181 19.227L142.116 16.3645H135.649L134.55 19.227L135.771 19.4299V20.7757H131.145ZM136.325 14.6021H141.45L139.076 8.27904L138.943 7.92657H138.877L138.744 8.27904L136.325 14.6021Z" fill="white"/>
<path d="M152.623 20.7757V19.4299L154.431 19.1308V6.87984L152.623 6.58077V5.2243H156.638L164.559 17.3471L164.625 17.3258V6.87984L162.64 6.58077V5.2243H168.441V6.58077L166.633 6.87984V20.7757H164.636L156.505 8.58879L156.439 8.61015V19.1308L158.424 19.4299V20.7757H152.623Z" fill="white"/>
<path d="M174.577 20.7757V19.4299L176.385 19.1308V6.87984L174.577 6.58077V5.2243H180.9C182.328 5.2243 183.57 5.55185 184.628 6.20694C185.693 6.86204 186.521 7.76279 187.113 8.90921C187.704 10.0556 188 11.3658 188 12.8398V13.1709C188 14.6093 187.715 15.9052 187.146 17.0587C186.576 18.2052 185.767 19.113 184.716 19.7824C183.674 20.4446 182.439 20.7757 181.011 20.7757H174.577ZM178.571 19.1308H180.9C181.921 19.1308 182.797 18.8638 183.529 18.3298C184.262 17.7886 184.824 17.0694 185.216 16.1722C185.615 15.2679 185.815 14.2675 185.815 13.1709V12.8184C185.815 11.6862 185.615 10.6751 185.216 9.78505C184.824 8.88785 184.262 8.17935 183.529 7.65955C182.797 7.13974 181.921 6.87984 180.9 6.87984H178.571V19.1308Z" fill="white"/>
<path d="M74.9629 34.39C74.9629 34.0372 75.0344 33.7197 75.1774 33.4022C75.3204 33.0848 75.4992 32.8378 75.7137 32.5909C75.9639 32.3792 76.2142 32.1676 76.5359 32.0618C76.8577 31.9207 77.1794 31.8501 77.5369 31.8501C77.8944 31.8501 78.2162 31.9207 78.538 32.0618C78.8597 32.2029 79.11 32.3792 79.3602 32.5909C79.5747 32.8026 79.7892 33.0848 79.8965 33.4022C80.0395 33.7197 80.111 34.0372 80.111 34.39V34.4252V36.5418C80.111 36.6476 80.0752 36.7182 80.0037 36.7887C79.9322 36.8593 79.8607 36.8946 79.7535 36.8946C79.6462 36.8946 79.5747 36.8593 79.5032 36.7887C79.4317 36.7182 79.396 36.6476 79.396 36.5418V36.1185C79.1457 36.3654 78.8955 36.5771 78.5737 36.7182C78.252 36.8593 77.9302 36.9651 77.5369 36.9651C77.1794 36.9651 76.8577 36.8946 76.5359 36.7535C76.2142 36.6124 75.9639 36.436 75.7137 36.2243C75.4634 35.9774 75.2846 35.7305 75.1774 35.413C75.0344 35.0602 74.9629 34.7427 74.9629 34.39ZM75.6779 34.39C75.6779 34.6369 75.7137 34.8838 75.8209 35.0955C75.9282 35.3071 76.0354 35.5188 76.2142 35.6952C76.3929 35.8716 76.5717 36.0127 76.8219 36.0832C77.0364 36.1891 77.2867 36.2243 77.5369 36.2243C77.7872 36.2243 78.0374 36.1891 78.2877 36.0832C78.5022 35.9774 78.7167 35.8363 78.8955 35.6952C79.0742 35.5188 79.1815 35.3424 79.2887 35.0955C79.396 34.8838 79.4317 34.6369 79.4317 34.39C79.4317 34.143 79.396 33.8961 79.2887 33.6844C79.1815 33.4728 79.0742 33.2611 78.8955 33.0848C78.7167 32.9084 78.538 32.7673 78.2877 32.6967C78.0732 32.5909 77.8229 32.5556 77.5727 32.5556C77.3224 32.5556 77.0722 32.5909 76.8577 32.6967C76.6432 32.8025 76.4287 32.9084 76.2499 33.0848C76.0712 33.2611 75.9639 33.4375 75.8567 33.6844C75.7137 33.8961 75.6779 34.143 75.6779 34.39Z" fill="white"/>
<path d="M84.9731 36.5416C84.9731 36.6474 84.9373 36.718 84.8658 36.7885C84.7943 36.8591 84.7228 36.8943 84.6156 36.8943H84.5798C84.3295 36.8943 84.115 36.8591 83.9005 36.7532C83.686 36.6827 83.5073 36.5416 83.3643 36.4005C83.2213 36.2594 83.0783 36.0477 83.0068 35.8361C82.9353 35.6244 82.8638 35.3775 82.8638 35.1305V30.4035C82.8638 30.2977 82.8995 30.2272 82.971 30.1566C83.0425 30.0861 83.114 30.0508 83.2213 30.0508C83.3285 30.0508 83.4 30.0861 83.4715 30.1566C83.543 30.2272 83.5788 30.2977 83.5788 30.4035V35.1305C83.5788 35.448 83.686 35.7302 83.8648 35.9066C84.0435 36.083 84.2938 36.1888 84.5798 36.1888H84.6156C84.7228 36.1888 84.7943 36.2241 84.8658 36.2946C84.9373 36.3652 84.9731 36.4357 84.9731 36.5416Z" fill="white"/>
<path d="M89.4775 36.5416C89.4775 36.6474 89.4417 36.718 89.3702 36.7885C89.2987 36.8591 89.2272 36.8943 89.12 36.8943H89.0842C88.834 36.8943 88.6194 36.8591 88.4049 36.7532C88.1904 36.6827 88.0117 36.5416 87.8687 36.4005C87.7257 36.2594 87.5827 36.0477 87.5112 35.8361C87.4397 35.6244 87.3682 35.3775 87.3682 35.1305V30.4035C87.3682 30.2977 87.4039 30.2272 87.4754 30.1566C87.5469 30.0861 87.6184 30.0508 87.7257 30.0508C87.8329 30.0508 87.9044 30.0861 87.9759 30.1566C88.0474 30.2272 88.0832 30.2977 88.0832 30.4035V35.1305C88.0832 35.448 88.1904 35.7302 88.3692 35.9066C88.5479 36.083 88.7982 36.1888 89.0842 36.1888H89.12C89.2272 36.1888 89.2987 36.2241 89.3702 36.2946C89.4417 36.3652 89.4775 36.4357 89.4775 36.5416Z" fill="white"/>
<path d="M100.024 30.8266C100.024 30.7208 100.06 30.615 100.131 30.5091C100.203 30.4386 100.31 30.4033 100.417 30.4033C100.524 30.4033 100.632 30.4386 100.703 30.5091C100.775 30.5797 100.81 30.6855 100.81 30.8266C100.81 30.9325 100.775 31.0383 100.703 31.1088C100.632 31.1794 100.524 31.2147 100.417 31.2147C100.346 31.2147 100.31 31.2147 100.238 31.1794C100.203 31.1441 100.131 31.1088 100.095 31.0736C100.06 31.0383 100.024 31.003 100.024 30.9325C100.024 30.9325 100.024 30.8972 100.024 30.8266ZM100.81 36.5061C100.81 36.6119 100.775 36.6825 100.703 36.753C100.632 36.8236 100.56 36.8588 100.453 36.8588C100.346 36.8588 100.274 36.8236 100.203 36.753C100.131 36.6825 100.095 36.6119 100.095 36.5061V32.2729C100.095 32.1671 100.131 32.0966 100.203 32.026C100.274 31.9555 100.346 31.9202 100.453 31.9202C100.56 31.9202 100.632 31.9555 100.703 32.026C100.775 32.0966 100.81 32.1671 100.81 32.2729V36.5061Z" fill="white"/>
<path d="M104.35 34.2841V36.5065C104.35 36.6124 104.314 36.6829 104.243 36.7535C104.171 36.824 104.1 36.8593 103.992 36.8593C103.885 36.8593 103.814 36.824 103.742 36.7535C103.671 36.6829 103.635 36.6124 103.635 36.5065V34.2841C103.635 33.9314 103.706 33.6492 103.814 33.3317C103.921 33.0495 104.1 32.7673 104.314 32.5556C104.529 32.344 104.779 32.1676 105.065 32.0265C105.351 31.8854 105.673 31.8501 106.03 31.8501C106.352 31.8501 106.674 31.9206 106.96 32.0265C107.246 32.1676 107.496 32.3087 107.71 32.5556C107.925 32.8026 108.068 33.0495 108.211 33.3317C108.318 33.6139 108.39 33.9314 108.39 34.2841V34.3194V36.5418C108.39 36.6476 108.354 36.7182 108.282 36.7887C108.211 36.8593 108.139 36.8946 108.032 36.8946C107.925 36.8946 107.853 36.8593 107.782 36.7887C107.71 36.7182 107.675 36.6476 107.675 36.5418V34.3194C107.675 34.2841 107.675 34.2841 107.675 34.2489C107.675 34.0019 107.639 33.7903 107.532 33.5786C107.46 33.367 107.317 33.1906 107.174 33.0495C107.031 32.9084 106.852 32.7673 106.674 32.6967C106.459 32.5909 106.245 32.5556 106.03 32.5556C105.78 32.5556 105.565 32.5909 105.351 32.6967C105.136 32.8025 104.958 32.9084 104.815 33.0495C104.672 33.1906 104.529 33.367 104.457 33.5786C104.386 33.7903 104.35 34.0372 104.35 34.2841Z" fill="white"/>
<path d="M111.5 34.3894C111.5 34.4246 111.5 34.4246 111.5 34.4246C111.5 34.6716 111.536 34.8832 111.643 35.0949C111.75 35.3065 111.858 35.5182 112.036 35.6946C112.215 35.871 112.394 36.0121 112.608 36.1179C112.823 36.2237 113.073 36.259 113.323 36.2943C113.574 36.2943 113.788 36.259 114.003 36.1884C114.217 36.1179 114.396 36.0121 114.575 35.8357C114.61 35.8004 114.646 35.7651 114.682 35.7651C114.718 35.7299 114.753 35.7299 114.825 35.6946C114.861 35.6946 114.932 35.6946 114.968 35.6946C115.004 35.6946 115.075 35.7298 115.147 35.8004C115.218 35.871 115.254 35.9415 115.254 36.0473C115.254 36.1532 115.218 36.2237 115.111 36.3295C115.004 36.4354 114.896 36.5412 114.753 36.6118C114.61 36.6823 114.467 36.7529 114.324 36.8234C114.181 36.894 114.003 36.9292 113.86 36.9645C113.681 36.9998 113.538 36.9998 113.359 36.9998C113.002 36.9998 112.68 36.9292 112.358 36.7881C112.036 36.647 111.786 36.4707 111.536 36.259C111.321 36.0473 111.107 35.7651 111 35.4476C110.857 35.1302 110.785 34.8127 110.785 34.4599V34.4246C110.785 34.0719 110.857 33.7544 111 33.4369C111.143 33.1194 111.321 32.8725 111.536 32.6256C111.75 32.4139 112.036 32.2022 112.358 32.0964C112.68 31.9906 113.002 31.8848 113.359 31.8848C113.681 31.8848 114.003 31.9553 114.324 32.0611C114.646 32.167 114.896 32.3434 115.111 32.555C115.182 32.6256 115.218 32.7314 115.254 32.8372C115.254 32.943 115.218 33.0136 115.147 33.0841C115.075 33.1194 115.039 33.1547 115.004 33.19C114.968 33.19 114.896 33.19 114.861 33.19C114.825 33.19 114.753 33.1547 114.718 33.1194C114.682 33.0842 114.646 33.0489 114.61 33.0489C114.432 32.8725 114.253 32.7667 114.038 32.6961C113.824 32.6256 113.609 32.5903 113.359 32.5903C113.109 32.5903 112.894 32.6608 112.644 32.7314C112.43 32.8372 112.251 32.9783 112.072 33.1194C111.893 33.2958 111.786 33.4722 111.679 33.6838C111.572 33.8955 111.5 34.1424 111.5 34.3894Z" fill="white"/>
<path d="M119.937 36.5416C119.937 36.6474 119.902 36.718 119.83 36.7885C119.759 36.8591 119.687 36.8943 119.58 36.8943H119.544C119.294 36.8943 119.079 36.8591 118.865 36.7532C118.65 36.6827 118.472 36.5416 118.329 36.4005C118.186 36.2594 118.043 36.0477 117.971 35.8361C117.9 35.6244 117.828 35.3775 117.828 35.1305V30.4035C117.828 30.2977 117.864 30.2272 117.935 30.1566C118.007 30.0861 118.078 30.0508 118.186 30.0508C118.293 30.0508 118.364 30.0861 118.436 30.1566C118.507 30.2272 118.543 30.2977 118.543 30.4035V35.1305C118.543 35.448 118.65 35.7302 118.829 35.9066C119.008 36.083 119.258 36.1888 119.544 36.1888H119.58C119.687 36.1888 119.759 36.2241 119.83 36.2946C119.902 36.3652 119.937 36.4357 119.937 36.5416Z" fill="white"/>
<path d="M123.048 34.4954C123.048 34.7424 123.084 34.954 123.191 35.1657C123.262 35.3773 123.405 35.5537 123.548 35.7301C123.691 35.9065 123.87 36.0123 124.085 36.1181C124.299 36.224 124.514 36.2592 124.764 36.2592C125.014 36.2592 125.229 36.224 125.443 36.1181C125.658 36.0123 125.801 35.9065 125.944 35.7301C126.087 35.5537 126.194 35.3773 126.265 35.1657C126.337 34.954 126.373 34.7071 126.373 34.4954V32.3083C126.373 32.2025 126.408 32.132 126.48 32.0614C126.551 31.9908 126.623 31.9556 126.73 31.9556C126.837 31.9556 126.909 31.9908 126.98 32.0614C127.052 32.132 127.088 32.2025 127.088 32.3083V34.5307C127.088 34.8835 127.016 35.201 126.909 35.4832C126.802 35.7654 126.623 36.0476 126.444 36.2592C126.23 36.4709 125.979 36.6473 125.693 36.7884C125.407 36.9295 125.086 37 124.764 37C124.406 37 124.12 36.9295 123.799 36.8237C123.513 36.6826 123.262 36.5062 123.048 36.2945C122.833 36.0829 122.655 35.8007 122.547 35.5184C122.44 35.2362 122.369 34.9188 122.369 34.566V32.3436C122.369 32.2378 122.404 32.1672 122.476 32.0967C122.547 32.0261 122.619 31.9908 122.726 31.9908C122.833 31.9908 122.905 32.0261 122.976 32.0967C123.048 32.1672 123.084 32.2378 123.084 32.3436V34.4954H123.048Z" fill="white"/>
<path d="M131.127 34.5657C130.948 34.4952 130.805 34.4599 130.627 34.3894C130.448 34.3188 130.305 34.213 130.198 34.1072C130.055 34.0013 129.947 33.8955 129.876 33.7191C129.804 33.578 129.769 33.4016 129.769 33.19C129.769 32.9783 129.804 32.7667 129.912 32.6256C130.019 32.4492 130.126 32.3081 130.269 32.2022C130.412 32.0964 130.591 31.9906 130.805 31.9553C131.02 31.8848 131.234 31.8848 131.449 31.8848C131.592 31.8848 131.771 31.8848 131.914 31.92C132.057 31.9553 132.2 31.9906 132.343 32.0611C132.486 32.1317 132.593 32.2022 132.7 32.2728C132.807 32.3786 132.879 32.4492 132.95 32.5903C132.986 32.6608 132.986 32.7314 132.986 32.8019C132.986 32.8725 132.95 32.943 132.915 32.9783C132.879 33.0136 132.807 33.0489 132.736 33.0841C132.664 33.0841 132.593 33.0841 132.557 33.0489C132.414 32.8725 132.235 32.7667 132.092 32.6961C131.914 32.6256 131.735 32.5903 131.485 32.5903C131.342 32.5903 131.234 32.5903 131.091 32.6256C130.984 32.6608 130.841 32.6961 130.77 32.7314C130.662 32.8019 130.591 32.8372 130.555 32.943C130.519 33.0489 130.484 33.1194 130.484 33.2605C130.484 33.3664 130.519 33.4722 130.555 33.5427C130.627 33.6133 130.698 33.6838 130.77 33.7544C130.841 33.8249 130.984 33.8602 131.091 33.8955C131.234 33.9308 131.342 33.966 131.485 34.0366C131.699 34.1071 131.949 34.1777 132.128 34.2483C132.343 34.3188 132.521 34.4246 132.664 34.5305C132.807 34.6363 132.95 34.7774 133.022 34.9538C133.129 35.0949 133.165 35.3065 133.165 35.5182C133.165 35.7299 133.129 35.9062 133.022 36.0826C132.915 36.259 132.807 36.4001 132.664 36.5412C132.521 36.6823 132.307 36.7881 132.092 36.8587C131.878 36.9292 131.663 36.9645 131.413 36.9645C131.234 36.9645 131.056 36.9292 130.877 36.894C130.698 36.8587 130.519 36.7881 130.376 36.7176C130.233 36.647 130.09 36.5412 129.947 36.4354C129.804 36.3295 129.733 36.1884 129.626 36.0473C129.554 35.9415 129.554 35.8357 129.59 35.7651C129.626 35.6946 129.661 35.624 129.733 35.5888C129.804 35.5535 129.876 35.5182 129.983 35.5535C130.09 35.5535 130.162 35.624 130.233 35.6946C130.341 35.871 130.519 36.0121 130.698 36.1179C130.913 36.2237 131.163 36.259 131.413 36.259C131.556 36.259 131.699 36.2237 131.806 36.1884C131.949 36.1532 132.057 36.0826 132.128 36.0121C132.235 35.9415 132.307 35.871 132.343 35.7651C132.414 35.6593 132.414 35.5535 132.414 35.4476C132.414 35.3418 132.378 35.236 132.307 35.1302C132.235 35.0243 132.128 34.9538 131.985 34.8832C131.842 34.8127 131.699 34.7421 131.556 34.6716C131.449 34.6716 131.27 34.601 131.127 34.5657Z" fill="white"/>
<path d="M135.847 30.8266C135.847 30.7208 135.882 30.615 135.954 30.5091C136.025 30.4386 136.133 30.4033 136.24 30.4033C136.347 30.4033 136.454 30.4386 136.526 30.5091C136.597 30.5797 136.633 30.6855 136.633 30.8266C136.633 30.9325 136.597 31.0383 136.526 31.1088C136.454 31.1794 136.347 31.2147 136.24 31.2147C136.168 31.2147 136.133 31.2147 136.061 31.1794C136.025 31.1441 135.954 31.1088 135.918 31.0736C135.882 31.0383 135.847 31.003 135.847 30.9325C135.847 30.9325 135.847 30.8972 135.847 30.8266ZM136.597 36.5061C136.597 36.6119 136.562 36.6825 136.49 36.753C136.419 36.8236 136.347 36.8588 136.24 36.8588C136.133 36.8588 136.061 36.8236 135.99 36.753C135.918 36.6825 135.882 36.6119 135.882 36.5061V32.2729C135.882 32.1671 135.918 32.0966 135.99 32.026C136.061 31.9555 136.133 31.9202 136.24 31.9202C136.347 31.9202 136.419 31.9555 136.49 32.026C136.562 32.0966 136.597 32.1671 136.597 32.2729V36.5061Z" fill="white"/>
<path d="M141.281 35.7654L142.961 32.1672C142.997 32.0614 143.068 32.0261 143.14 31.9908C143.211 31.9555 143.318 31.9555 143.426 31.9908C143.533 32.0261 143.569 32.0966 143.604 32.1672C143.64 32.273 143.64 32.3436 143.604 32.4494L141.638 36.6825C141.602 36.7531 141.567 36.8236 141.495 36.8589C141.424 36.8942 141.388 36.9295 141.316 36.9295C141.245 36.9295 141.173 36.8942 141.102 36.8589C141.03 36.8236 140.995 36.7531 140.959 36.6825L138.993 32.4494C138.957 32.3436 138.957 32.273 138.993 32.1672C139.028 32.0614 139.1 32.0261 139.171 31.9908C139.279 31.9555 139.35 31.9555 139.457 31.9908C139.565 32.0261 139.6 32.0966 139.636 32.1672L141.281 35.7654Z" fill="white"/>
<path d="M146.321 34.7075C146.357 34.9191 146.428 35.1308 146.536 35.3071C146.643 35.4835 146.786 35.6599 146.929 35.801C147.072 35.9421 147.286 36.0479 147.465 36.1185C147.68 36.1891 147.894 36.2243 148.109 36.2243C148.359 36.2243 148.609 36.1891 148.859 36.0832C149.11 35.9774 149.289 35.8363 149.432 35.6599C149.539 35.5541 149.682 35.5541 149.789 35.5894C149.861 35.6246 149.896 35.6599 149.968 35.7305C150.004 35.801 150.039 35.8716 150.039 35.9421C150.039 36.0479 150.004 36.1185 149.896 36.189C149.718 36.4007 149.467 36.5771 149.145 36.7182C148.859 36.8593 148.502 36.9298 148.109 36.9298C147.751 36.9298 147.429 36.8593 147.108 36.7182C146.786 36.5771 146.536 36.4007 146.285 36.189C146.035 35.9421 145.856 35.6952 145.749 35.3777C145.606 35.0602 145.535 34.7427 145.535 34.39C145.535 34.0372 145.606 33.7197 145.749 33.4022C145.892 33.0848 146.071 32.8378 146.285 32.5909C146.536 32.344 146.786 32.1676 147.108 32.0618C147.429 31.9207 147.751 31.8501 148.109 31.8501C148.466 31.8501 148.788 31.9207 149.11 32.0618C149.431 32.2029 149.682 32.3792 149.932 32.5909C150.147 32.8026 150.361 33.0848 150.468 33.4022C150.611 33.7197 150.683 34.0372 150.683 34.39C150.683 34.4958 150.647 34.5664 150.576 34.6369C150.504 34.7075 150.433 34.7427 150.325 34.7427H146.321V34.7075ZM149.968 34.143C149.932 33.9314 149.861 33.7197 149.789 33.5081C149.682 33.3317 149.539 33.1553 149.396 33.0142C149.217 32.8731 149.038 32.7673 148.824 32.6967C148.609 32.6262 148.395 32.5909 148.144 32.5909C147.894 32.5909 147.68 32.6262 147.465 32.6967C147.251 32.7673 147.072 32.8731 146.893 33.0142C146.714 33.1553 146.607 33.3317 146.5 33.5081C146.393 33.6844 146.321 33.8961 146.321 34.143H149.968Z" fill="white"/>
<g clip-path="url(#clip1_331_1548)">
<path d="M23.8929 12.5567C23.8929 12.617 23.8929 12.6774 23.883 12.7378C23.3946 12.617 22.9162 12.5667 22.4676 12.5868C22.0191 12.607 21.5706 12.6271 21.1121 12.6573C19.5871 12.7478 18.0123 12.8384 16.4276 12.6371C16.1286 12.5969 15.8096 12.617 15.5006 12.6875C13.1085 13.2308 10.6765 12.9189 8.31433 12.617L8.17479 12.5969C8.04522 12.5768 7.90568 12.5667 7.76614 12.5667C7.02857 12.5567 6.28104 12.5365 5.56341 12.5164C3.79922 12.4661 2.14468 12.4057 0.510075 12.5567C0.360568 12.5667 0.211061 12.5768 0.0615544 12.5567C0.0515872 12.5567 0.0416207 12.5567 0.0216865 12.5567C0.0216865 12.4963 0.0216859 12.4359 0.0117188 12.3756C0.031653 12.3756 0.0515878 12.3756 0.0715221 12.3756C0.211062 12.3856 0.350601 12.3856 0.480173 12.3756C2.13472 12.2246 3.79922 12.285 5.56341 12.3353C6.28104 12.3554 7.02857 12.3856 7.75617 12.3856C7.90568 12.3856 8.05519 12.3957 8.20469 12.4158L8.34423 12.4359C10.6765 12.7378 13.0886 13.0497 15.4309 12.5164C15.7598 12.4359 16.1186 12.4259 16.4475 12.4661C18.0123 12.6673 19.5772 12.5768 21.0822 12.4862C21.5407 12.456 21.9892 12.4359 22.4377 12.4158C22.9162 12.3957 23.3946 12.4359 23.8929 12.5567Z" fill="white"/>
<path d="M23.853 13.1701C23.853 13.2304 23.8431 13.2908 23.8331 13.3512C23.7633 13.3411 23.7035 13.331 23.6338 13.321C22.5274 13.2506 21.4011 13.3009 20.215 13.3512C18.8296 13.4115 17.3844 13.4719 15.9491 13.331C14.1451 13.2707 12.2812 13.2908 10.4772 13.3109C9.68976 13.321 8.91233 13.331 8.13489 13.331C8.03522 13.331 7.94552 13.331 7.84585 13.321C6.63982 13.2204 5.42383 13.2908 4.24771 13.3612C2.97192 13.4317 1.7659 13.5021 0.559879 13.3713C0.390438 13.3512 0.230964 13.3411 0.0814574 13.3512C0.0714903 13.2908 0.0714906 13.2304 0.0615234 13.1701C0.230964 13.16 0.400406 13.1701 0.589781 13.1902C1.77587 13.321 2.97192 13.2506 4.23775 13.1801C5.42383 13.1097 6.64979 13.0393 7.87575 13.1499C7.96545 13.16 8.05515 13.16 8.13489 13.16C8.91233 13.16 9.68976 13.1499 10.4772 13.1399C12.2812 13.1198 14.1451 13.0996 15.969 13.16C17.4043 13.3009 18.8296 13.2405 20.2051 13.1801C21.4011 13.1298 22.5374 13.0795 23.6637 13.16C23.7235 13.1499 23.7932 13.16 23.853 13.1701Z" fill="white"/>
<path d="M23.7534 13.9651C23.7434 14.0255 23.7335 14.0858 23.7235 14.1462C23.7036 14.1462 23.6936 14.1462 23.6737 14.1462C22.4477 14.106 21.2018 14.1261 19.8762 14.1462C18.9791 14.1563 18.0622 14.1663 17.1352 14.1663C16.6468 14.1663 15.8694 14.0959 15.391 13.9852C14.0853 13.6834 12.7298 13.8444 11.4241 14.0154C10.4573 14.1361 9.46054 14.2569 8.48376 14.1965C8.16482 14.1764 7.8359 14.1965 7.48705 14.2669C7.29768 14.3072 7.11827 14.3374 6.92889 14.3676C6.64981 14.4179 6.3807 14.448 6.10162 14.4782C5.6232 14.5285 5.14478 14.5688 4.66636 14.5788C4.28761 14.5889 3.90886 14.5889 3.53011 14.5788C2.7427 14.5487 1.9553 14.4682 1.17786 14.3273C0.858917 14.277 0.539969 14.2468 0.211054 14.2569C0.201087 14.1965 0.191119 14.1361 0.181152 14.0758C0.530002 14.0657 0.888818 14.0858 1.2277 14.1462C2.35398 14.3474 3.5002 14.4279 4.65639 14.3877C5.13481 14.3776 5.6232 14.3374 6.10162 14.2871C6.55014 14.2368 6.9887 14.1663 7.43722 14.0858C7.806 14.0154 8.16482 13.9953 8.5037 14.0154C9.46054 14.0758 10.4473 13.955 11.3942 13.8343C12.7198 13.6633 14.0953 13.4922 15.4508 13.8142C15.8993 13.9148 16.6767 13.9852 17.1352 13.9852C18.0522 13.9953 18.9791 13.9752 19.8662 13.9651C21.1918 13.945 22.4477 13.9349 23.6836 13.9651C23.7135 13.9651 23.7335 13.9651 23.7534 13.9651Z" fill="white"/>
<path d="M23.3646 14.6592C23.4443 14.6693 23.534 14.6693 23.6237 14.6693C23.6138 14.7297 23.6038 14.79 23.5839 14.8504C23.5041 14.8504 23.4244 14.8504 23.3546 14.8404C21.8994 14.7498 20.4143 14.78 18.8495 14.8202C17.9325 14.8404 16.9757 14.8705 16.0188 14.8605C14.9523 14.8303 13.8559 14.8705 12.7994 14.9007C11.6831 14.9309 10.5369 14.9711 9.41061 14.941C8.73285 14.9208 8.05509 14.8202 7.40722 14.6391C6.97864 14.5184 6.54008 14.4681 6.1115 14.4681C5.63308 14.458 5.15465 14.5083 4.67623 14.5687C4.34732 14.619 4.02837 14.6693 3.70942 14.7196C2.78248 14.8806 1.81567 15.0416 0.878758 14.941C0.709317 14.9208 0.539877 14.9108 0.370436 14.9108C0.350502 14.8504 0.340534 14.79 0.330566 14.7297C0.529909 14.7297 0.719285 14.7397 0.918628 14.7599C1.7758 14.8504 2.64294 14.7096 3.54995 14.5586C3.58982 14.5486 3.62968 14.5486 3.66955 14.5385C3.99847 14.4882 4.32738 14.4278 4.66626 14.3775C5.14469 14.3071 5.62311 14.2669 6.1115 14.2769C6.39058 14.2769 6.65969 14.297 6.93877 14.3474C7.11818 14.3775 7.29758 14.4077 7.47699 14.458C8.10492 14.6291 8.76275 14.7297 9.42058 14.7498C10.5369 14.78 11.6831 14.7498 12.7895 14.7096C13.856 14.6794 14.9523 14.6391 16.0288 14.6693C16.9657 14.6794 17.9225 14.6492 18.8395 14.6291C20.4043 14.5989 21.8895 14.5586 23.3646 14.6592Z" fill="white"/>
<path d="M22.7965 15.1822C23.0257 15.2325 23.245 15.2627 23.4742 15.2728C23.4543 15.3332 23.4443 15.3935 23.4244 15.4539C23.1951 15.4338 22.9659 15.4036 22.7466 15.3533C21.6403 15.1219 20.5239 15.2929 19.3379 15.474C18.2315 15.645 17.0953 15.8161 15.949 15.645C14.5835 15.2728 13.1881 15.4438 11.8426 15.6048C11.7728 15.6149 11.6931 15.6249 11.6233 15.635C10.806 15.7356 9.96877 15.8262 9.1415 15.7859C8.98202 15.7758 8.81258 15.7658 8.65311 15.7457C8.14478 15.6954 7.72616 15.6853 7.32748 15.7155C5.80251 15.8563 4.29747 15.7859 2.84227 15.7155C2.20438 15.6853 1.54655 15.6551 0.91862 15.645C0.799015 15.645 0.679409 15.635 0.559803 15.6149C0.539869 15.5545 0.519934 15.4841 0.5 15.4237C0.63954 15.4438 0.779081 15.4539 0.91862 15.4639C1.55652 15.474 2.21435 15.5042 2.85224 15.5344C4.29747 15.6048 5.79254 15.6752 7.29758 15.5344C7.70623 15.4941 8.14478 15.5042 8.67304 15.5646C9.69965 15.6752 10.7661 15.5444 11.8027 15.4237C13.1782 15.2527 14.6035 15.0816 15.9989 15.4639C17.0853 15.6249 18.2016 15.4539 19.288 15.2929C20.4442 15.1219 21.6403 14.9408 22.7965 15.1822Z" fill="white"/>
<path d="M23.1656 16.2286C23.1456 16.2889 23.1157 16.3493 23.0958 16.4097C22.1888 16.46 21.2619 16.3594 20.3648 16.2587C19.1488 16.1279 17.9029 15.9871 16.657 16.1984C16.069 16.299 15.5507 16.3191 15.0723 16.2688C14.6337 16.2185 14.1752 16.1481 13.7466 16.0776C12.0423 15.816 10.288 15.5545 8.58367 16.138C8.19495 16.2688 7.80623 16.3292 7.42748 16.309C6.80952 16.2789 6.18159 16.299 5.56363 16.3392C5.21478 16.3594 4.86593 16.3895 4.51708 16.4197C4.50712 16.4197 4.49715 16.4197 4.48718 16.4197C3.76955 16.4801 3.02202 16.5405 2.29442 16.5405H2.27448C2.21468 16.5405 2.15488 16.5405 2.08511 16.5405C1.89573 16.5405 1.70636 16.5304 1.51698 16.5103C1.27777 16.4902 1.04853 16.46 0.829249 16.4197C0.799348 16.3493 0.779413 16.2789 0.749512 16.2185C1.16813 16.309 1.61665 16.3594 2.08511 16.3694C2.14491 16.3694 2.20471 16.3694 2.26452 16.3694C2.98215 16.3694 3.68981 16.309 4.44731 16.2487C4.46725 16.2487 4.47722 16.2487 4.49715 16.2487C5.45399 16.1682 6.45071 16.0877 7.44742 16.138C7.7863 16.1581 8.13515 16.0978 8.49397 15.977C8.70328 15.9066 8.92255 15.8462 9.13186 15.7959C9.95913 15.6048 10.7864 15.5846 11.6137 15.645C12.3413 15.6953 13.0689 15.806 13.7865 15.9167C14.2151 15.9871 14.6736 16.0475 15.1121 16.1078C15.5607 16.1581 16.049 16.138 16.6172 16.0475C17.9029 15.8261 19.1787 15.967 20.4047 16.0978C21.3516 16.1883 22.2685 16.2889 23.1656 16.2286Z" fill="white"/>
<path d="M22.8962 16.9026C22.8763 16.963 22.8464 17.0234 22.8165 17.0837C22.1786 17.0636 21.5208 16.9932 20.8929 16.9328C19.4676 16.7819 18.0024 16.631 16.5273 16.953C16.1684 17.0334 15.7897 17.0133 15.4508 16.9026C13.2381 16.1782 10.9855 16.5706 8.82267 16.953C8.32431 17.0435 7.79606 17.0234 7.31764 16.8926C6.33089 16.631 5.39398 16.4801 4.48697 16.4398C3.72947 16.3996 3.00187 16.4398 2.29421 16.5606C1.92542 16.6209 1.55664 16.7014 1.18786 16.802C1.12805 16.8222 1.06825 16.8322 0.99848 16.8523C0.968579 16.792 0.948645 16.7417 0.928711 16.6813C0.988514 16.6712 1.05828 16.6511 1.11809 16.631C1.24766 16.5907 1.3872 16.5606 1.52674 16.5304C1.77592 16.47 2.02509 16.4197 2.27427 16.3795C2.98194 16.2688 3.70954 16.2285 4.45707 16.2587C4.82586 16.2688 5.19464 16.309 5.57339 16.3493C6.17142 16.4298 6.76944 16.5505 7.38741 16.7115C7.83593 16.8322 8.31435 16.8523 8.7828 16.7718C10.9855 16.3895 13.268 15.9871 15.5505 16.7316C15.8395 16.8322 16.1784 16.8423 16.4874 16.7718C18.0024 16.4398 19.4875 16.6008 20.9327 16.7517C21.6005 16.8121 22.2484 16.8825 22.8962 16.9026Z" fill="white"/>
<path d="M22.5374 17.6573C22.5075 17.7176 22.4776 17.778 22.4477 17.8384C22.1886 17.8283 21.9394 17.8283 21.6802 17.8384C20.245 17.8786 18.6403 17.8585 16.7664 17.7981C16.2282 17.778 15.7299 17.6975 15.2813 17.5567C13.9657 17.1542 12.6102 17.3756 11.2945 17.5768C10.1682 17.7579 9.01202 17.949 7.86581 17.7579C6.50031 17.3051 5.14478 17.5164 3.82912 17.7176C3.07162 17.8384 2.30415 17.949 1.53668 17.949C1.50678 17.8887 1.46691 17.8283 1.43701 17.7679C2.19451 17.7881 2.97195 17.6673 3.77929 17.5466C5.12485 17.3353 6.52024 17.124 7.92561 17.5969C9.00206 17.778 10.1383 17.5969 11.2447 17.4158C12.5902 17.1945 13.9856 16.9731 15.3611 17.3957C15.7897 17.5265 16.2681 17.607 16.7764 17.617C18.6403 17.6774 20.235 17.6975 21.6703 17.6573C21.9593 17.6472 22.2484 17.6472 22.5374 17.6573Z" fill="white"/>
<path d="M22.2385 18.1908C22.2086 18.2512 22.1687 18.3116 22.1388 18.3619C22.1189 18.3619 22.0989 18.3518 22.079 18.3518C20.1952 18.1405 18.2417 17.9192 16.2781 18.4524C16.0888 18.5027 15.9393 18.5329 15.7997 18.553C14.2847 18.7542 12.7498 18.6738 11.2547 18.5933C10.4374 18.553 9.5902 18.4927 8.76292 18.5128C8.39414 18.5128 8.03533 18.553 7.68648 18.6335C7.30773 18.7241 6.91901 18.7643 6.54026 18.7744C6.15154 18.7844 5.75285 18.7542 5.3741 18.714C4.94552 18.6637 4.51693 18.5933 4.08834 18.5228C3.27104 18.382 2.4936 18.2512 1.72614 18.2814C1.69623 18.221 1.65637 18.1606 1.62646 18.1103C2.4637 18.0701 3.31091 18.2109 4.13818 18.3518C5.2844 18.543 6.46052 18.7442 7.62667 18.4725C7.98549 18.392 8.36424 18.3417 8.76292 18.3417C9.60016 18.3417 10.4474 18.382 11.2746 18.4222C12.7498 18.5027 14.2847 18.5832 15.7698 18.382C15.8994 18.3619 16.0389 18.3317 16.2183 18.2914C18.2317 17.7481 20.2151 17.9695 22.1189 18.1908C22.1488 18.1808 22.1986 18.1908 22.2385 18.1908Z" fill="white"/>
<path d="M21.8698 18.774C21.83 18.8344 21.7901 18.8948 21.7502 18.9551C20.8532 18.9149 19.9462 19.0155 19.0093 19.1061C18.2019 19.1866 17.3747 19.2771 16.5374 19.2771C16.5275 19.2771 16.5275 19.2771 16.5175 19.2771C16.1587 19.2771 15.7899 19.3173 15.3812 19.4079C14.7732 19.5387 14.1553 19.589 13.5473 19.6091H13.5274C13.4476 19.6091 13.3679 19.6091 13.2881 19.6091C13.1486 19.6091 12.9991 19.6091 12.8596 19.5991C12.1021 19.5789 11.3545 19.5085 10.617 19.4381C9.91926 19.3677 9.19166 19.2972 8.48399 19.2771C8.16505 19.267 7.82616 19.2167 7.47731 19.1262C5.92244 18.7338 4.3576 18.9149 2.85257 19.0759C2.67316 19.096 2.48379 19.1161 2.29441 19.1362C2.25454 19.0859 2.21467 19.0256 2.1748 18.9652C2.38411 18.9451 2.59342 18.925 2.8127 18.8948C3.64994 18.8042 4.50711 18.7036 5.36428 18.7036C5.753 18.7036 6.14172 18.7237 6.53044 18.764C6.85935 18.8042 7.19823 18.8646 7.52715 18.9451C7.85606 19.0256 8.17501 19.0759 8.47403 19.0859C9.19166 19.1061 9.91926 19.1765 10.6269 19.2469C12.1718 19.3978 13.7666 19.5488 15.3115 19.2268C15.7401 19.1362 16.1288 19.096 16.5075 19.096H16.5275C17.3448 19.096 18.172 19.0055 18.9694 18.925C19.9362 18.8344 20.913 18.7338 21.8698 18.774Z" fill="white"/>
<path d="M20.9425 19.9918C20.8927 20.0522 20.8329 20.1226 20.7731 20.183C19.1883 20.2635 17.5736 20.2534 15.9291 19.9918C13.9356 19.6698 11.8824 19.7906 9.89895 19.9013C9.53016 19.9214 9.16138 19.9415 8.7926 19.9616C8.35404 19.9817 7.89556 20.0421 7.41713 20.1327C6.73937 20.2735 6.0616 20.3138 5.38384 20.3138C4.62634 20.3138 3.86884 20.2534 3.1213 20.183C3.0615 20.1125 3.0017 20.0522 2.94189 19.9817C4.37716 20.1226 5.86226 20.2534 7.34736 19.9516C7.83575 19.8509 8.31417 19.7906 8.76269 19.7705C9.13148 19.7503 9.50026 19.7302 9.86904 19.7101C10.8458 19.6497 11.8425 19.5994 12.8392 19.5894C13.0585 19.5894 13.2878 19.5894 13.507 19.5994H13.527C14.3443 19.6195 15.1516 19.6799 15.959 19.8107C17.6633 20.0824 19.3179 20.0723 20.9425 19.9918Z" fill="white"/>
<path d="M19.6767 21.2596C19.6468 21.2898 19.6169 21.3099 19.587 21.3401C19.5471 21.3803 19.5073 21.4105 19.4674 21.4407C19.1983 21.4306 18.9292 21.4206 18.67 21.3904C17.9524 21.32 17.2646 21.169 16.5869 20.9376C16.248 20.827 15.8693 20.7767 15.5005 20.8068C14.4739 20.8773 13.4373 20.7767 12.4206 20.6861C11.2345 20.5754 9.99862 20.4648 8.80256 20.6257C8.27431 20.6962 7.84572 20.7264 7.4271 20.7163C6.46029 20.6861 5.48351 20.7364 4.53663 20.7867C4.26752 20.7968 4.00838 20.8169 3.74923 20.827C3.68943 20.7666 3.62963 20.7062 3.56982 20.6559C3.88877 20.6459 4.19775 20.6257 4.52667 20.6157C5.47355 20.5654 6.45032 20.5151 7.43707 20.5452C7.83575 20.5553 8.25437 20.5251 8.76269 20.4648C9.98865 20.2937 11.2445 20.4145 12.4505 20.5251C13.4472 20.6157 14.4838 20.7163 15.4805 20.6459C15.8892 20.6157 16.2978 20.666 16.6766 20.7968C17.6235 21.0986 18.6202 21.2596 19.6767 21.2596Z" fill="white"/>
<path d="M19.5869 21.3298C19.5471 21.3701 19.5072 21.4002 19.4673 21.4304C19.4275 21.4606 19.3876 21.5008 19.3477 21.531C18.2015 21.6115 17.0254 21.6316 15.8493 21.4103C15.0519 21.4204 14.2047 21.4405 13.3874 21.4707C11.7229 21.521 9.99856 21.5713 8.32409 21.4505C8.07491 21.4304 7.81576 21.4606 7.55662 21.521C6.68948 21.7423 5.84228 21.8329 4.99507 21.853C4.91533 21.7926 4.8356 21.7323 4.75586 21.6719C5.6529 21.6719 6.56988 21.5813 7.48685 21.3499C7.7759 21.2795 8.06494 21.2493 8.34402 21.2694C10.0085 21.3902 11.7229 21.3399 13.3774 21.2896C14.1947 21.2694 15.0419 21.2393 15.8792 21.2393C16.826 21.4204 17.753 21.4405 18.67 21.4002C18.969 21.3701 19.278 21.36 19.5869 21.3298Z" fill="white"/>
<path d="M18.4508 22.175C18.3611 22.2354 18.2614 22.2958 18.1717 22.3561C17.7332 22.3461 17.2847 22.336 16.8461 22.3058C16.4773 22.2756 16.0886 22.1951 15.67 22.0543C14.5238 21.672 13.3875 21.9335 12.1815 22.2253C11.414 22.4064 10.6266 22.5976 9.84919 22.5976C9.28106 22.5976 8.70297 22.497 8.13484 22.2253C7.2378 22.004 6.32082 22.0342 5.41381 22.1348C5.33408 22.0845 5.25434 22.0342 5.18457 21.9738C6.18128 21.8531 7.2079 21.8028 8.22454 22.0543C9.52027 22.668 10.7861 22.3662 12.1217 22.0442C13.3078 21.7625 14.5437 21.4707 15.7597 21.8832C16.1584 22.014 16.5172 22.0945 16.866 22.1147C17.3943 22.1549 17.9226 22.175 18.4508 22.175Z" fill="white"/>
<path d="M17.1451 22.9197C17.0454 22.97 16.9358 23.0203 16.8262 23.0707C16.6069 23.0405 16.3976 23.0103 16.1982 22.97C16.0188 22.9399 15.8494 22.9197 15.67 22.9399C14.2845 23.0405 12.8792 22.9902 11.5137 22.9499C10.4572 22.9197 9.36078 22.8795 8.2943 22.9097C8.12486 22.9197 7.93548 22.9399 7.71621 22.9801C7.5069 23.0203 7.30756 23.0505 7.09825 23.0807C6.98861 23.0304 6.88894 22.9801 6.7793 22.9298C7.06834 22.8996 7.36736 22.8594 7.6564 22.799C7.89562 22.7487 8.09496 22.7286 8.28433 22.7286C9.36078 22.6984 10.4572 22.7286 11.5236 22.7688C12.8792 22.8191 14.2845 22.8594 15.65 22.7688C15.8494 22.7487 16.0487 22.7688 16.2481 22.8091C16.5271 22.8392 16.8262 22.8896 17.1451 22.9197Z" fill="white"/>
<path d="M14.8626 23.7544C14.6434 23.8047 14.4241 23.855 14.2048 23.9053C13.9357 23.8852 13.6666 23.855 13.4074 23.8147L13.0187 23.7443C11.7728 23.533 10.4871 23.3217 9.24119 23.6236C9.12158 23.6538 8.99201 23.6839 8.8724 23.7041C8.74283 23.6739 8.62322 23.6336 8.49365 23.5934C8.71293 23.5532 8.9322 23.5028 9.17142 23.4425C10.4771 23.1306 11.7928 23.3519 13.0686 23.5632L13.4573 23.6236C13.9058 23.7041 14.3743 23.7443 14.8626 23.7544Z" fill="white"/>
<path d="M23.9029 12.0534H0.0117188C0.0117188 5.39283 5.36406 0 11.9523 0C18.5506 0 23.9029 5.39283 23.9029 12.0534Z" fill="white"/>
</g>
</g>
<defs>
<clipPath id="clip0_331_1548">
<rect width="188" height="37" fill="white"/>
</clipPath>
<clipPath id="clip1_331_1548">
<rect width="24" height="24" fill="white"/>
</clipPath>
</defs>
</svg>
