<svg width="348" height="230" viewBox="0 0 348 230" fill="none" xmlns="http://www.w3.org/2000/svg">
<g clip-path="url(#clip0_184_1921)">
<path d="M246.352 75.3385C246.352 75.7007 246.352 76.0629 246.292 76.4251C243.341 75.7007 240.451 75.3988 237.741 75.5196C235.031 75.6403 232.321 75.761 229.551 75.9421C220.338 76.4854 210.823 77.0288 201.249 75.8214C199.442 75.5799 197.515 75.7007 195.648 76.1232C181.196 79.3831 166.503 77.5117 152.231 75.7007L151.388 75.5799C150.605 75.4592 149.762 75.3988 148.919 75.3988C144.463 75.3385 139.947 75.2177 135.611 75.097C124.952 74.7952 114.956 74.433 105.08 75.3385C104.177 75.3988 103.274 75.4592 102.371 75.3385C102.31 75.3385 102.25 75.3385 102.13 75.3385C102.13 74.9763 102.13 74.6141 102.07 74.2518C102.19 74.2518 102.31 74.2518 102.431 74.2518C103.274 74.3122 104.117 74.3122 104.9 74.2518C114.896 73.3463 124.952 73.7085 135.611 74.0104C139.947 74.1311 144.463 74.3122 148.859 74.3122C149.762 74.3122 150.666 74.3726 151.569 74.4933L152.412 74.6141C166.503 76.4251 181.076 78.2965 195.227 75.097C197.214 74.6141 199.382 74.5537 201.369 74.7952C210.823 76.0025 220.278 75.4592 229.37 74.9159C232.141 74.7348 234.85 74.6141 237.56 74.4933C240.451 74.3726 243.341 74.6141 246.352 75.3385Z" fill="#BDA45F"/>
<path d="M246.111 79.0209C246.111 79.3831 246.051 79.7453 245.991 80.1075C245.569 80.0471 245.208 79.9867 244.786 79.9264C238.102 79.5038 231.297 79.8056 224.131 80.1075C215.761 80.4697 207.03 80.8319 198.358 79.9868C187.459 79.6245 176.198 79.7453 165.298 79.866C160.541 79.9264 155.844 79.9868 151.147 79.9868C150.545 79.9868 150.003 79.9867 149.401 79.9264C142.115 79.3227 134.768 79.7453 127.662 80.1679C119.954 80.5904 112.668 81.013 105.382 80.2282C104.358 80.1075 103.394 80.0471 102.491 80.1075C102.431 79.7453 102.431 79.3831 102.371 79.0209C103.394 78.9605 104.418 79.0209 105.562 79.1416C112.728 79.9264 119.954 79.5038 127.602 79.0812C134.768 78.6587 142.175 78.2361 149.582 78.9001C150.123 78.9605 150.665 78.9605 151.147 78.9605C155.844 78.9605 160.541 78.9001 165.298 78.8398C176.198 78.719 187.459 78.5983 198.479 78.9605C207.15 79.8057 215.761 79.4434 224.071 79.0812C231.297 78.7794 238.162 78.4776 244.967 78.9605C245.328 78.9001 245.75 78.9605 246.111 79.0209Z" fill="#BDA45F"/>
<path d="M245.509 83.7901C245.449 84.1523 245.388 84.5145 245.328 84.8767C245.208 84.8767 245.148 84.8767 245.027 84.8767C237.62 84.6353 230.093 84.756 222.084 84.8767C216.664 84.9371 211.124 84.9975 205.524 84.9975C202.573 84.9975 197.876 84.5749 194.986 83.9108C187.097 82.0998 178.908 83.0657 171.019 84.092C165.178 84.8164 159.156 85.5408 153.255 85.1786C151.328 85.0578 149.341 85.1786 147.233 85.6011C146.089 85.8426 145.005 86.0237 143.861 86.2048C142.175 86.5066 140.549 86.6877 138.863 86.8688C135.972 87.1707 133.082 87.4122 130.191 87.4725C127.903 87.5329 125.615 87.5329 123.327 87.4725C118.569 87.2914 113.812 86.8085 109.115 85.9633C107.188 85.6615 105.261 85.4804 103.274 85.5408C103.214 85.1786 103.153 84.8164 103.093 84.4542C105.201 84.3938 107.369 84.5145 109.416 84.8767C116.221 86.0841 123.146 86.567 130.131 86.3255C133.022 86.2652 135.972 86.0237 138.863 85.7219C141.573 85.42 144.222 84.9975 146.932 84.5145C149.16 84.0919 151.328 83.9712 153.375 84.092C159.156 84.4542 165.118 83.7297 170.839 83.0053C178.848 81.9791 187.158 80.9528 195.347 82.8846C198.057 83.4883 202.754 83.9108 205.524 83.9108C211.064 83.9712 216.664 83.8505 222.024 83.7901C230.033 83.6694 237.62 83.609 245.087 83.7901C245.268 83.7901 245.388 83.7901 245.509 83.7901Z" fill="#BDA45F"/>
<path d="M243.16 87.9555C243.642 88.0159 244.184 88.0159 244.726 88.0159C244.666 88.3781 244.606 88.7403 244.485 89.1025C244.004 89.1025 243.522 89.1025 243.1 89.0421C234.308 88.4988 225.336 88.6799 215.882 88.9214C210.342 89.0421 204.561 89.2232 198.78 89.1628C192.336 88.9817 185.712 89.2232 179.329 89.4043C172.585 89.5854 165.66 89.8269 158.855 89.6458C154.76 89.525 150.666 88.9214 146.751 87.8348C144.162 87.1103 141.512 86.8085 138.923 86.8085C136.033 86.7481 133.142 87.05 130.252 87.4122C128.264 87.714 126.337 88.0159 124.41 88.3177C118.81 89.2836 112.969 90.2495 107.309 89.6458C106.285 89.525 105.261 89.4647 104.237 89.4647C104.117 89.1025 104.057 88.7403 103.997 88.3781C105.201 88.3781 106.345 88.4384 107.549 88.5592C112.728 89.1025 117.967 88.2573 123.447 87.3518C123.688 87.2914 123.929 87.2914 124.17 87.2311C126.157 86.9292 128.144 86.567 130.191 86.2652C133.082 85.8426 135.972 85.6012 138.923 85.6615C140.609 85.6615 142.235 85.7823 143.921 86.0841C145.005 86.2652 146.089 86.4463 147.173 86.7481C150.967 87.7744 154.941 88.3781 158.915 88.4988C165.66 88.6799 172.585 88.4988 179.269 88.2573C185.712 88.0762 192.336 87.8348 198.84 88.0159C204.5 88.0762 210.281 87.8951 215.821 87.7744C225.276 87.5933 234.248 87.3518 243.16 87.9555Z" fill="#BDA45F"/>
<path d="M239.728 91.0944C241.113 91.3962 242.438 91.5773 243.823 91.6377C243.702 91.9999 243.642 92.3621 243.522 92.7243C242.137 92.6036 240.752 92.4225 239.427 92.1206C232.743 90.7322 225.998 91.7584 218.832 92.845C212.148 93.8713 205.283 94.8975 198.358 93.8713C190.108 91.6377 181.678 92.6639 173.548 93.6298C173.127 93.6902 172.645 93.7505 172.224 93.8109C167.286 94.4146 162.227 94.9579 157.229 94.7164C156.266 94.656 155.242 94.5957 154.279 94.4749C151.208 94.1731 148.678 94.1127 146.27 94.2938C137.056 95.139 127.963 94.7164 119.171 94.2938C115.318 94.1127 111.343 93.9316 107.549 93.8713C106.827 93.8713 106.104 93.8109 105.382 93.6902C105.261 93.328 105.141 92.9054 105.02 92.5432C105.863 92.6639 106.706 92.7243 107.549 92.7847C111.403 92.845 115.378 93.0261 119.232 93.2072C127.963 93.6298 136.996 94.0524 146.089 93.2072C148.558 92.9658 151.207 93.0261 154.399 93.3883C160.602 94.0524 167.045 93.2676 173.308 92.5432C181.618 91.5169 190.229 90.4907 198.659 92.7847C205.223 93.7505 211.967 92.7243 218.531 91.7584C225.517 90.7322 232.743 89.6455 239.728 91.0944Z" fill="#BDA45F"/>
<path d="M241.956 97.3728C241.836 97.735 241.655 98.0972 241.534 98.4594C236.055 98.7613 230.454 98.1576 225.035 97.5539C217.688 96.7691 210.161 95.924 202.634 97.1917C199.081 97.7954 195.949 97.9161 193.059 97.6143C190.409 97.3124 187.639 96.8899 185.05 96.4673C174.753 94.8978 164.154 93.3282 153.857 96.8295C151.509 97.6143 149.16 97.9765 146.872 97.8558C143.138 97.6747 139.344 97.7954 135.611 98.0369C133.503 98.1576 131.396 98.3387 129.288 98.5198C129.228 98.5198 129.168 98.5198 129.107 98.5198C124.772 98.882 120.255 99.2442 115.859 99.2442H115.739C115.378 99.2442 115.016 99.2442 114.595 99.2442C113.451 99.2442 112.307 99.1838 111.162 99.0631C109.717 98.9424 108.332 98.7613 107.007 98.5198C106.827 98.0972 106.706 97.6747 106.526 97.3124C109.055 97.8558 111.765 98.1576 114.595 98.218C114.956 98.218 115.317 98.218 115.679 98.218C120.014 98.218 124.29 97.8558 128.867 97.4936C128.987 97.4936 129.047 97.4936 129.168 97.4936C134.949 97.0106 140.97 96.5277 146.992 96.8295C149.04 96.9502 151.147 96.588 153.315 95.8636C154.58 95.4411 155.904 95.0789 157.169 94.777C162.167 93.63 167.165 93.5093 172.163 93.8715C176.559 94.1733 180.955 94.8374 185.291 95.5014C187.88 95.924 190.65 96.2862 193.3 96.6484C196.01 96.9502 198.96 96.8295 202.393 96.2862C210.161 94.9581 217.869 95.8033 225.276 96.588C230.996 97.1313 236.536 97.735 241.956 97.3728Z" fill="#BDA45F"/>
<path d="M240.33 101.417C240.21 101.78 240.029 102.142 239.848 102.504C235.994 102.383 232.02 101.961 228.226 101.598C219.615 100.693 210.763 99.7874 201.851 101.719C199.683 102.202 197.395 102.081 195.347 101.417C181.979 97.0709 168.37 99.4252 155.302 101.719C152.291 102.262 149.1 102.142 146.209 101.357C140.248 99.7874 134.587 98.8819 129.107 98.6404C124.531 98.399 120.135 98.6404 115.859 99.3648C113.631 99.727 111.403 100.21 109.175 100.814C108.814 100.934 108.453 100.995 108.031 101.115C107.85 100.753 107.73 100.451 107.61 100.089C107.971 100.029 108.392 99.9081 108.754 99.7874C109.537 99.5459 110.38 99.3648 111.223 99.1837C112.728 98.8215 114.234 98.5197 115.739 98.2782C120.015 97.6142 124.41 97.3727 128.927 97.5538C131.155 97.6142 133.383 97.8557 135.671 98.0971C139.284 98.5801 142.897 99.3045 146.631 100.27C149.341 100.995 152.231 101.115 155.061 100.633C168.37 98.3386 182.16 95.9239 195.949 100.391C197.696 100.995 199.743 101.055 201.61 100.633C210.763 98.6404 219.736 99.6063 228.467 100.512C232.502 100.874 236.416 101.297 240.33 101.417Z" fill="#BDA45F"/>
<path d="M238.162 105.945C237.982 106.307 237.801 106.669 237.62 107.031C236.055 106.971 234.549 106.971 232.983 107.031C224.312 107.273 214.617 107.152 203.296 106.79C200.044 106.669 197.033 106.186 194.324 105.341C186.375 102.926 178.185 104.255 170.236 105.462C163.432 106.549 156.446 107.696 149.521 106.549C141.271 103.832 133.082 105.1 125.133 106.307C120.556 107.031 115.92 107.696 111.283 107.696C111.102 107.333 110.861 106.971 110.681 106.609C115.257 106.73 119.954 106.005 124.832 105.281C132.961 104.013 141.392 102.745 149.883 105.583C156.386 106.669 163.251 105.583 169.935 104.496C178.065 103.168 186.495 101.84 194.805 104.375C197.395 105.16 200.285 105.643 203.356 105.703C214.617 106.066 224.252 106.186 232.923 105.945C234.67 105.884 236.416 105.884 238.162 105.945Z" fill="#BDA45F"/>
<path d="M236.356 109.144C236.175 109.507 235.934 109.869 235.754 110.171C235.633 110.171 235.513 110.11 235.392 110.11C224.011 108.843 212.208 107.514 200.345 110.714C199.201 111.016 198.298 111.197 197.455 111.318C188.302 112.525 179.028 112.042 169.996 111.559C165.058 111.318 159.939 110.955 154.941 111.076C152.713 111.076 150.545 111.318 148.438 111.801C146.149 112.344 143.801 112.585 141.512 112.646C139.164 112.706 136.755 112.525 134.467 112.284C131.878 111.982 129.288 111.559 126.699 111.137C121.761 110.291 117.064 109.507 112.427 109.688C112.246 109.326 112.006 108.963 111.825 108.661C116.883 108.42 122.002 109.265 127 110.11C133.925 111.257 141.031 112.465 148.076 110.835C150.244 110.352 152.532 110.05 154.941 110.05C159.999 110.05 165.118 110.291 170.116 110.533C179.028 111.016 188.302 111.499 197.274 110.291C198.057 110.171 198.9 109.99 199.984 109.748C212.148 106.488 224.132 107.816 235.633 109.144C235.814 109.084 236.115 109.144 236.356 109.144Z" fill="#BDA45F"/>
<path d="M234.128 112.646C233.887 113.008 233.646 113.37 233.405 113.732C227.986 113.491 222.506 114.095 216.845 114.638C211.968 115.121 206.969 115.664 201.911 115.664C201.851 115.664 201.851 115.664 201.791 115.664C199.623 115.664 197.395 115.906 194.926 116.449C191.253 117.234 187.519 117.535 183.846 117.656H183.725C183.244 117.656 182.762 117.656 182.28 117.656C181.437 117.656 180.534 117.656 179.691 117.596C175.114 117.475 170.598 117.053 166.142 116.63C161.926 116.207 157.53 115.785 153.255 115.664C151.328 115.604 149.281 115.302 147.173 114.759C137.779 112.404 128.325 113.491 119.232 114.457C118.148 114.577 117.004 114.698 115.86 114.819C115.619 114.517 115.378 114.155 115.137 113.793C116.402 113.672 117.666 113.551 118.991 113.37C124.049 112.827 129.228 112.223 134.407 112.223C136.755 112.223 139.104 112.344 141.452 112.585C143.439 112.827 145.487 113.189 147.474 113.672C149.461 114.155 151.388 114.457 153.195 114.517C157.53 114.638 161.926 115.06 166.202 115.483C175.536 116.389 185.171 117.294 194.504 115.362C197.094 114.819 199.442 114.577 201.73 114.577H201.851C206.789 114.577 211.787 114.034 216.604 113.551C222.446 113.008 228.347 112.404 234.128 112.646Z" fill="#BDA45F"/>
<path d="M228.527 119.95C228.226 120.312 227.865 120.735 227.504 121.097C217.929 121.58 208.174 121.52 198.238 119.95C186.194 118.018 173.789 118.743 161.806 119.407C159.578 119.528 157.35 119.648 155.122 119.769C152.472 119.89 149.702 120.252 146.812 120.795C142.717 121.64 138.622 121.882 134.527 121.882C129.951 121.882 125.374 121.52 120.858 121.097C120.496 120.675 120.135 120.312 119.774 119.89C128.445 120.735 137.418 121.52 146.39 119.709C149.341 119.105 152.231 118.743 154.941 118.622C157.169 118.501 159.397 118.381 161.625 118.26C167.527 117.898 173.548 117.596 179.57 117.535C180.895 117.535 182.28 117.535 183.605 117.596H183.725C188.663 117.717 193.541 118.079 198.418 118.863C208.716 120.493 218.712 120.433 228.527 119.95Z" fill="#BDA45F"/>
<path d="M220.88 127.556C220.699 127.737 220.518 127.858 220.338 128.039C220.097 128.281 219.856 128.462 219.615 128.643C217.989 128.583 216.363 128.522 214.798 128.341C210.462 127.919 206.307 127.013 202.212 125.625C200.165 124.961 197.876 124.659 195.648 124.84C189.446 125.262 183.183 124.659 177.041 124.115C169.875 123.451 162.408 122.787 155.182 123.753C151.99 124.176 149.401 124.357 146.872 124.297C141.031 124.115 135.129 124.417 129.409 124.719C127.783 124.779 126.217 124.9 124.651 124.961C124.29 124.598 123.929 124.236 123.567 123.934C125.494 123.874 127.361 123.753 129.348 123.693C135.069 123.391 140.97 123.089 146.932 123.27C149.341 123.331 151.87 123.15 154.941 122.787C162.348 121.761 169.935 122.485 177.222 123.15C183.243 123.693 189.506 124.297 195.528 123.874C197.997 123.693 200.466 123.995 202.754 124.779C208.475 126.59 214.497 127.556 220.88 127.556Z" fill="#BDA45F"/>
<path d="M220.338 127.979C220.097 128.221 219.856 128.402 219.615 128.583C219.374 128.764 219.133 129.005 218.893 129.186C211.968 129.669 204.862 129.79 197.756 128.462C192.939 128.522 187.82 128.643 182.882 128.824C172.826 129.126 162.408 129.428 152.291 128.704C150.786 128.583 149.22 128.764 147.655 129.126C142.416 130.454 137.297 130.997 132.179 131.118C131.697 130.756 131.215 130.394 130.733 130.032C136.153 130.032 141.693 129.488 147.233 128.1C148.979 127.677 150.726 127.496 152.412 127.617C162.468 128.341 172.826 128.039 182.822 127.738C187.76 127.617 192.878 127.436 197.937 127.436C203.657 128.522 209.258 128.643 214.798 128.402C216.604 128.221 218.471 128.16 220.338 127.979Z" fill="#BDA45F"/>
<path d="M213.473 133.05C212.931 133.412 212.329 133.774 211.787 134.136C209.137 134.076 206.427 134.016 203.778 133.835C201.55 133.654 199.201 133.171 196.672 132.325C189.747 130.031 182.882 131.601 175.596 133.352C170.959 134.438 166.202 135.585 161.505 135.585C158.072 135.585 154.58 134.982 151.147 133.352C145.728 132.024 140.188 132.205 134.708 132.808C134.226 132.507 133.744 132.205 133.323 131.843C139.345 131.118 145.547 130.816 151.689 132.325C159.518 136.008 167.165 134.197 175.235 132.265C182.4 130.575 189.867 128.824 197.214 131.299C199.623 132.084 201.791 132.567 203.898 132.688C207.09 132.929 210.281 133.05 213.473 133.05Z" fill="#BDA45F"/>
<path d="M205.584 137.517C204.982 137.819 204.32 138.121 203.657 138.422C202.333 138.241 201.068 138.06 199.864 137.819C198.78 137.638 197.756 137.517 196.672 137.638C188.302 138.241 179.811 137.94 171.561 137.698C165.178 137.517 158.554 137.275 152.111 137.457C151.087 137.517 149.943 137.638 148.618 137.879C147.353 138.121 146.149 138.302 144.885 138.483C144.222 138.181 143.62 137.879 142.958 137.577C144.704 137.396 146.51 137.155 148.257 136.793C149.702 136.491 150.906 136.37 152.05 136.37C158.554 136.189 165.178 136.37 171.621 136.611C179.811 136.913 188.302 137.155 196.552 136.611C197.756 136.491 198.96 136.611 200.165 136.853C201.851 137.034 203.657 137.336 205.584 137.517Z" fill="#BDA45F"/>
<path d="M191.795 142.527C190.47 142.829 189.145 143.131 187.82 143.433C186.194 143.312 184.568 143.131 183.003 142.89L180.654 142.467C173.127 141.199 165.359 139.932 157.832 141.743C157.109 141.924 156.326 142.105 155.603 142.226C154.821 142.045 154.098 141.803 153.315 141.562C154.64 141.32 155.965 141.018 157.41 140.656C165.299 138.785 173.247 140.113 180.955 141.38L183.304 141.743C186.014 142.226 188.844 142.467 191.795 142.527Z" fill="#BDA45F"/>
<path d="M246.412 72.3202H102.07C102.07 32.357 134.407 0 174.211 0C214.075 0 246.412 32.357 246.412 72.3202Z" fill="#BDA45F"/>
<path d="M12.465 205.793C10.3574 205.793 8.24979 205.491 6.08194 204.827C3.97431 204.163 1.92689 203.197 -0.0603027 201.808V194.625H2.46885L2.83016 200.42C4.33561 201.386 5.90128 202.05 7.46695 202.533C9.09284 203.016 10.7187 203.197 12.3446 203.197C14.2716 203.197 16.0179 202.895 17.4631 202.291C18.9084 201.688 20.0525 200.843 20.8354 199.756C21.6182 198.669 22.0397 197.402 22.0397 196.013C22.0397 194.625 21.7386 193.478 21.0762 192.451C20.4138 191.425 19.3901 190.52 17.8847 189.735C16.4394 188.95 14.4522 188.226 11.9231 187.562C9.21327 186.837 7.04542 186.053 5.2991 185.087C3.613 184.121 2.34842 183.034 1.50537 181.706C0.722532 180.378 0.301005 178.808 0.301005 176.997C0.301005 175.126 0.78275 173.496 1.80646 172.108C2.76994 170.659 4.15496 169.572 5.9615 168.787C7.70782 168.003 9.81545 167.58 12.164 167.58C14.6329 167.58 16.861 167.942 18.8482 168.727C20.8354 169.451 22.4612 170.417 23.8463 171.625V178.265H21.3171L20.9558 173.013C19.8719 172.168 18.6073 171.444 17.1621 170.961C15.7168 170.478 14.0307 170.236 12.164 170.236C10.3574 170.236 8.79175 170.538 7.46695 171.142C6.14215 171.745 5.17867 172.53 4.45605 173.556C3.73343 174.583 3.37212 175.73 3.37212 177.058C3.37212 178.325 3.67321 179.412 4.21518 180.318C4.75714 181.283 5.72063 182.068 7.10564 182.793C8.49066 183.517 10.4176 184.181 12.8866 184.845C16.9212 185.871 19.9321 187.26 21.9795 189.071C24.0269 190.822 25.0506 193.116 25.0506 196.013C25.0506 198.005 24.5087 199.696 23.4247 201.205C22.3408 202.654 20.8354 203.801 18.9084 204.646C17.2223 205.43 14.9942 205.793 12.465 205.793Z" fill="#BDA45F"/>
<path d="M56.2436 205.792C53.8951 205.792 51.7875 205.37 49.8605 204.464C47.9335 203.559 46.3076 202.291 44.9828 200.601C43.5978 198.911 42.5741 196.918 41.8515 194.625C41.1289 192.331 40.7676 189.735 40.7676 186.897V186.415C40.7676 183.577 41.1289 181.042 41.8515 178.688C42.5741 176.394 43.5978 174.401 44.9828 172.711C46.3679 171.021 47.9937 169.753 49.8605 168.848C51.7875 167.942 53.8951 167.52 56.2436 167.52C58.6523 167.52 60.8202 167.942 62.6869 168.848C64.6139 169.753 66.2398 171.021 67.5646 172.711C68.8894 174.401 69.9131 176.394 70.6357 178.688C71.3583 180.981 71.7196 183.577 71.7196 186.415V186.897C71.7196 189.735 71.3583 192.27 70.6357 194.625C69.9131 196.918 68.8894 198.911 67.5646 200.601C66.2398 202.291 64.6139 203.559 62.6869 204.464C60.76 205.37 58.5921 205.792 56.2436 205.792ZM56.2436 203.136C58.9534 203.136 61.1815 202.472 63.0483 201.144C64.915 199.816 66.3 197.884 67.2635 195.47C68.227 193.055 68.7087 190.218 68.7087 186.958V186.415C68.7087 183.155 68.227 180.378 67.2635 177.963C66.3 175.548 64.915 173.677 63.0483 172.289C61.1815 170.96 58.9534 170.236 56.2436 170.236C53.6542 170.236 51.4864 170.9 49.6196 172.289C47.7529 173.617 46.3679 175.548 45.3442 177.963C44.3204 180.378 43.8387 183.215 43.8387 186.415V186.958C43.8387 190.218 44.3204 193.055 45.3442 195.47C46.3679 197.884 47.7529 199.816 49.6196 201.144C51.4262 202.472 53.6542 203.136 56.2436 203.136Z" fill="#BDA45F"/>
<path d="M86.8342 205.249V203.016L90.9893 202.714V170.659L86.8342 170.357V168.123H114.294V176.273H111.704L111.463 170.659H94.0604V185.268H109.175V187.863H94.0604V202.774L98.2154 203.076V205.31H86.8342V205.249Z" fill="#BDA45F"/>
<path d="M145.125 205.793C141.753 205.793 138.803 205.008 136.334 203.378C133.865 201.808 131.938 199.575 130.613 196.737C129.288 193.9 128.626 190.64 128.626 186.898V186.052C128.626 182.37 129.288 179.171 130.673 176.333C132.058 173.556 133.925 171.383 136.334 169.814C138.742 168.244 141.452 167.459 144.463 167.459C147.173 167.459 149.521 167.821 151.448 168.485C153.375 169.15 155.061 170.115 156.507 171.262V178.205H153.857L153.616 172.651C152.532 171.866 151.328 171.262 149.883 170.84C148.498 170.417 146.751 170.176 144.644 170.176C142.175 170.176 139.947 170.84 138.02 172.168C136.033 173.496 134.527 175.367 133.383 177.722C132.239 180.076 131.637 182.853 131.637 185.992V186.837C131.637 190.037 132.179 192.874 133.202 195.349C134.286 197.764 135.792 199.695 137.779 201.084C139.766 202.472 142.175 203.136 145.005 203.136C146.992 203.136 148.799 202.895 150.304 202.472C151.81 202.05 153.134 201.506 154.279 200.903V191.063L146.631 190.942V188.467H157.29V202.11C155.965 203.076 154.279 203.921 152.291 204.706C150.485 205.43 148.016 205.793 145.125 205.793Z" fill="#BDA45F"/>
<path d="M173.548 205.31V203.076L177.703 202.774V170.719L173.548 170.417V168.184H189.205C191.855 168.184 194.083 168.546 195.949 169.331C197.756 170.115 199.201 171.262 200.165 172.772C201.128 174.281 201.61 176.092 201.61 178.325C201.61 180.438 201.128 182.249 200.104 183.698C199.141 185.147 197.696 186.294 195.949 187.018C194.143 187.803 192.035 188.165 189.627 188.165L180.835 188.226V202.714L184.99 203.016V205.249H173.548V205.31ZM180.775 185.69H188.904C192.216 185.69 194.625 185.026 196.19 183.638C197.756 182.249 198.539 180.499 198.539 178.265C198.539 175.85 197.756 173.979 196.19 172.711C194.625 171.383 192.336 170.719 189.205 170.719H180.775V185.69ZM198.479 205.31L190.53 186.837H193.601L200.707 202.835L203.718 203.016V205.31H198.479Z" fill="#BDA45F"/>
<path d="M218.652 205.249V203.016L221.361 202.835L234.549 168.063H237.44L250.507 202.835L253.217 203.016V205.249H244.064V203.016L247.315 202.774L244.244 194.383H227.624L224.493 202.774L227.745 203.016V205.249H218.652ZM228.588 191.727H243.281L236.597 173.436L236.115 171.927H235.934L235.392 173.436L228.588 191.727Z" fill="#BDA45F"/>
<path d="M267.669 205.249V203.016L271.824 202.714V170.659L267.669 170.357V168.123H271.824H274.895L296.092 200.118L296.273 200.058V170.719L291.937 170.417V168.184H299.163H303.318V170.417L299.163 170.719V205.249H296.273L274.835 173.134L274.654 173.194V202.714L278.99 203.016V205.249H267.669Z" fill="#BDA45F"/>
<path d="M317.59 205.249V203.016L321.745 202.714V170.659L317.59 170.357V168.123H321.745H331.922C335.053 168.123 337.883 168.908 340.232 170.478C342.641 172.047 344.507 174.22 345.892 176.937C347.277 179.714 347.94 182.853 347.94 186.354V186.958C347.94 190.459 347.277 193.598 345.953 196.375C344.628 199.152 342.761 201.265 340.352 202.895C337.944 204.465 335.174 205.249 332.042 205.249H317.59ZM324.816 202.714H331.922C334.511 202.714 336.739 202.05 338.726 200.661C340.653 199.273 342.159 197.402 343.303 195.047C344.387 192.693 344.929 189.976 344.929 187.018V186.354C344.929 183.336 344.387 180.68 343.303 178.325C342.219 175.971 340.714 174.1 338.726 172.772C336.799 171.383 334.511 170.719 331.922 170.719H324.816V202.714Z" fill="#BDA45F"/>
<path d="M220.157 225.654C220.157 225.05 220.277 224.507 220.518 223.963C220.759 223.42 221.06 222.997 221.422 222.575C221.843 222.213 222.265 221.85 222.807 221.669C223.349 221.428 223.89 221.307 224.493 221.307C225.095 221.307 225.637 221.428 226.179 221.669C226.721 221.911 227.142 222.213 227.564 222.575C227.925 222.937 228.286 223.42 228.467 223.963C228.708 224.507 228.828 225.05 228.828 225.654V225.714V229.336C228.828 229.517 228.768 229.638 228.648 229.759C228.527 229.879 228.407 229.94 228.226 229.94C228.046 229.94 227.925 229.879 227.805 229.759C227.684 229.638 227.624 229.517 227.624 229.336V228.612C227.202 229.034 226.781 229.396 226.239 229.638C225.697 229.879 225.155 230.06 224.493 230.06C223.89 230.06 223.349 229.94 222.807 229.698C222.265 229.457 221.843 229.155 221.422 228.793C221 228.37 220.699 227.948 220.518 227.404C220.277 226.801 220.157 226.257 220.157 225.654ZM221.361 225.654C221.361 226.076 221.422 226.499 221.602 226.861C221.783 227.223 221.964 227.585 222.265 227.887C222.566 228.189 222.867 228.43 223.288 228.551C223.65 228.732 224.071 228.793 224.493 228.793C224.914 228.793 225.336 228.732 225.757 228.551C226.119 228.37 226.48 228.129 226.781 227.887C227.082 227.585 227.263 227.283 227.443 226.861C227.624 226.499 227.684 226.076 227.684 225.654C227.684 225.231 227.624 224.808 227.443 224.446C227.263 224.084 227.082 223.722 226.781 223.42C226.48 223.118 226.179 222.877 225.757 222.756C225.396 222.575 224.974 222.514 224.553 222.514C224.131 222.514 223.71 222.575 223.349 222.756C222.987 222.937 222.626 223.118 222.325 223.42C222.024 223.722 221.843 224.024 221.662 224.446C221.422 224.808 221.361 225.231 221.361 225.654Z" fill="#BDA45F"/>
<path d="M237.018 229.336C237.018 229.517 236.958 229.638 236.837 229.758C236.717 229.879 236.596 229.94 236.416 229.94H236.356C235.934 229.94 235.573 229.879 235.211 229.698C234.85 229.577 234.549 229.336 234.308 229.094C234.067 228.853 233.826 228.491 233.706 228.129C233.586 227.766 233.465 227.344 233.465 226.921V218.832C233.465 218.651 233.525 218.53 233.646 218.409C233.766 218.289 233.887 218.228 234.067 218.228C234.248 218.228 234.368 218.289 234.489 218.409C234.609 218.53 234.669 218.651 234.669 218.832V226.921C234.669 227.464 234.85 227.947 235.151 228.249C235.452 228.551 235.874 228.732 236.356 228.732H236.416C236.596 228.732 236.717 228.793 236.837 228.913C236.958 229.034 237.018 229.155 237.018 229.336Z" fill="#BDA45F"/>
<path d="M244.606 229.336C244.606 229.517 244.545 229.638 244.425 229.758C244.305 229.879 244.184 229.94 244.003 229.94H243.943C243.522 229.94 243.16 229.879 242.799 229.698C242.438 229.577 242.137 229.336 241.896 229.094C241.655 228.853 241.414 228.491 241.294 228.129C241.173 227.766 241.053 227.344 241.053 226.921V218.832C241.053 218.651 241.113 218.53 241.233 218.409C241.354 218.289 241.474 218.228 241.655 218.228C241.836 218.228 241.956 218.289 242.076 218.409C242.197 218.53 242.257 218.651 242.257 218.832V226.921C242.257 227.464 242.438 227.947 242.739 228.249C243.04 228.551 243.461 228.732 243.943 228.732H244.003C244.184 228.732 244.305 228.793 244.425 228.913C244.545 229.034 244.606 229.155 244.606 229.336Z" fill="#BDA45F"/>
<path d="M262.37 219.556C262.37 219.375 262.43 219.194 262.551 219.013C262.671 218.892 262.852 218.832 263.032 218.832C263.213 218.832 263.394 218.892 263.514 219.013C263.634 219.134 263.695 219.315 263.695 219.556C263.695 219.738 263.634 219.919 263.514 220.039C263.394 220.16 263.213 220.22 263.032 220.22C262.912 220.22 262.852 220.22 262.731 220.16C262.671 220.1 262.551 220.039 262.49 219.979C262.43 219.919 262.37 219.858 262.37 219.738C262.37 219.738 262.37 219.677 262.37 219.556ZM263.695 229.276C263.695 229.457 263.634 229.577 263.514 229.698C263.394 229.819 263.273 229.879 263.092 229.879C262.912 229.879 262.791 229.819 262.671 229.698C262.551 229.577 262.49 229.457 262.49 229.276V222.031C262.49 221.85 262.551 221.73 262.671 221.609C262.791 221.488 262.912 221.428 263.092 221.428C263.273 221.428 263.394 221.488 263.514 221.609C263.634 221.73 263.695 221.85 263.695 222.031V229.276Z" fill="#BDA45F"/>
<path d="M269.656 225.472V229.276C269.656 229.457 269.596 229.577 269.476 229.698C269.355 229.819 269.235 229.879 269.054 229.879C268.873 229.879 268.753 229.819 268.633 229.698C268.512 229.577 268.452 229.457 268.452 229.276V225.472C268.452 224.869 268.572 224.386 268.753 223.843C268.934 223.36 269.235 222.877 269.596 222.514C269.957 222.152 270.379 221.85 270.861 221.609C271.342 221.367 271.884 221.307 272.487 221.307C273.028 221.307 273.57 221.428 274.052 221.609C274.534 221.85 274.955 222.092 275.317 222.514C275.678 222.937 275.919 223.36 276.16 223.843C276.34 224.325 276.461 224.869 276.461 225.472V225.533V229.336C276.461 229.517 276.401 229.638 276.28 229.759C276.16 229.879 276.039 229.94 275.859 229.94C275.678 229.94 275.558 229.879 275.437 229.759C275.317 229.638 275.257 229.517 275.257 229.336V225.533C275.257 225.472 275.257 225.472 275.257 225.412C275.257 224.99 275.196 224.627 275.016 224.265C274.895 223.903 274.654 223.601 274.414 223.36C274.173 223.118 273.872 222.877 273.57 222.756C273.209 222.575 272.848 222.514 272.487 222.514C272.065 222.514 271.704 222.575 271.342 222.756C270.981 222.937 270.68 223.118 270.439 223.36C270.198 223.601 269.957 223.903 269.837 224.265C269.716 224.627 269.656 225.05 269.656 225.472Z" fill="#BDA45F"/>
<path d="M281.7 225.654C281.7 225.714 281.7 225.714 281.7 225.714C281.7 226.136 281.76 226.499 281.941 226.861C282.121 227.223 282.302 227.585 282.603 227.887C282.904 228.189 283.205 228.43 283.566 228.612C283.928 228.793 284.349 228.853 284.771 228.913C285.192 228.913 285.554 228.853 285.915 228.732C286.276 228.612 286.577 228.43 286.878 228.129C286.939 228.068 286.999 228.008 287.059 228.008C287.119 227.947 287.18 227.947 287.3 227.887C287.36 227.887 287.481 227.887 287.541 227.887C287.601 227.887 287.722 227.947 287.842 228.068C287.962 228.189 288.023 228.31 288.023 228.491C288.023 228.672 287.962 228.793 287.782 228.974C287.601 229.155 287.42 229.336 287.18 229.457C286.939 229.577 286.698 229.698 286.457 229.819C286.216 229.94 285.915 230 285.674 230.06C285.373 230.121 285.132 230.121 284.831 230.121C284.229 230.121 283.687 230 283.145 229.759C282.603 229.517 282.181 229.215 281.76 228.853C281.399 228.491 281.037 228.008 280.857 227.465C280.616 226.921 280.495 226.378 280.495 225.774V225.714C280.495 225.11 280.616 224.567 280.857 224.024C281.098 223.48 281.399 223.058 281.76 222.635C282.121 222.273 282.603 221.911 283.145 221.73C283.687 221.549 284.229 221.367 284.831 221.367C285.373 221.367 285.915 221.488 286.457 221.669C286.999 221.85 287.42 222.152 287.782 222.514C287.902 222.635 287.962 222.816 288.023 222.997C288.023 223.178 287.962 223.299 287.842 223.42C287.722 223.48 287.661 223.541 287.601 223.601C287.541 223.601 287.42 223.601 287.36 223.601C287.3 223.601 287.18 223.541 287.119 223.48C287.059 223.42 286.999 223.36 286.939 223.36C286.638 223.058 286.337 222.877 285.975 222.756C285.614 222.635 285.253 222.575 284.831 222.575C284.41 222.575 284.048 222.696 283.627 222.816C283.265 222.997 282.964 223.239 282.663 223.48C282.362 223.782 282.181 224.084 282.001 224.446C281.82 224.808 281.7 225.231 281.7 225.654Z" fill="#BDA45F"/>
<path d="M295.911 229.336C295.911 229.517 295.851 229.638 295.731 229.758C295.61 229.879 295.49 229.94 295.309 229.94H295.249C294.827 229.94 294.466 229.879 294.105 229.698C293.743 229.577 293.442 229.336 293.201 229.094C292.961 228.853 292.72 228.491 292.599 228.129C292.479 227.766 292.358 227.344 292.358 226.921V218.832C292.358 218.651 292.419 218.53 292.539 218.409C292.659 218.289 292.78 218.228 292.961 218.228C293.141 218.228 293.262 218.289 293.382 218.409C293.503 218.53 293.563 218.651 293.563 218.832V226.921C293.563 227.464 293.743 227.947 294.044 228.249C294.346 228.551 294.767 228.732 295.249 228.732H295.309C295.49 228.732 295.61 228.793 295.731 228.913C295.851 229.034 295.911 229.155 295.911 229.336Z" fill="#BDA45F"/>
<path d="M301.15 225.835C301.15 226.257 301.21 226.619 301.391 226.981C301.512 227.344 301.752 227.646 301.993 227.947C302.234 228.249 302.535 228.43 302.897 228.611C303.258 228.793 303.619 228.853 304.041 228.853C304.462 228.853 304.824 228.793 305.185 228.611C305.546 228.43 305.787 228.249 306.028 227.947C306.269 227.646 306.449 227.344 306.57 226.981C306.69 226.619 306.751 226.197 306.751 225.835V222.092C306.751 221.911 306.811 221.79 306.931 221.669C307.052 221.548 307.172 221.488 307.353 221.488C307.533 221.488 307.654 221.548 307.774 221.669C307.895 221.79 307.955 221.911 307.955 222.092V225.895C307.955 226.499 307.834 227.042 307.654 227.525C307.473 228.008 307.172 228.491 306.871 228.853C306.51 229.215 306.088 229.517 305.606 229.758C305.125 230 304.583 230.121 304.041 230.121C303.439 230.121 302.957 230 302.415 229.819C301.933 229.577 301.512 229.275 301.15 228.913C300.789 228.551 300.488 228.068 300.307 227.585C300.127 227.102 300.006 226.559 300.006 225.955V222.152C300.006 221.971 300.066 221.85 300.187 221.73C300.307 221.609 300.428 221.548 300.608 221.548C300.789 221.548 300.909 221.609 301.03 221.73C301.15 221.85 301.21 221.971 301.21 222.152V225.835H301.15Z" fill="#BDA45F"/>
<path d="M314.76 225.955C314.458 225.835 314.218 225.774 313.916 225.654C313.615 225.533 313.375 225.352 313.194 225.171C312.953 224.989 312.772 224.808 312.652 224.507C312.531 224.265 312.471 223.963 312.471 223.601C312.471 223.239 312.531 222.877 312.712 222.635C312.893 222.333 313.073 222.092 313.314 221.911C313.555 221.73 313.856 221.549 314.218 221.488C314.579 221.367 314.94 221.367 315.301 221.367C315.542 221.367 315.843 221.367 316.084 221.428C316.325 221.488 316.566 221.549 316.807 221.669C317.048 221.79 317.228 221.911 317.409 222.031C317.59 222.213 317.71 222.333 317.831 222.575C317.891 222.696 317.891 222.816 317.891 222.937C317.891 223.058 317.831 223.178 317.77 223.239C317.71 223.299 317.59 223.36 317.469 223.42C317.349 223.42 317.228 223.42 317.168 223.36C316.927 223.058 316.626 222.877 316.385 222.756C316.084 222.635 315.783 222.575 315.362 222.575C315.121 222.575 314.94 222.575 314.699 222.635C314.519 222.696 314.278 222.756 314.157 222.816C313.977 222.937 313.856 222.997 313.796 223.178C313.736 223.36 313.676 223.48 313.676 223.722C313.676 223.903 313.736 224.084 313.796 224.205C313.916 224.325 314.037 224.446 314.157 224.567C314.278 224.688 314.519 224.748 314.699 224.808C314.94 224.869 315.121 224.929 315.362 225.05C315.723 225.171 316.145 225.291 316.446 225.412C316.807 225.533 317.108 225.714 317.349 225.895C317.59 226.076 317.831 226.318 317.951 226.619C318.132 226.861 318.192 227.223 318.192 227.585C318.192 227.947 318.132 228.249 317.951 228.551C317.77 228.853 317.59 229.094 317.349 229.336C317.108 229.577 316.747 229.758 316.385 229.879C316.024 230 315.663 230.06 315.241 230.06C314.94 230.06 314.639 230 314.338 229.94C314.037 229.879 313.736 229.758 313.495 229.638C313.254 229.517 313.013 229.336 312.772 229.155C312.531 228.974 312.411 228.732 312.23 228.491C312.11 228.31 312.11 228.129 312.17 228.008C312.23 227.887 312.291 227.766 312.411 227.706C312.531 227.646 312.652 227.585 312.833 227.646C313.013 227.646 313.134 227.766 313.254 227.887C313.435 228.189 313.736 228.43 314.037 228.612C314.398 228.793 314.82 228.853 315.241 228.853C315.482 228.853 315.723 228.793 315.904 228.732C316.145 228.672 316.325 228.551 316.446 228.43C316.626 228.31 316.747 228.189 316.807 228.008C316.927 227.827 316.927 227.646 316.927 227.465C316.927 227.283 316.867 227.102 316.747 226.921C316.626 226.74 316.446 226.619 316.205 226.499C315.964 226.378 315.723 226.257 315.482 226.136C315.302 226.136 315 226.016 314.76 225.955Z" fill="#BDA45F"/>
<path d="M322.708 219.556C322.708 219.375 322.768 219.194 322.889 219.013C323.009 218.892 323.19 218.832 323.371 218.832C323.551 218.832 323.732 218.892 323.852 219.013C323.973 219.134 324.033 219.315 324.033 219.556C324.033 219.738 323.973 219.919 323.852 220.039C323.732 220.16 323.551 220.22 323.371 220.22C323.25 220.22 323.19 220.22 323.07 220.16C323.009 220.1 322.889 220.039 322.829 219.979C322.768 219.919 322.708 219.858 322.708 219.738C322.708 219.738 322.708 219.677 322.708 219.556ZM323.973 229.276C323.973 229.457 323.913 229.577 323.792 229.698C323.672 229.819 323.551 229.879 323.371 229.879C323.19 229.879 323.07 229.819 322.949 229.698C322.829 229.577 322.768 229.457 322.768 229.276V222.031C322.768 221.85 322.829 221.73 322.949 221.609C323.07 221.488 323.19 221.428 323.371 221.428C323.551 221.428 323.672 221.488 323.792 221.609C323.913 221.73 323.973 221.85 323.973 222.031V229.276Z" fill="#BDA45F"/>
<path d="M331.861 228.008L334.692 221.85C334.752 221.669 334.872 221.609 334.993 221.548C335.113 221.488 335.294 221.488 335.475 221.548C335.655 221.609 335.715 221.73 335.776 221.85C335.836 222.031 335.836 222.152 335.776 222.333L332.464 229.577C332.403 229.698 332.343 229.819 332.223 229.879C332.102 229.94 332.042 230 331.922 230C331.801 230 331.681 229.94 331.56 229.879C331.44 229.819 331.38 229.698 331.32 229.577L328.008 222.333C327.947 222.152 327.947 222.031 328.008 221.85C328.068 221.669 328.188 221.609 328.309 221.548C328.489 221.488 328.61 221.488 328.79 221.548C328.971 221.609 329.031 221.73 329.091 221.85L331.861 228.008Z" fill="#BDA45F"/>
<path d="M340.352 226.197C340.412 226.559 340.533 226.921 340.713 227.223C340.894 227.525 341.135 227.827 341.376 228.068C341.617 228.31 341.978 228.491 342.279 228.612C342.64 228.732 343.002 228.793 343.363 228.793C343.785 228.793 344.206 228.732 344.628 228.551C345.049 228.37 345.35 228.129 345.591 227.827C345.772 227.646 346.013 227.646 346.193 227.706C346.314 227.766 346.374 227.827 346.494 227.948C346.555 228.068 346.615 228.189 346.615 228.31C346.615 228.491 346.555 228.612 346.374 228.732C346.073 229.095 345.651 229.396 345.109 229.638C344.628 229.879 344.025 230 343.363 230C342.761 230 342.219 229.879 341.677 229.638C341.135 229.396 340.713 229.095 340.292 228.732C339.87 228.31 339.569 227.887 339.389 227.344C339.148 226.801 339.027 226.257 339.027 225.654C339.027 225.05 339.148 224.507 339.389 223.963C339.63 223.42 339.931 222.997 340.292 222.575C340.713 222.152 341.135 221.85 341.677 221.669C342.219 221.428 342.761 221.307 343.363 221.307C343.965 221.307 344.507 221.428 345.049 221.669C345.591 221.911 346.013 222.213 346.434 222.575C346.795 222.937 347.157 223.42 347.337 223.963C347.578 224.507 347.699 225.05 347.699 225.654C347.699 225.835 347.639 225.955 347.518 226.076C347.398 226.197 347.277 226.257 347.097 226.257H340.352V226.197ZM346.494 225.231C346.434 224.869 346.314 224.507 346.193 224.144C346.013 223.843 345.772 223.541 345.531 223.299C345.23 223.058 344.929 222.877 344.567 222.756C344.206 222.635 343.845 222.575 343.423 222.575C343.002 222.575 342.64 222.635 342.279 222.756C341.918 222.877 341.617 223.058 341.316 223.299C341.015 223.541 340.834 223.843 340.653 224.144C340.473 224.446 340.352 224.808 340.352 225.231H346.494Z" fill="#BDA45F"/>
</g>
<defs>
<clipPath id="clip0_184_1921">
<rect width="348" height="230" fill="white"/>
</clipPath>
</defs>
</svg>
