<svg width="30" height="30" viewBox="0 0 30 30" fill="none" xmlns="http://www.w3.org/2000/svg">
<g clip-path="url(#clip0_2232_671)">
<mask id="mask0_2232_671" style="mask-type:luminance" maskUnits="userSpaceOnUse" x="0" y="0" width="30" height="30">
<path d="M30 0H0V30H30V0Z" fill="white"/>
</mask>
<g mask="url(#mask0_2232_671)">
<path d="M0.224121 14.4213C0.224121 7.68445 0.224121 4.29848 2.27584 2.21076C4.3448 0.123047 7.65515 0.123047 14.2758 0.123047H15.4483C22.0689 0.123047 25.3965 0.123047 27.4482 2.21076C29.5 4.29848 29.5 7.68445 29.5 14.4213V15.6143C29.5 22.3511 29.5 25.7371 27.4482 27.8248C25.3965 29.9125 22.0689 29.9125 15.4483 29.9125H14.2758C7.65515 29.9125 4.32756 29.9125 2.27584 27.8248C0.224121 25.7371 0.224121 22.3687 0.224121 15.6143V14.4213Z" fill="white"/>
<path d="M14.8618 14.9477C16.2929 14.9477 17.586 14.3512 18.517 13.4038C19.4481 12.4565 20.0343 11.1407 20.0343 9.68454C20.0343 8.2284 19.4481 6.91261 18.517 5.96525C17.586 5.01788 16.2929 4.42139 14.8618 4.42139C13.4308 4.42139 12.1377 5.01788 11.2067 5.96525C10.2757 6.91261 9.68945 8.2284 9.68945 9.68454C9.68945 11.1407 10.2757 12.4565 11.2067 13.4038C12.1377 14.3512 13.4481 14.9477 14.8618 14.9477ZM13.2067 7.98279C13.6377 7.54419 14.2239 7.28104 14.8618 7.28104C15.517 7.28104 16.1032 7.54419 16.517 7.98279C16.9481 8.42139 17.2067 9.01788 17.2067 9.667C17.2067 10.3337 16.9481 10.9302 16.517 11.3512C16.086 11.7898 15.4998 12.053 14.8618 12.053C14.2067 12.053 13.6205 11.7898 13.2067 11.3512C12.7756 10.9126 12.517 10.3161 12.517 9.667C12.517 9.01788 12.7929 8.42139 13.2067 7.98279Z" fill="#2A2A2A"/>
<path d="M21.8276 17.0703L20.3104 14.965C20.2241 14.8422 20.0517 14.8247 19.9483 14.93C18.5172 16.1756 16.7586 16.9826 14.8621 16.9826C12.9655 16.9826 11.2069 16.1756 9.77587 14.93C9.67242 14.8422 9.50001 14.8598 9.4138 14.965L7.89656 17.0703C7.82759 17.1756 7.84483 17.3159 7.93104 17.4036C9.2069 18.4563 10.6897 19.1756 12.2414 19.544L9.03449 25.2984C8.94828 25.4563 9.06897 25.6668 9.24139 25.6668H12.3793C12.4828 25.6668 12.569 25.6142 12.6035 25.5089L14.8448 20.4212L17.0862 25.5089C17.1207 25.5966 17.2069 25.6668 17.3104 25.6668H20.4483C20.6379 25.6668 20.7414 25.4738 20.6552 25.2984L17.4483 19.544C19 19.1756 20.4828 18.4738 21.7586 17.4036C21.8966 17.3159 21.9138 17.1756 21.8276 17.0703Z" fill="#2A2A2A"/>
</g>
</g>
<defs>
<clipPath id="clip0_2232_671">
<rect width="30" height="30" fill="white"/>
</clipPath>
</defs>
</svg>
