<svg width="42" height="42" viewBox="0 0 42 42" fill="none" xmlns="http://www.w3.org/2000/svg">
<path d="M21 0C12.3129 0 5.25 7.06289 5.25 15.75C5.25 27.3656 19.7777 41.1797 20.4012 41.7621C20.5734 41.918 20.7867 42 21 42C21.2133 42 21.4348 41.918 21.5988 41.7621C22.2223 41.1797 36.75 27.3656 36.75 15.75C36.75 7.06289 29.6871 0 21 0ZM21 24.5027C16.1766 24.5027 12.2473 20.5734 12.2473 15.75C12.2473 10.9266 16.1766 6.99727 21 6.99727C25.8234 6.99727 29.7527 10.9266 29.7527 15.75C29.7527 20.5734 25.8234 24.5027 21 24.5027Z" fill="#BDA45F"/>
</svg>
