<svg width="42" height="42" viewBox="0 0 42 42" fill="none" xmlns="http://www.w3.org/2000/svg">
<g opacity="0.61">
<path d="M13.1675 40.2259H13.3025C13.4086 40.2259 13.48 40.2941 13.48 40.3917C13.48 40.4892 13.4086 40.5574 13.3025 40.5574H13.1675V40.2259ZM13.3005 40.5271C13.3887 40.5271 13.4454 40.4712 13.4454 40.3917C13.4454 40.3121 13.3886 40.2562 13.3005 40.2562H13.2025V40.5271H13.3005Z" fill="white"/>
<path d="M13.8716 40.3915C13.8716 40.2949 13.9454 40.2229 14.0459 40.2229C14.1453 40.2229 14.2197 40.2944 14.2197 40.3915C14.2197 40.4886 14.1453 40.5601 14.0459 40.5601C13.9455 40.5601 13.8716 40.4882 13.8716 40.3915ZM14.1846 40.3915C14.1846 40.3124 14.1254 40.2541 14.0459 40.2541C13.9658 40.2541 13.9062 40.3124 13.9062 40.3915C13.9062 40.4705 13.9658 40.5288 14.0459 40.5288C14.1255 40.5288 14.1846 40.4706 14.1846 40.3915Z" fill="white"/>
<path d="M15.0861 40.2258L14.9743 40.5573H14.9374L14.8403 40.2746L14.7427 40.5573H14.7063L14.5945 40.2258H14.6305L14.7262 40.5109L14.8251 40.2258H14.8578L14.9553 40.5123L15.0525 40.2258H15.0861Z" fill="white"/>
<path d="M15.7695 40.2258V40.5573H15.7406L15.5275 40.2883V40.5573H15.4924V40.2258H15.5213L15.7349 40.4948V40.2258H15.7695Z" fill="white"/>
<path d="M16.2197 40.2258H16.2548V40.527H16.4404V40.5573H16.2197V40.2258Z" fill="white"/>
<path d="M16.8052 40.3915C16.8052 40.2949 16.879 40.2229 16.9795 40.2229C17.0789 40.2229 17.1533 40.2944 17.1533 40.3915C17.1533 40.4886 17.0789 40.5601 16.9795 40.5601C16.8791 40.5601 16.8052 40.4882 16.8052 40.3915ZM17.1182 40.3915C17.1182 40.3124 17.059 40.2541 16.9795 40.2541C16.8994 40.2541 16.8398 40.3124 16.8398 40.3915C16.8398 40.4705 16.8994 40.5288 16.9795 40.5288C17.059 40.5288 17.1182 40.4706 17.1182 40.3915Z" fill="white"/>
<path d="M17.7773 40.4687H17.5926L17.5528 40.5572H17.5164L17.6679 40.2257H17.7025L17.854 40.5572H17.8171L17.7773 40.4687ZM17.7646 40.4403L17.685 40.2622L17.6055 40.4403H17.7646Z" fill="white"/>
<path d="M18.2515 40.2258H18.3865C18.4925 40.2258 18.564 40.294 18.564 40.3916C18.564 40.4891 18.4925 40.5573 18.3865 40.5573H18.2515V40.2258ZM18.3845 40.527C18.4726 40.527 18.5294 40.4711 18.5294 40.3916C18.5294 40.312 18.4726 40.2561 18.3845 40.2561H18.2865V40.527H18.3845Z" fill="white"/>
<path d="M19.6594 40.4687H19.4747L19.4349 40.5572H19.3984L19.55 40.2257H19.5846L19.7361 40.5572H19.6992L19.6594 40.4687ZM19.6467 40.4403L19.5671 40.2622L19.4876 40.4403H19.6467Z" fill="white"/>
<path d="M20.1335 40.2258H20.1686V40.527H20.3542V40.5573H20.1335V40.2258Z" fill="white"/>
<path d="M20.7549 40.2258H20.7899V40.527H20.9756V40.5573H20.7549V40.2258Z" fill="white"/>
<path d="M21.8778 40.2561V40.3864H22.0492V40.4167H21.8778V40.5574H21.8428V40.2258H22.0701V40.2562L21.8778 40.2561Z" fill="white"/>
<path d="M22.4849 40.2258H22.5199V40.5573H22.4849V40.2258Z" fill="white"/>
<path d="M22.9702 40.2258H23.0052V40.527H23.1909V40.5573H22.9702V40.2258Z" fill="white"/>
<path d="M23.826 40.527V40.5573H23.5916V40.2258H23.8189V40.2561H23.6266V40.374H23.798V40.4038H23.6266V40.527H23.826Z" fill="white"/>
<path d="M24.7523 40.2561V40.3864H24.9238V40.4167H24.7523V40.5574H24.7173V40.2258H24.9446V40.2562L24.7523 40.2561Z" fill="white"/>
<path d="M25.3259 40.3915C25.3259 40.2949 25.3998 40.2229 25.5002 40.2229C25.5997 40.2229 25.674 40.2944 25.674 40.3915C25.674 40.4886 25.5997 40.5601 25.5002 40.5601C25.3998 40.5601 25.3259 40.4882 25.3259 40.3915ZM25.6389 40.3915C25.6389 40.3124 25.5797 40.2541 25.5001 40.2541C25.4201 40.2541 25.3605 40.3124 25.3605 40.3915C25.3605 40.4705 25.4201 40.5288 25.5001 40.5288C25.5798 40.5288 25.6389 40.4706 25.6389 40.3915Z" fill="white"/>
<path d="M26.3214 40.5573L26.2456 40.4507C26.237 40.4516 26.2285 40.4521 26.219 40.4521H26.13V40.5573H26.095V40.2258H26.219C26.3034 40.2258 26.3545 40.2684 26.3545 40.3394C26.3545 40.3915 26.3271 40.428 26.2788 40.4436L26.3597 40.5572H26.3214V40.5573ZM26.3194 40.3394C26.3194 40.2863 26.2844 40.2561 26.218 40.2561H26.13V40.4223H26.218C26.2844 40.4223 26.3194 40.3915 26.3194 40.3394Z" fill="white"/>
<path d="M27.1241 40.2258V40.5573H27.0905V40.292L26.9602 40.5151H26.9437L26.8134 40.2935V40.5572H26.7798V40.2257H26.8087L26.9527 40.4715L27.0952 40.2257L27.1241 40.2258Z" fill="white"/>
<path d="M27.7824 40.4687H27.5977L27.5579 40.5572H27.5215L27.673 40.2257H27.7075L27.8591 40.5572H27.8221L27.7824 40.4687ZM27.7696 40.4403L27.6901 40.2622L27.6105 40.4403H27.7696Z" fill="white"/>
<path d="M28.3043 40.2561H28.1877V40.2258H28.4559V40.2561H28.3394V40.5573H28.3043V40.2561H28.3043Z" fill="white"/>
<path d="M28.8174 40.5171L28.8312 40.4901C28.8548 40.5133 28.897 40.5303 28.9405 40.5303C29.0026 40.5303 29.0296 40.5043 29.0296 40.4716C29.0296 40.3807 28.8254 40.4366 28.8254 40.314C28.8254 40.2652 28.8633 40.223 28.9477 40.223C28.9851 40.223 29.0239 40.2339 29.0505 40.2524L29.0386 40.2804C29.0102 40.2619 28.9771 40.2529 28.9477 40.2529C28.887 40.2529 28.8601 40.2799 28.8601 40.313C28.8601 40.404 29.0642 40.3491 29.0642 40.4698C29.0642 40.5186 29.0254 40.5603 28.9405 40.5603C28.8908 40.5601 28.842 40.5426 28.8174 40.5171Z" fill="white"/>
</g>
<path d="M21 2.18207C12.6854 2.18207 5.94556 8.92189 5.94556 17.2365C5.94556 21.3922 7.62942 25.1551 10.3527 27.8792C13.0768 30.6048 19.4945 34.549 19.8708 38.689C19.9273 39.3097 20.3767 39.818 20.9999 39.818C21.6231 39.818 22.0725 39.3097 22.1289 38.689C22.5052 34.549 28.9229 30.6048 31.647 27.8792C34.3704 25.1551 36.0542 21.3923 36.0542 17.2365C36.0543 8.92189 29.3145 2.18207 21 2.18207Z" fill="#FF4433"/>
<path d="M21 22.5058C23.91 22.5058 26.269 20.1467 26.269 17.2367C26.269 14.3267 23.91 11.9677 21 11.9677C18.09 11.9677 15.731 14.3267 15.731 17.2367C15.731 20.1467 18.09 22.5058 21 22.5058Z" fill="white"/>
</svg>
