<svg width="24" height="24" viewBox="0 0 24 24" fill="none" xmlns="http://www.w3.org/2000/svg">
<path d="M20.376 12.416L9.77702 19.482C9.70173 19.5321 9.61425 19.5608 9.52391 19.5652C9.43357 19.5695 9.34375 19.5492 9.26402 19.5065C9.18429 19.4639 9.11762 19.4003 9.07113 19.3228C9.02464 19.2452 9.00007 19.1564 9.00002 19.066L9.00002 4.934C9.00007 4.84356 9.02464 4.75482 9.07113 4.67724C9.11762 4.59966 9.18429 4.53615 9.26402 4.49346C9.34375 4.45077 9.43357 4.43051 9.52391 4.43483C9.61425 4.43915 9.70173 4.46789 9.77702 4.518L20.376 11.584C20.4445 11.6297 20.5006 11.6915 20.5395 11.7641C20.5783 11.8367 20.5986 11.9177 20.5986 12C20.5986 12.0823 20.5783 12.1633 20.5395 12.2359C20.5006 12.3085 20.4445 12.3703 20.376 12.416ZM7.00002 5L7.00002 19C7.00002 19.2652 6.89466 19.5196 6.70713 19.7071C6.51959 19.8946 6.26524 20 6.00002 20C5.7348 20 5.48045 19.8946 5.29291 19.7071C5.10538 19.5196 5.00002 19.2652 5.00002 19L5.00002 5C5.00002 4.73478 5.10538 4.48043 5.29291 4.29289C5.48045 4.10536 5.7348 4 6.00002 4C6.26524 4 6.51959 4.10536 6.70713 4.29289C6.89466 4.48043 7.00002 4.73478 7.00002 5Z" fill="#BDA45F"/>
</svg>
