<svg width="24" height="14" viewBox="0 0 24 14" fill="none" xmlns="http://www.w3.org/2000/svg">
<path d="M0.229453 2.25721C0.0276312 1.73733 -0.230252 1.19532 0.38082 0.902193C1.61978 0.8856 2.85875 0.869008 4.10331 0.852416C4.64151 0.869008 4.88818 1.26169 5.17409 1.80923C6.00941 3.39654 6.87837 4.97832 7.92672 6.4329C8.2687 6.90854 8.84613 7.09105 9.30023 6.33334C9.35069 5.31016 9.40114 4.28698 9.4516 3.2638C9.28341 2.0747 8.86295 1.3723 8.12854 1.3004C7.70808 0.896662 8.01081 0.56482 8.95265 0.387837C10.4495 0.0725871 11.7557 0.216385 12.905 0.360184C13.8749 0.421021 14.015 1.06811 13.9982 1.80923C13.9646 3.16425 13.9365 4.5248 13.9365 5.87983C14.2224 7.25697 14.9849 6.7039 15.4894 6.10658C16.392 4.84005 17.1769 3.60671 17.8328 2.2185C18.5112 0.791578 18.6962 0.896662 19.1727 0.891131C20.3107 0.8856 21.5665 0.830293 22.4747 0.863478C24.3696 0.752864 24.151 1.58247 23.6184 2.46185C22.699 3.99386 21.5161 5.37653 20.4621 6.83664C19.823 7.6939 19.8342 8.23037 20.5126 8.69495C21.5161 9.7845 22.6037 10.8022 23.5175 11.9636C24.5098 13.2301 23.781 13.5786 22.8559 13.6726C21.7515 13.6726 20.6471 13.6726 19.5427 13.6726C18.6009 13.6892 17.7487 13.4569 17.1489 12.4669C15.7641 10.6584 14.7326 10.1606 14.3177 11.1782C14.1384 11.6262 13.987 12.2291 13.9926 12.8153C13.9982 13.6339 13.4993 13.7002 12.8209 13.7224C12.0921 13.7224 11.3353 13.8993 10.6289 13.7224C8.12854 13.0974 5.7291 11.947 3.39133 7.99255C2.33737 6.28357 1.28341 4.41419 0.229453 2.25721Z" fill="white"/>
</svg>
