<svg width="17" height="24" viewBox="0 0 17 24" fill="none" xmlns="http://www.w3.org/2000/svg">
<path d="M8.25604 11.8908C6.57265 11.8908 5.05149 11.217 3.95627 10.1468C2.86104 9.07664 2.17146 7.59029 2.17146 5.9454C2.17146 4.30051 2.86104 2.81416 3.95627 1.74398C5.05149 0.673812 6.57265 0 8.25604 0C9.93943 0 11.4606 0.673812 12.5558 1.74398C13.651 2.81416 14.3406 4.30051 14.3406 5.9454C14.3406 7.59029 13.651 9.07664 12.5558 10.1468C11.4606 11.217 9.91915 11.8908 8.25604 11.8908ZM10.2031 4.02305C9.69605 3.5276 9.00647 3.23033 8.25604 3.23033C7.48533 3.23033 6.79572 3.5276 6.30896 4.02305C5.80191 4.5185 5.49769 5.19232 5.49769 5.92558C5.49769 6.67867 5.80191 7.35248 6.30896 7.82811C6.81601 8.32356 7.50561 8.62083 8.25604 8.62083C9.02675 8.62083 9.71633 8.32356 10.2031 7.82811C10.7101 7.33266 11.0144 6.65885 11.0144 5.92558C11.0144 5.19232 10.6899 4.5185 10.2031 4.02305Z" fill="white"/>
<path d="M0.0619545 14.2888L1.84676 11.9107C1.94817 11.772 2.15099 11.7521 2.27268 11.871C3.95607 13.2781 6.02482 14.1898 8.25583 14.1898C10.4868 14.1898 12.5556 13.2781 14.239 11.871C14.3607 11.772 14.5635 11.7918 14.6649 11.9107L16.4497 14.2888C16.5308 14.4078 16.5105 14.5663 16.4091 14.6654C14.9083 15.8545 13.164 16.667 11.3387 17.0832L15.1111 23.5835C15.2125 23.7618 15.0705 23.9997 14.8677 23.9997H11.1764C11.0547 23.9997 10.9533 23.9402 10.9127 23.8213L8.27611 18.0741L5.63947 23.8213C5.5989 23.9204 5.49749 23.9997 5.3758 23.9997H1.6845C1.4614 23.9997 1.33971 23.7817 1.44112 23.5835L5.21355 17.0832C3.38818 16.667 1.64394 15.8743 0.143082 14.6654C-0.0191727 14.5663 -0.0394554 14.4078 0.0619545 14.2888Z" fill="white"/>
</svg>
