<svg width="33" height="32" viewBox="0 0 33 32" fill="none" xmlns="http://www.w3.org/2000/svg">
<g clip-path="url(#clip0_2214_768)">
<path d="M32.3568 16.7417C32.3568 16.8222 32.3568 16.9027 32.3435 16.9832C31.6923 16.8222 31.0544 16.7551 30.4564 16.782C29.8583 16.8088 29.2603 16.8356 28.649 16.8759C26.6157 16.9966 24.516 17.1173 22.4029 16.849C22.0043 16.7954 21.579 16.8222 21.167 16.9161C17.9775 17.6405 14.7349 17.2247 11.5853 16.8222L11.3992 16.7954C11.2265 16.7685 11.0404 16.7551 10.8544 16.7551C9.87094 16.7417 8.87423 16.7149 7.91739 16.6881C5.56515 16.621 3.35909 16.5405 1.17961 16.7417C0.980269 16.7551 0.780927 16.7685 0.581584 16.7417C0.568295 16.7417 0.555006 16.7417 0.528427 16.7417C0.528427 16.6612 0.528426 16.5807 0.515137 16.5002C0.541716 16.5002 0.568296 16.5002 0.594875 16.5002C0.780927 16.5137 0.966979 16.5137 1.13974 16.5002C3.3458 16.299 5.56515 16.3795 7.91739 16.4466C8.87423 16.4734 9.87094 16.5137 10.8411 16.5137C11.0404 16.5137 11.2398 16.5271 11.4391 16.5539L11.6252 16.5807C14.7349 16.9832 17.951 17.3991 21.074 16.6881C21.5125 16.5807 21.991 16.5673 22.4295 16.621C24.516 16.8893 26.6024 16.7685 28.6091 16.6478C29.2204 16.6076 29.8185 16.5807 30.4165 16.5539C31.0544 16.5271 31.6923 16.5807 32.3568 16.7417Z" fill="white"/>
<path d="M32.3036 17.5602C32.3036 17.6407 32.2903 17.7212 32.277 17.8017C32.184 17.7883 32.1042 17.7749 32.0112 17.7615C30.5361 17.6676 29.0344 17.7346 27.4529 17.8017C25.6057 17.8822 23.6787 17.9627 21.765 17.7749C19.3596 17.6944 16.8745 17.7212 14.4691 17.7481C13.4192 17.7615 12.3826 17.7749 11.346 17.7749C11.2131 17.7749 11.0935 17.7749 10.9606 17.7615C9.35261 17.6273 7.73129 17.7212 6.16313 17.8151C4.46208 17.909 2.85405 18.0029 1.24602 17.8285C1.0201 17.8017 0.807464 17.7883 0.608122 17.8017C0.594832 17.7212 0.594832 17.6407 0.581543 17.5602C0.807464 17.5468 1.03339 17.5602 1.28589 17.5871C2.86734 17.7615 4.46207 17.6676 6.14984 17.5737C7.73129 17.4798 9.3659 17.3859 11.0005 17.5334C11.1201 17.5468 11.2397 17.5468 11.346 17.5468C12.3826 17.5468 13.4192 17.5334 14.4691 17.52C16.8745 17.4932 19.3596 17.4663 21.7916 17.5468C23.7053 17.7346 25.6057 17.6542 27.4396 17.5737C29.0344 17.5066 30.5494 17.4395 32.0511 17.5468C32.1308 17.5334 32.2238 17.5468 32.3036 17.5602Z" fill="white"/>
<path d="M32.1706 18.6198C32.1573 18.7003 32.144 18.7808 32.1308 18.8613C32.1042 18.8613 32.0909 18.8613 32.0643 18.8613C30.4297 18.8076 28.7685 18.8344 27.001 18.8613C25.805 18.8747 24.5823 18.8881 23.3464 18.8881C22.6952 18.8881 21.6586 18.7942 21.0207 18.6466C19.2798 18.2442 17.4724 18.4588 15.7315 18.6869C14.4424 18.8479 13.1135 19.0088 11.8111 18.9284C11.3859 18.9015 10.9473 18.9284 10.4822 19.0223C10.2297 19.0759 9.99045 19.1162 9.73795 19.1564C9.36585 19.2235 9.00703 19.2637 8.63493 19.304C7.99703 19.371 7.35914 19.4247 6.72124 19.4381C6.21624 19.4515 5.71124 19.4515 5.20624 19.4381C4.15637 19.3979 3.1065 19.2906 2.06992 19.1027C1.64465 19.0357 1.21939 18.9954 0.780836 19.0088C0.767546 18.9284 0.754256 18.8479 0.740967 18.7674C1.2061 18.754 1.68452 18.7808 2.13636 18.8613C3.63808 19.1296 5.16637 19.2369 6.70795 19.1832C7.34585 19.1698 7.99703 19.1162 8.63493 19.0491C9.23295 18.982 9.81769 18.8881 10.4157 18.7808C10.9074 18.6869 11.3859 18.6601 11.8377 18.6869C13.1135 18.7674 14.4291 18.6064 15.6917 18.4454C17.4592 18.2174 19.2931 17.9893 21.1005 18.4186C21.6985 18.5527 22.7351 18.6466 23.3464 18.6466C24.569 18.6601 25.805 18.6332 26.9877 18.6198C28.7552 18.593 30.4297 18.5796 32.0776 18.6198C32.1175 18.6198 32.144 18.6198 32.1706 18.6198Z" fill="white"/>
<path d="M31.6525 19.5455C31.7588 19.5589 31.8784 19.5589 31.998 19.5589C31.9847 19.6394 31.9714 19.7199 31.9448 19.8004C31.8385 19.8004 31.7322 19.8004 31.6392 19.787C29.6989 19.6662 27.7188 19.7065 25.6323 19.7601C24.4097 19.787 23.1339 19.8272 21.8581 19.8138C20.4361 19.7736 18.9743 19.8272 17.5656 19.8675C16.0772 19.9077 14.5489 19.9614 13.0472 19.9211C12.1435 19.8943 11.2398 19.7601 10.376 19.5187C9.80452 19.3577 9.21979 19.2906 8.64834 19.2906C8.01044 19.2772 7.37255 19.3443 6.73465 19.4248C6.2961 19.4918 5.87083 19.5589 5.44557 19.626C4.20965 19.8406 2.92056 20.0553 1.67135 19.9211C1.44543 19.8943 1.21951 19.8809 0.993589 19.8809C0.96701 19.8004 0.953719 19.7199 0.94043 19.6394C1.20622 19.6394 1.45872 19.6528 1.72451 19.6797C2.86741 19.8004 4.02359 19.6126 5.23294 19.4114C5.2861 19.3979 5.33925 19.3979 5.39241 19.3845C5.83096 19.3174 6.26952 19.237 6.72136 19.1699C7.35926 19.076 7.99715 19.0223 8.64834 19.0357C9.02044 19.0357 9.37926 19.0626 9.75137 19.1296C9.99058 19.1699 10.2298 19.2101 10.469 19.2772C11.3062 19.5053 12.1833 19.6394 13.0604 19.6662C14.5489 19.7065 16.0772 19.6662 17.5523 19.6126C18.9743 19.5723 20.4361 19.5187 21.8714 19.5589C23.1206 19.5723 24.3964 19.5321 25.619 19.5053C27.7055 19.465 29.6856 19.4114 31.6525 19.5455Z" fill="white"/>
<path d="M30.8949 20.2431C31.2005 20.3102 31.4929 20.3505 31.7985 20.3639C31.772 20.4444 31.7587 20.5249 31.7321 20.6053C31.4264 20.5785 31.1208 20.5383 30.8284 20.4712C29.3533 20.1626 27.8649 20.3907 26.2834 20.6322C24.8083 20.8602 23.2933 21.0883 21.765 20.8602C19.9443 20.3639 18.0838 20.5919 16.2897 20.8066C16.1967 20.82 16.0904 20.8334 15.9973 20.8468C14.9076 20.981 13.7913 21.1017 12.6883 21.048C12.4756 21.0346 12.2497 21.0212 12.0371 20.9944C11.3593 20.9273 10.8011 20.9139 10.2696 20.9541C8.23627 21.1419 6.22956 21.048 4.28929 20.9541C3.43876 20.9139 2.56166 20.8736 1.72442 20.8602C1.56495 20.8602 1.40547 20.8468 1.246 20.82C1.21942 20.7395 1.19284 20.6456 1.16626 20.5651C1.35231 20.5919 1.53837 20.6053 1.72442 20.6188C2.57495 20.6322 3.45205 20.6724 4.30258 20.7127C6.22956 20.8066 8.22298 20.9005 10.2297 20.7127C10.7746 20.659 11.3593 20.6724 12.0636 20.7529C13.4325 20.9005 14.8544 20.7261 16.2365 20.5651C18.0705 20.337 19.9709 20.109 21.8314 20.6188C23.28 20.8334 24.7684 20.6053 26.217 20.3907C27.7585 20.1626 29.3533 19.9212 30.8949 20.2431Z" fill="white"/>
<path d="M31.3866 21.6382C31.36 21.7187 31.3202 21.7992 31.2936 21.8797C30.0842 21.9468 28.8483 21.8126 27.6523 21.6785C26.0309 21.5041 24.3698 21.3163 22.7086 21.598C21.9245 21.7321 21.2334 21.759 20.5955 21.6919C20.0108 21.6248 19.3995 21.5309 18.828 21.437C16.5555 21.0882 14.2166 20.7394 11.9441 21.5175C11.4258 21.6919 10.9075 21.7724 10.4025 21.7456C9.57855 21.7053 8.74131 21.7321 7.91736 21.7858C7.45223 21.8126 6.9871 21.8529 6.52197 21.8931C6.50868 21.8931 6.49539 21.8931 6.4821 21.8931C5.52525 21.9736 4.52854 22.0541 3.55841 22.0541H3.53183C3.45209 22.0541 3.37236 22.0541 3.27933 22.0541C3.02683 22.0541 2.77433 22.0407 2.52183 22.0139C2.20288 21.987 1.89722 21.9468 1.60485 21.8931C1.56498 21.7992 1.5384 21.7053 1.49854 21.6248C2.05669 21.7456 2.65472 21.8126 3.27933 21.8261C3.35907 21.8261 3.4388 21.8261 3.51854 21.8261C4.47538 21.8261 5.41894 21.7456 6.42894 21.6651C6.45552 21.6651 6.46881 21.6651 6.49539 21.6651C7.77118 21.5578 9.10013 21.4504 10.4291 21.5175C10.8809 21.5443 11.3461 21.4638 11.8245 21.3029C12.1036 21.209 12.3959 21.1285 12.675 21.0614C13.778 20.8065 14.8811 20.7797 15.9841 20.8602C16.9542 20.9272 17.9244 21.0748 18.8812 21.2224C19.4526 21.3163 20.064 21.3968 20.6487 21.4773C21.2467 21.5443 21.8979 21.5175 22.6554 21.3968C24.3698 21.1016 26.0708 21.2895 27.7054 21.4638C28.9679 21.5846 30.1906 21.7187 31.3866 21.6382Z" fill="white"/>
<path d="M31.0278 22.537C31.0013 22.6175 30.9614 22.698 30.9215 22.7785C30.071 22.7517 29.1939 22.6578 28.3567 22.5773C26.4563 22.376 24.5027 22.1748 22.5359 22.6041C22.0574 22.7114 21.5524 22.6846 21.1006 22.537C18.1503 21.5711 15.1469 22.0943 12.2631 22.6041C11.5986 22.7248 10.8943 22.698 10.2564 22.5236C8.9407 22.1748 7.69149 21.9736 6.48214 21.9199C5.47214 21.8663 4.50201 21.9199 3.55845 22.0809C3.06674 22.1614 2.57503 22.2687 2.08332 22.4029C2.00358 22.4297 1.92385 22.4431 1.83082 22.4699C1.79095 22.3895 1.76437 22.3224 1.73779 22.2419C1.81753 22.2285 1.91056 22.2016 1.99029 22.1748C2.16306 22.1212 2.34911 22.0809 2.53516 22.0407C2.8674 21.9602 3.19964 21.8931 3.53188 21.8394C4.47543 21.6919 5.44556 21.6382 6.44228 21.6785C6.93399 21.6919 7.4257 21.7455 7.9307 21.7992C8.72807 21.9065 9.52544 22.0675 10.3494 22.2821C10.9474 22.4431 11.5853 22.4699 12.2099 22.3626C15.1469 21.8529 18.1902 21.3163 21.2335 22.309C21.6189 22.4431 22.0707 22.4565 22.4827 22.3626C24.5027 21.9199 26.4828 22.1346 28.4098 22.3358C29.3002 22.4163 30.164 22.5102 31.0278 22.537Z" fill="white"/>
<path d="M30.5494 23.5435C30.5095 23.624 30.4697 23.7045 30.4298 23.785C30.0843 23.7716 29.752 23.7716 29.4065 23.785C27.4928 23.8386 25.3532 23.8118 22.8548 23.7313C22.1371 23.7045 21.4727 23.5972 20.8746 23.4094C19.1204 22.8728 17.3131 23.1679 15.5588 23.4362C14.0571 23.6777 12.5155 23.9326 10.9873 23.6777C9.16659 23.074 7.35922 23.3557 5.60501 23.624C4.595 23.785 3.57171 23.9326 2.54842 23.9326C2.50855 23.8521 2.4554 23.7716 2.41553 23.6911C3.42553 23.7179 4.46211 23.5569 5.53856 23.396C7.33264 23.1142 9.19317 22.8325 11.067 23.463C12.5023 23.7045 14.0173 23.463 15.4924 23.2216C17.2865 22.9264 19.147 22.6313 20.981 23.1947C21.5524 23.3691 22.1903 23.4764 22.8681 23.4899C25.3532 23.5703 27.4795 23.5972 29.3932 23.5435C29.7786 23.5301 30.164 23.5301 30.5494 23.5435Z" fill="white"/>
<path d="M30.1507 24.2541C30.1108 24.3346 30.0576 24.4151 30.0178 24.4822C29.9912 24.4822 29.9646 24.4687 29.938 24.4687C27.4263 24.187 24.8216 23.8919 22.2035 24.6029C21.951 24.67 21.7517 24.7102 21.5656 24.737C19.5456 25.0053 17.499 24.898 15.5056 24.7907C14.4159 24.737 13.2863 24.6565 12.1832 24.6834C11.6915 24.6834 11.2131 24.737 10.748 24.8444C10.243 24.9651 9.72469 25.0188 9.21969 25.0322C8.7014 25.0456 8.16982 25.0053 7.66482 24.9517C7.09337 24.8846 6.52192 24.7907 5.95047 24.6968C4.86074 24.509 3.82415 24.3346 2.80086 24.3748C2.761 24.2943 2.70784 24.2139 2.66797 24.1468C3.78429 24.0931 4.91389 24.2809 6.01692 24.4687C7.54521 24.7236 9.11337 24.9919 10.6682 24.6297C11.1467 24.5224 11.6517 24.4553 12.1832 24.4553C13.2996 24.4553 14.4292 24.509 15.5322 24.5626C17.499 24.67 19.5456 24.7773 21.5258 24.509C21.6985 24.4822 21.8846 24.4419 22.1238 24.3882C24.8083 23.6638 27.4529 23.959 29.9912 24.2541C30.031 24.2407 30.0975 24.2541 30.1507 24.2541Z" fill="white"/>
<path d="M29.659 25.0324C29.6058 25.1129 29.5527 25.1934 29.4995 25.2739C28.3034 25.2202 27.0941 25.3543 25.8449 25.4751C24.7684 25.5824 23.6654 25.7031 22.5491 25.7031C22.5358 25.7031 22.5358 25.7031 22.5225 25.7031C22.0441 25.7031 21.5524 25.7568 21.0075 25.8775C20.1969 26.0519 19.3729 26.119 18.5622 26.1458H18.5357C18.4293 26.1458 18.323 26.1458 18.2167 26.1458C18.0307 26.1458 17.8313 26.1458 17.6453 26.1324C16.6353 26.1056 15.6386 26.0117 14.6551 25.9178C13.7249 25.8239 12.7547 25.73 11.8112 25.7031C11.3859 25.6897 10.9341 25.6226 10.4689 25.5019C8.39578 24.9787 6.30933 25.2202 4.30261 25.4348C4.0634 25.4617 3.8109 25.4885 3.5584 25.5153C3.50524 25.4482 3.45208 25.3678 3.39893 25.2873C3.67801 25.2604 3.95709 25.2336 4.24945 25.1934C5.36577 25.0726 6.50867 24.9385 7.65156 24.9385C8.16986 24.9385 8.68814 24.9653 9.20644 25.019C9.64499 25.0726 10.0968 25.1531 10.5354 25.2604C10.9739 25.3678 11.3992 25.4348 11.7979 25.4482C12.7547 25.4751 13.7249 25.569 14.6684 25.6629C16.7283 25.8641 18.8546 26.0653 20.9145 25.6361C21.4859 25.5153 22.0042 25.4617 22.5092 25.4617H22.5358C23.6255 25.4617 24.7286 25.3409 25.7917 25.2336C27.0808 25.1129 28.3832 24.9787 29.659 25.0324Z" fill="white"/>
<path d="M28.4232 26.6557C28.3567 26.7362 28.277 26.8301 28.1973 26.9106C26.0842 27.0179 23.9313 27.0045 21.7386 26.6557C19.0807 26.2265 16.343 26.3874 13.6984 26.535C13.2067 26.5618 12.715 26.5887 12.2233 26.6155C11.6386 26.6423 11.0272 26.7228 10.3893 26.8436C9.48566 27.0314 8.58197 27.085 7.67829 27.085C6.66829 27.085 5.65829 27.0045 4.66157 26.9106C4.58184 26.8167 4.5021 26.7362 4.42236 26.6423C6.33605 26.8301 8.31619 27.0045 10.2963 26.6021C10.9475 26.4679 11.5854 26.3874 12.1834 26.3606C12.6751 26.3338 13.1669 26.307 13.6586 26.2801C14.9609 26.1996 16.2899 26.1326 17.6188 26.1191C17.9112 26.1191 18.2169 26.1191 18.5092 26.1326H18.5358C19.6255 26.1594 20.702 26.2399 21.7784 26.4143C24.0509 26.7765 26.257 26.7631 28.4232 26.6557Z" fill="white"/>
<path d="M26.7353 28.346C26.6955 28.3862 26.6556 28.413 26.6157 28.4533C26.5626 28.5069 26.5094 28.5472 26.4563 28.5874C26.0975 28.574 25.7386 28.5606 25.3931 28.5204C24.4363 28.4265 23.5193 28.2252 22.6156 27.9167C22.1638 27.7691 21.6588 27.702 21.167 27.7423C19.7982 27.8362 18.4161 27.702 17.0606 27.5813C15.4791 27.4337 13.8312 27.2862 12.2365 27.5008C11.5322 27.5947 10.9607 27.635 10.4026 27.6216C9.11347 27.5813 7.8111 27.6484 6.5486 27.7155C6.18979 27.7289 5.84426 27.7557 5.49873 27.7691C5.419 27.6886 5.33926 27.6081 5.25952 27.5411C5.68479 27.5277 6.09676 27.5008 6.53531 27.4874C7.79782 27.4203 9.10019 27.3533 10.4158 27.3935C10.9474 27.4069 11.5056 27.3667 12.1833 27.2862C13.818 27.0581 15.4924 27.2191 17.1005 27.3667C18.4294 27.4874 19.8115 27.6216 21.1405 27.5277C21.6853 27.4874 22.2302 27.5545 22.7352 27.7289C23.9977 28.1313 25.3267 28.346 26.7353 28.346Z" fill="white"/>
<path d="M26.6156 28.4396C26.5624 28.4932 26.5093 28.5335 26.4561 28.5737C26.403 28.614 26.3498 28.6676 26.2966 28.7079C24.7684 28.8152 23.2002 28.842 21.632 28.5469C20.5689 28.5603 19.4393 28.5871 18.3495 28.6274C16.1302 28.6945 13.8311 28.7615 11.5985 28.6006C11.2662 28.5737 10.9207 28.614 10.5752 28.6945C9.41898 28.9896 8.28937 29.1103 7.15977 29.1372C7.05345 29.0567 6.94714 28.9762 6.84082 28.8957C8.03688 28.8957 9.25951 28.775 10.4821 28.4664C10.8675 28.3725 11.2529 28.3323 11.625 28.3591C13.8444 28.5201 16.1302 28.453 18.3362 28.3859C19.426 28.3591 20.5556 28.3188 21.6719 28.3188C22.9344 28.5603 24.1703 28.5871 25.393 28.5335C25.7916 28.4932 26.2036 28.4798 26.6156 28.4396Z" fill="white"/>
<path d="M25.1007 29.5667C24.9811 29.6472 24.8482 29.7277 24.7286 29.8082C24.1438 29.7947 23.5458 29.7813 22.9611 29.7411C22.4694 29.7008 21.9511 29.5935 21.3929 29.4057C19.8646 28.8959 18.3496 29.2447 16.7416 29.6338C15.7183 29.8752 14.6684 30.1301 13.6318 30.1301C12.8743 30.1301 12.1035 29.996 11.346 29.6338C10.15 29.3386 8.92736 29.3789 7.71801 29.513C7.6117 29.446 7.50538 29.3789 7.41235 29.2984C8.7413 29.1374 10.1101 29.0703 11.4657 29.4057C13.1933 30.224 14.8811 29.8216 16.6618 29.3923C18.2433 29.0167 19.8912 28.6276 21.5125 29.1777C22.0441 29.3521 22.5225 29.4594 22.9876 29.4862C23.692 29.5399 24.3963 29.5667 25.1007 29.5667Z" fill="white"/>
<path d="M23.3599 30.5593C23.227 30.6264 23.0808 30.6935 22.9346 30.7605C22.6423 30.7203 22.3632 30.6801 22.0974 30.6264C21.8582 30.5862 21.6323 30.5593 21.3931 30.5862C19.5458 30.7203 17.672 30.6532 15.8513 30.5996C14.4426 30.5593 12.9808 30.5057 11.5588 30.5459C11.3329 30.5593 11.0804 30.5861 10.788 30.6398C10.509 30.6935 10.2432 30.7337 9.96408 30.774C9.8179 30.7069 9.685 30.6398 9.53882 30.5727C9.92421 30.5325 10.3229 30.4788 10.7083 30.3983C11.0272 30.3313 11.293 30.3044 11.5455 30.3044C12.9808 30.2642 14.4426 30.3044 15.8646 30.3581C17.672 30.4252 19.5458 30.4788 21.3665 30.3581C21.6323 30.3313 21.8981 30.3581 22.1638 30.4118C22.5359 30.452 22.9346 30.5191 23.3599 30.5593Z" fill="white"/>
<path d="M20.3165 31.6727C20.0241 31.7397 19.7317 31.8068 19.4393 31.8739C19.0805 31.8471 18.7217 31.8068 18.3762 31.7532L17.8579 31.6592C16.1967 31.3775 14.4824 31.0958 12.8212 31.4983C12.6617 31.5385 12.4889 31.5788 12.3295 31.6056C12.1567 31.5653 11.9972 31.5117 11.8245 31.458C12.1168 31.4044 12.4092 31.3373 12.7281 31.2568C14.4691 30.8409 16.2233 31.1361 17.9243 31.4178L18.4426 31.4983C19.0407 31.6056 19.6653 31.6592 20.3165 31.6727Z" fill="white"/>
<path d="M32.3701 16.0712H0.515137C0.515137 7.19043 7.65159 0 16.436 0C25.2336 0 32.3701 7.19043 32.3701 16.0712Z" fill="white"/>
</g>
<defs>
<clipPath id="clip0_2214_768">
<rect width="32" height="32" fill="white" transform="translate(0.499756)"/>
</clipPath>
</defs>
</svg>
