<svg width="74" height="15" viewBox="0 0 74 15" fill="none" xmlns="http://www.w3.org/2000/svg">
<g opacity="0.6">
<g clip-path="url(#clip0_184_1743)">
<path d="M13.8024 6.72199L10.9706 9.1832C10.8005 9.3305 10.7255 9.56987 10.7774 9.79697L11.6339 13.5195C11.7607 14.124 11.3282 14.6243 10.8437 14.6243C10.6995 14.6243 10.5467 14.5782 10.4054 14.48L7.30825 12.4546C7.12369 12.3349 6.89299 12.3349 6.70843 12.4577L3.64879 14.4831C3.50749 14.5844 3.35465 14.6273 3.20758 14.6273C2.71158 14.6273 2.2646 14.1271 2.42032 13.5225L3.27679 9.79697C3.3287 9.56987 3.25372 9.33357 3.08646 9.18627L0.292122 6.72813C-0.281742 6.20642 0.0470043 5.20291 0.782357 5.15995L4.40145 4.88068C4.61773 4.86534 4.80517 4.71804 4.88591 4.50629L6.27011 0.928019C6.41429 0.556689 6.7315 0.372559 7.04871 0.372559C7.36593 0.372559 7.68314 0.556689 7.82732 0.928019L9.20863 4.50322C9.28938 4.71497 9.4797 4.8592 9.6931 4.87762L13.3122 5.15688C14.0504 5.19984 14.3763 6.20029 13.8024 6.72199Z" fill="white"/>
</g>
<g clip-path="url(#clip1_184_1743)">
<path d="M33.7707 6.72199L30.9389 9.1832C30.7687 9.3305 30.6937 9.56987 30.7456 9.79697L31.6021 13.5195C31.729 14.124 31.2964 14.6243 30.812 14.6243C30.6678 14.6243 30.5149 14.5782 30.3736 14.48L27.2765 12.4546C27.092 12.3349 26.8613 12.3349 26.6767 12.4577L23.6171 14.4831C23.4757 14.5844 23.3229 14.6273 23.1758 14.6273C22.6798 14.6273 22.2329 14.1271 22.3886 13.5225L23.245 9.79697C23.297 9.56987 23.222 9.33357 23.0547 9.18627L20.2604 6.72813C19.6865 6.20642 20.0153 5.20291 20.7506 5.15995L24.3697 4.88068C24.586 4.86534 24.7734 4.71804 24.8542 4.50629L26.2384 0.928019C26.3826 0.556689 26.6998 0.372559 27.017 0.372559C27.3342 0.372559 27.6514 0.556689 27.7956 0.928019L29.1769 4.50322C29.2576 4.71497 29.448 4.8592 29.6614 4.87762L33.2804 5.15688C34.0187 5.19984 34.3445 6.20029 33.7707 6.72199Z" fill="white"/>
</g>
<g clip-path="url(#clip2_184_1743)">
<path d="M53.7389 6.72199L50.9071 9.1832C50.737 9.3305 50.662 9.56987 50.7139 9.79697L51.5704 13.5195C51.6973 14.124 51.2647 14.6243 50.7802 14.6243C50.636 14.6243 50.4832 14.5782 50.3419 14.48L47.2448 12.4546C47.0602 12.3349 46.8295 12.3349 46.645 12.4577L43.5853 14.4831C43.444 14.5844 43.2912 14.6273 43.1441 14.6273C42.6481 14.6273 42.2011 14.1271 42.3568 13.5225L43.2133 9.79697C43.2652 9.56987 43.1902 9.33357 43.023 9.18627L40.2286 6.72813C39.6548 6.20642 39.9835 5.20291 40.7189 5.15995L44.338 4.88068C44.5542 4.86534 44.7417 4.71804 44.8224 4.50629L46.2066 0.928019C46.3508 0.556689 46.668 0.372559 46.9852 0.372559C47.3024 0.372559 47.6197 0.556689 47.7638 0.928019L49.1452 4.50322C49.2259 4.71497 49.4162 4.8592 49.6296 4.87762L53.2487 5.15688C53.9869 5.19984 54.3128 6.20029 53.7389 6.72199Z" fill="white"/>
</g>
<g clip-path="url(#clip3_184_1743)">
<path d="M73.7072 6.72199L70.8754 9.1832C70.7052 9.3305 70.6303 9.56987 70.6822 9.79697L71.5386 13.5195C71.6655 14.124 71.233 14.6243 70.7485 14.6243C70.6043 14.6243 70.4515 14.5782 70.3102 14.48L67.213 12.4546C67.0285 12.3349 66.7978 12.3349 66.6132 12.4577L63.5536 14.4831C63.4123 14.5844 63.2594 14.6273 63.1124 14.6273C62.6164 14.6273 62.1694 14.1271 62.3251 13.5225L63.1816 9.79697C63.2335 9.56987 63.1585 9.33357 62.9912 9.18627L60.1969 6.72813C59.623 6.20642 59.9518 5.20291 60.6871 5.15995L64.3062 4.88068C64.5225 4.86534 64.71 4.71804 64.7907 4.50629L66.1749 0.928019C66.3191 0.556689 66.6363 0.372559 66.9535 0.372559C67.2707 0.372559 67.5879 0.556689 67.7321 0.928019L69.1134 4.50322C69.1942 4.71497 69.3845 4.8592 69.5979 4.87762L73.217 5.15688C73.9552 5.19984 74.2811 6.20029 73.7072 6.72199Z" fill="white"/>
</g>
</g>
<defs>
<clipPath id="clip0_184_1743">
<rect width="14.0952" height="15" fill="white"/>
</clipPath>
<clipPath id="clip1_184_1743">
<rect width="14.0952" height="15" fill="white" transform="translate(19.9683)"/>
</clipPath>
<clipPath id="clip2_184_1743">
<rect width="14.0952" height="15" fill="white" transform="translate(39.9365)"/>
</clipPath>
<clipPath id="clip3_184_1743">
<rect width="14.0952" height="15" fill="white" transform="translate(59.9048)"/>
</clipPath>
</defs>
</svg>
