<svg width="30" height="30" viewBox="0 0 30 30" fill="none" xmlns="http://www.w3.org/2000/svg">
<g clip-path="url(#clip0_2232_689)">
<mask id="mask0_2232_689" style="mask-type:luminance" maskUnits="userSpaceOnUse" x="0" y="0" width="30" height="30">
<path d="M30 0H0V30H30V0Z" fill="white"/>
</mask>
<g mask="url(#mask0_2232_689)">
<path d="M0 14.2982C0 7.5614 0 4.17544 2.05172 2.08772C4.12068 1.67311e-07 7.43103 0 14.0517 0H15.2241C21.8448 0 25.1724 1.67311e-07 27.2241 2.08772C29.2759 4.17544 29.2759 7.5614 29.2759 14.2982V15.4912C29.2759 22.2281 29.2759 25.614 27.2241 27.7018C25.1724 29.7895 21.8448 29.7895 15.2241 29.7895H14.0517C7.43103 29.7895 4.10344 29.7895 2.05172 27.7018C0 25.614 0 22.2456 0 15.4912V14.2982Z" fill="white"/>
<g clip-path="url(#clip1_2232_689)">
<path d="M21.8375 8.15565L7.62652 13.8008C7.62652 13.8008 6.95233 14.032 7.00542 14.4621C7.05851 14.8922 7.60529 15.0911 7.60529 15.0911L11.1779 16.3116L11.1833 16.3169V16.3116L19.7619 10.7901C19.7619 10.7901 20.2556 10.4836 20.2397 10.7901C20.2397 10.7901 20.3299 10.8438 20.0645 11.0965C19.799 11.3492 13.3226 17.2417 13.3226 17.2417L13.312 17.3546L19.1408 21.8815C20.1123 22.3116 20.4679 21.4137 20.4679 21.4137L23.0001 8.49436C23.0001 7.63414 21.8322 8.15565 21.8375 8.15565Z" fill="#2A2A2A"/>
<path d="M15.5416 19.0862L13.2324 21.2206C13.2324 21.2206 13.0519 21.3604 12.8555 21.2744L13.2961 17.312" fill="#2A2A2A"/>
</g>
</g>
</g>
<defs>
<clipPath id="clip0_2232_689">
<rect width="30" height="30" fill="white"/>
</clipPath>
<clipPath id="clip1_2232_689">
<rect width="16" height="14" fill="white" transform="translate(7 8)"/>
</clipPath>
</defs>
</svg>
