<svg width="30" height="30" viewBox="0 0 30 30" fill="none" xmlns="http://www.w3.org/2000/svg">
<g clip-path="url(#clip0_2232_698)">
<mask id="mask0_2232_698" style="mask-type:luminance" maskUnits="userSpaceOnUse" x="0" y="0" width="30" height="30">
<path d="M30 0H0V30H30V0Z" fill="white"/>
</mask>
<g mask="url(#mask0_2232_698)">
<path d="M0.291504 14.2982C0.291504 7.5614 0.291504 4.17544 2.34322 2.08772C4.41219 1.67311e-07 7.72253 0 14.3432 0H15.5156C22.1363 0 25.4639 1.67311e-07 27.5156 2.08772C29.5674 4.17544 29.5674 7.5614 29.5674 14.2982V15.4912C29.5674 22.2281 29.5674 25.614 27.5156 27.7018C25.4639 29.7895 22.1363 29.7895 15.5156 29.7895H14.3432C7.72253 29.7895 4.39494 29.7895 2.34322 27.7018C0.291504 25.614 0.291504 22.2456 0.291504 15.4912V14.2982Z" fill="white"/>
<g clip-path="url(#clip1_2232_698)">
<path d="M5.42676 11.2119C5.2651 10.7804 5.05854 10.3306 5.548 10.0873C6.54037 10.0736 7.53274 10.0598 8.5296 10.046C8.96068 10.0598 9.15826 10.3857 9.38727 10.8401C10.0563 12.1575 10.7523 13.4703 11.592 14.6775C11.866 15.0722 12.3285 15.2237 12.6922 14.5948C12.7326 13.7457 12.773 12.8965 12.8134 12.0473C12.6787 11.0604 12.3419 10.4775 11.7537 10.4178C11.4169 10.0827 11.6594 9.80733 12.4138 9.66045C13.6127 9.39881 14.659 9.51815 15.5795 9.6375C16.3563 9.68799 16.4686 10.225 16.4551 10.8401C16.4282 11.9647 16.4057 13.0939 16.4057 14.2184C16.6347 15.3614 17.2454 14.9024 17.6496 14.4066C18.3725 13.3555 19.0012 12.3319 19.5265 11.1798C20.0699 9.99553 20.2181 10.0827 20.5997 10.0781C21.5113 10.0736 22.5171 10.0277 23.2446 10.0552C24.7623 9.9634 24.5872 10.6519 24.1606 11.3817C23.4242 12.6532 22.4767 13.8007 21.6325 15.0125C21.1206 15.724 21.1296 16.1693 21.6729 16.5548C22.4767 17.4591 23.3478 18.3037 24.0798 19.2676C24.8746 20.3187 24.2908 20.6079 23.5499 20.6859C22.6653 20.6859 21.7807 20.6859 20.8961 20.6859C20.1417 20.6997 19.4592 20.5069 18.9787 19.6853C17.8696 18.1843 17.0434 17.7712 16.7111 18.6158C16.5674 18.9876 16.4461 19.4879 16.4506 19.9745C16.4551 20.6538 16.0555 20.7089 15.5121 20.7272C14.9284 20.7272 14.3222 20.8741 13.7564 20.7272C11.7537 20.2086 9.83181 19.2538 7.95933 15.9719C7.11514 14.5535 6.27095 13.0021 5.42676 11.2119Z" fill="#2A2A2A"/>
</g>
</g>
</g>
<defs>
<clipPath id="clip0_2232_698">
<rect width="30" height="30" fill="white"/>
</clipPath>
<clipPath id="clip1_2232_698">
<rect width="19.2233" height="11.2871" fill="white" transform="translate(5.24316 9.50488)"/>
</clipPath>
</defs>
</svg>
