<svg width="30" height="30" viewBox="0 0 30 30" fill="none" xmlns="http://www.w3.org/2000/svg">
<g clip-path="url(#clip0_2232_679)">
<mask id="mask0_2232_679" style="mask-type:luminance" maskUnits="userSpaceOnUse" x="0" y="0" width="30" height="30">
<path d="M30 0H0V30H30V0Z" fill="white"/>
</mask>
<g mask="url(#mask0_2232_679)">
<path d="M0 14.2982C0 7.5614 0 4.17544 2.05172 2.08772C4.12068 1.67311e-07 7.43103 0 14.0517 0H15.2241C21.8448 0 25.1724 1.67311e-07 27.2241 2.08772C29.2759 4.17544 29.2759 7.5614 29.2759 14.2982V15.4912C29.2759 22.2281 29.2759 25.614 27.2241 27.7018C25.1724 29.7895 21.8448 29.7895 15.2241 29.7895H14.0517C7.43103 29.7895 4.10344 29.7895 2.05172 27.7018C0 25.614 0 22.2456 0 15.4912V14.2982Z" fill="white"/>
<g clip-path="url(#clip1_2232_679)">
<path d="M21.372 8.61493C19.68 6.93134 17.43 6 15.036 6C10.104 6 6.072 9.99403 6.072 14.9194C6.072 16.4955 6.486 18.0179 7.26 19.3791L6 24L10.752 22.7642C12.066 23.4806 13.542 23.8567 15.036 23.8567C19.968 23.8567 24 19.8627 24 14.9373C24 12.5373 23.064 10.2985 21.372 8.61493ZM15.036 22.3343C13.704 22.3343 12.39 21.9761 11.238 21.2955L10.968 21.1343L8.16 21.8866L8.916 19.1463L8.736 18.8597C7.998 17.6776 7.602 16.3164 7.602 14.9194C7.584 10.8358 10.932 7.50448 15.036 7.50448C17.034 7.50448 18.888 8.27463 20.31 9.67164C21.714 11.0687 22.488 12.9313 22.488 14.9194C22.488 19.003 19.14 22.3343 15.036 22.3343ZM19.122 16.7821C18.906 16.6746 17.79 16.1373 17.592 16.0657C17.394 15.994 17.232 15.9582 17.088 16.1731C16.944 16.3881 16.512 16.8896 16.386 17.0507C16.26 17.194 16.116 17.2119 15.9 17.1045C15.684 16.997 14.946 16.7642 14.1 15.994C13.434 15.403 12.984 14.6687 12.858 14.4537C12.732 14.2388 12.84 14.1134 12.948 14.006C13.056 13.8985 13.164 13.7373 13.29 13.6119C13.398 13.4866 13.434 13.397 13.506 13.2358C13.578 13.0925 13.542 12.9493 13.488 12.8418C13.434 12.7343 12.984 11.6418 12.804 11.194C12.624 10.7642 12.444 10.8179 12.3 10.8179C12.174 10.8179 12.012 10.8179 11.868 10.8179C11.724 10.8179 11.472 10.8716 11.274 11.1045C11.076 11.3194 10.482 11.8746 10.482 12.9672C10.482 14.0597 11.292 15.1164 11.4 15.2776C11.508 15.4209 12.984 17.6776 15.234 18.6448C15.774 18.8776 16.188 19.003 16.512 19.1104C17.052 19.2716 17.538 19.2537 17.916 19.2C18.348 19.1284 19.248 18.6627 19.428 18.1433C19.608 17.6239 19.608 17.1761 19.554 17.0866C19.5 16.9433 19.356 16.8896 19.122 16.7821Z" fill="#2A2A2A"/>
</g>
</g>
</g>
<defs>
<clipPath id="clip0_2232_679">
<rect width="30" height="30" fill="white"/>
</clipPath>
<clipPath id="clip1_2232_679">
<rect width="18" height="18" fill="white" transform="translate(6 6)"/>
</clipPath>
</defs>
</svg>
