<svg width="24" height="17" viewBox="0 0 24 17" fill="none" xmlns="http://www.w3.org/2000/svg">
<g clip-path="url(#clip0_184_1733)">
<path d="M10.9137 16.3652H8.05895V2.30567H6.79579C4.47158 2.30567 3.23368 3.48356 3.23368 5.21281C3.23368 7.16761 4.09263 8.09489 5.83579 9.27278L7.27579 10.2251L3.08211 16.3652H0L3.73895 10.8517C1.59158 9.3229 0.378947 7.84427 0.378947 5.33812C0.378947 2.20543 2.57684 0.0751953 6.74526 0.0751953H10.8884L10.9137 16.3652Z" fill="white"/>
<path d="M23.0402 5.51354L18.5687 5.18774C18.316 5.16268 18.0634 5.01231 17.9623 4.76169L16.2697 0.626538C16.0929 0.200492 15.7139 0 15.3097 0C14.9055 0 14.5266 0.200492 14.3497 0.626538L12.6571 4.76169C12.6318 4.83688 12.5813 4.91206 12.5308 4.96218V15.3627L14.9055 13.8841C15.1329 13.7337 15.4108 13.7337 15.6381 13.8841L19.4529 16.2148C19.6297 16.3401 19.8066 16.3902 19.9834 16.3902C20.5897 16.3902 21.1202 15.8138 20.9687 15.1121L19.9076 10.8266C19.8318 10.576 19.9329 10.3003 20.135 10.1249L23.6213 7.29291C24.3539 6.69143 23.9497 5.56366 23.0402 5.51354Z" fill="white"/>
</g>
<defs>
<clipPath id="clip0_184_1733">
<rect width="24" height="16.3902" fill="white"/>
</clipPath>
</defs>
</svg>
