<svg width="24" height="17" viewBox="0 0 24 17" fill="none" xmlns="http://www.w3.org/2000/svg">
<g clip-path="url(#clip0_2202_599)">
<path d="M10.9137 16.3652H8.05895V2.30567H6.79579C4.47158 2.30567 3.23368 3.48356 3.23368 5.21281C3.23368 7.16761 4.09263 8.09489 5.83579 9.27278L7.27579 10.2251L3.08211 16.3652H0L3.73895 10.8517C1.59158 9.3229 0.378947 7.84427 0.378947 5.33812C0.378947 2.20543 2.57684 0.0751953 6.74526 0.0751953H10.8884L10.9137 16.3652Z" fill="#BDA45F"/>
<path d="M23.0397 5.51354L18.5682 5.18774C18.3155 5.16268 18.0629 5.01231 17.9619 4.76169L16.2692 0.626538C16.0924 0.200492 15.7134 0 15.3092 0C14.905 0 14.5261 0.200492 14.3492 0.626538L12.6566 4.76169C12.6313 4.83688 12.5808 4.91206 12.5303 4.96218V15.3627L14.905 13.8841C15.1324 13.7337 15.4103 13.7337 15.6376 13.8841L19.4524 16.2148C19.6292 16.3401 19.8061 16.3902 19.9829 16.3902C20.5892 16.3902 21.1197 15.8138 20.9682 15.1121L19.9071 10.8266C19.8313 10.576 19.9324 10.3003 20.1345 10.1249L23.6208 7.29291C24.3534 6.69143 23.9492 5.56366 23.0397 5.51354Z" fill="#BDA45F"/>
</g>
<defs>
<clipPath id="clip0_2202_599">
<rect width="24" height="16.3902" fill="white"/>
</clipPath>
</defs>
</svg>
